{"glyphs":{"0":{"ha":833,"x_min":81,"x_max":753,"o":"m 415 -14 q 237 47 313 -14 q 121 220 161 108 q 81 486 81 332 q 121 753 81 640 q 237 926 161 865 q 415 986 313 986 q 595 926 519 986 q 712 753 671 865 q 753 486 753 640 q 712 220 753 332 q 595 47 671 108 q 415 -14 519 -14 m 415 25 q 574 81 507 25 q 676 241 640 138 q 713 486 713 344 q 676 732 713 629 q 574 891 640 835 q 415 947 507 947 q 258 891 325 947 q 156 732 192 835 q 121 486 121 629 q 156 241 121 344 q 258 81 192 138 q 415 25 325 25 z "},"1":{"ha":833,"x_min":129,"x_max":746,"o":"m 417 18 l 417 824 q 387 902 417 871 q 310 933 357 933 l 142 933 l 142 972 l 314 972 q 418 932 378 972 q 458 829 458 892 l 458 18 l 417 18 m 129 0 l 129 39 l 746 39 l 746 0 l 129 0 z "},"2":{"ha":833,"x_min":108,"x_max":722,"o":"m 108 0 l 108 32 l 490 419 q 588 535 556 485 q 633 626 621 585 q 644 706 644 668 q 580 883 644 821 q 404 946 515 946 q 258 904 328 946 q 144 789 189 863 l 114 814 q 241 941 163 896 q 404 986 319 986 q 556 951 493 986 q 653 854 619 917 q 686 707 686 792 q 674 621 686 667 q 627 520 663 575 q 521 393 592 465 l 163 31 l 158 39 l 722 39 l 722 0 l 108 0 z "},"3":{"ha":833,"x_min":89,"x_max":713,"o":"m 390 -14 q 208 19 281 -14 q 89 96 135 53 l 115 126 q 222 56 156 88 q 392 24 288 24 q 538 53 475 24 q 637 133 601 82 q 672 251 672 185 q 594 411 672 350 q 375 472 515 472 l 246 472 l 246 511 l 374 511 q 522 542 461 511 q 613 625 582 574 q 644 738 644 676 q 573 892 644 836 q 388 947 501 947 q 238 919 299 947 q 147 863 176 890 l 124 893 q 225 956 158 925 q 388 986 292 986 q 542 956 475 986 q 647 872 610 926 q 685 742 685 818 q 649 612 685 671 q 544 517 613 553 q 376 482 475 482 l 376 503 q 560 470 486 503 q 674 380 635 438 q 713 249 713 322 q 672 112 713 171 q 558 19 631 53 q 390 -14 485 -14 z "},"4":{"ha":833,"x_min":85,"x_max":768,"o":"m 85 263 l 85 297 l 444 972 l 490 972 l 128 293 l 119 301 l 768 301 l 768 263 l 85 263 m 550 0 l 550 586 l 590 586 l 590 0 l 550 0 z "},"5":{"ha":833,"x_min":100,"x_max":731,"o":"m 392 -14 q 216 21 290 -14 q 100 96 142 56 l 126 126 q 230 58 163 92 q 394 24 297 24 q 609 99 528 24 q 690 306 690 175 q 626 493 690 419 q 440 567 561 567 q 278 519 343 567 q 190 394 214 471 l 151 394 l 174 849 q 215 938 176 903 q 310 972 254 972 l 678 972 l 678 933 l 314 933 q 246 909 275 933 q 214 846 217 885 l 193 443 l 179 446 q 278 560 210 515 q 446 606 347 606 q 599 567 536 606 q 697 462 663 529 q 731 308 731 394 q 688 136 731 208 q 569 25 644 64 q 392 -14 493 -14 z "},"6":{"ha":833,"x_min":108,"x_max":743,"o":"m 426 -14 q 258 25 329 -14 q 147 135 186 64 q 108 303 108 207 q 126 417 108 365 q 175 513 144 469 l 501 972 l 554 972 l 243 543 l 233 549 q 327 603 275 588 q 433 619 379 619 q 594 579 524 619 q 703 467 664 539 q 743 303 743 396 q 703 138 743 210 q 591 26 663 67 q 426 -14 519 -14 m 425 25 q 569 60 507 25 q 667 158 632 96 q 703 303 703 221 q 668 448 703 385 q 572 547 633 511 q 431 582 511 582 q 282 547 346 582 q 183 449 218 511 q 149 303 149 386 q 224 101 149 176 q 425 25 299 25 z "},"7":{"ha":833,"x_min":89,"x_max":738,"o":"m 206 0 l 697 947 l 704 933 l 89 933 l 89 972 l 738 972 l 738 944 l 253 0 l 206 0 z "},"8":{"ha":833,"x_min":82,"x_max":751,"o":"m 417 -14 q 244 21 319 -14 q 125 117 168 56 q 82 260 82 179 q 124 398 82 339 q 240 490 165 457 q 408 522 314 522 l 408 501 q 258 532 322 501 q 159 617 194 563 q 124 742 124 671 q 160 870 124 815 q 263 956 197 925 q 417 986 329 986 q 572 956 506 986 q 674 870 638 925 q 711 742 711 815 q 676 617 711 671 q 576 532 640 563 q 425 501 513 501 l 425 522 q 594 490 521 522 q 710 398 668 457 q 751 260 751 339 q 708 117 751 179 q 590 21 665 56 q 417 -14 515 -14 m 417 25 q 569 55 503 25 q 673 139 635 85 q 711 264 711 193 q 673 385 711 333 q 569 465 635 436 q 417 493 503 493 q 265 465 332 493 q 160 385 199 436 q 122 264 122 333 q 160 139 122 193 q 265 55 199 85 q 417 25 332 25 m 417 531 q 601 588 532 531 q 671 739 671 646 q 601 890 671 832 q 417 947 532 947 q 233 890 303 947 q 164 739 164 832 q 233 588 164 646 q 417 531 303 531 z "},"9":{"ha":833,"x_min":90,"x_max":725,"o":"m 279 0 l 590 429 l 600 424 q 506 369 558 385 q 400 353 454 353 q 240 393 310 353 q 130 505 169 433 q 90 669 90 576 q 131 834 90 763 q 242 946 171 906 q 407 986 314 986 q 576 947 504 986 q 686 838 647 908 q 725 669 725 767 q 707 555 725 607 q 658 460 689 503 l 332 0 l 279 0 m 403 390 q 552 426 489 390 q 650 524 615 461 q 685 669 685 588 q 610 872 685 797 q 408 947 535 947 q 264 912 326 947 q 166 814 201 876 q 131 669 131 751 q 165 524 131 588 q 262 426 200 461 q 403 390 324 390 z "},"A":{"ha":875,"x_min":25,"x_max":850,"o":"m 25 0 l 415 972 l 458 972 l 850 0 l 807 0 l 432 938 l 444 938 l 67 0 l 25 0 m 172 304 l 189 343 l 686 343 l 703 304 l 172 304 z "},"Á":{"ha":875,"x_min":25,"x_max":850,"o":"m 25 0 l 415 972 l 458 972 l 850 0 l 807 0 l 432 938 l 444 938 l 67 0 l 25 0 m 172 304 l 189 343 l 686 343 l 703 304 l 172 304 m 415 1094 l 536 1260 l 590 1260 l 460 1094 l 415 1094 z "},"Ă":{"ha":875,"x_min":25,"x_max":850,"o":"m 25 0 l 415 972 l 458 972 l 850 0 l 807 0 l 432 938 l 444 938 l 67 0 l 25 0 m 172 304 l 189 343 l 686 343 l 703 304 l 172 304 m 438 1088 q 339 1106 381 1088 q 276 1164 297 1125 q 254 1260 254 1203 l 292 1260 q 330 1154 292 1189 q 438 1119 368 1119 q 545 1154 507 1119 q 583 1260 583 1189 l 621 1260 q 599 1164 621 1203 q 537 1106 578 1125 q 438 1088 496 1088 z "},"Ǎ":{"ha":875,"x_min":25,"x_max":850,"o":"m 25 0 l 415 972 l 458 972 l 850 0 l 807 0 l 432 938 l 444 938 l 67 0 l 25 0 m 172 304 l 189 343 l 686 343 l 703 304 l 172 304 m 415 1094 l 240 1260 l 288 1260 l 450 1114 l 425 1114 l 588 1260 l 635 1260 l 458 1094 l 415 1094 z "},"Â":{"ha":875,"x_min":25,"x_max":850,"o":"m 25 0 l 415 972 l 458 972 l 850 0 l 807 0 l 432 938 l 444 938 l 67 0 l 25 0 m 172 304 l 189 343 l 686 343 l 703 304 l 172 304 m 240 1094 l 417 1260 l 460 1260 l 635 1094 l 588 1094 l 425 1242 l 450 1242 l 288 1094 l 240 1094 z "},"Ä":{"ha":875,"x_min":25,"x_max":850,"o":"m 25 0 l 415 972 l 458 972 l 850 0 l 807 0 l 432 938 l 444 938 l 67 0 l 25 0 m 172 304 l 189 343 l 686 343 l 703 304 l 172 304 m 549 1126 l 549 1233 l 588 1233 l 588 1126 l 549 1126 m 288 1126 l 288 1233 l 326 1233 l 326 1126 l 288 1126 z "},"À":{"ha":875,"x_min":25,"x_max":850,"o":"m 25 0 l 415 972 l 458 972 l 850 0 l 807 0 l 432 938 l 444 938 l 67 0 l 25 0 m 172 304 l 189 343 l 686 343 l 703 304 l 172 304 m 415 1094 l 285 1260 l 339 1260 l 460 1094 l 415 1094 z "},"Ā":{"ha":875,"x_min":25,"x_max":850,"o":"m 25 0 l 415 972 l 458 972 l 850 0 l 807 0 l 432 938 l 444 938 l 67 0 l 25 0 m 172 304 l 189 343 l 686 343 l 703 304 l 172 304 m 244 1118 l 244 1153 l 631 1153 l 631 1118 l 244 1118 z "},"Ą":{"ha":875,"x_min":25,"x_max":850,"o":"m 25 0 l 415 972 l 458 972 l 850 0 l 807 0 l 432 938 l 444 938 l 67 0 l 25 0 m 172 304 l 189 343 l 686 343 l 703 304 l 172 304 m 775 -278 q 709 -253 731 -278 q 688 -194 688 -228 q 699 -148 688 -171 q 728 -100 710 -125 l 814 19 l 840 0 l 754 -121 q 735 -156 743 -139 q 726 -192 726 -174 q 740 -227 726 -211 q 779 -243 753 -243 l 832 -243 l 832 -278 l 775 -278 z "},"Å":{"ha":875,"x_min":25,"x_max":850,"o":"m 25 0 l 415 972 l 458 972 l 850 0 l 807 0 l 432 938 l 444 938 l 67 0 l 25 0 m 172 304 l 189 343 l 686 343 l 703 304 l 172 304 m 438 1075 q 351 1106 385 1075 q 318 1186 318 1138 q 351 1267 318 1235 q 438 1299 385 1299 q 524 1267 490 1299 q 557 1186 557 1235 q 524 1106 557 1138 q 438 1075 490 1075 m 438 1103 q 499 1126 475 1103 q 524 1186 524 1150 q 499 1246 524 1222 q 438 1269 475 1269 q 375 1246 399 1269 q 351 1186 351 1222 q 376 1126 351 1150 q 438 1103 400 1103 z "},"Ã":{"ha":875,"x_min":25,"x_max":850,"o":"m 25 0 l 415 972 l 458 972 l 850 0 l 807 0 l 432 938 l 444 938 l 67 0 l 25 0 m 172 304 l 189 343 l 686 343 l 703 304 l 172 304 m 536 1099 q 476 1117 503 1099 q 427 1161 450 1136 q 382 1205 404 1186 q 336 1224 360 1224 q 295 1201 310 1224 q 278 1138 281 1178 l 242 1138 q 270 1224 244 1193 q 339 1256 296 1256 q 395 1237 371 1256 q 442 1194 419 1218 q 487 1151 464 1169 q 536 1132 510 1132 q 583 1156 567 1132 q 597 1222 599 1179 l 633 1222 q 608 1132 635 1165 q 536 1099 582 1099 z "},"Æ":{"ha":1288,"x_min":-17,"x_max":1211,"o":"m -17 0 l 646 972 l 1211 972 l 1211 933 l 682 933 l 700 951 l 700 147 q 731 70 700 101 q 808 39 763 39 l 1211 39 l 1211 0 l 803 0 q 701 41 742 0 q 660 143 660 82 l 660 942 l 669 938 l 31 0 l -17 0 m 214 317 l 239 356 l 682 356 l 682 317 l 214 317 m 688 467 l 688 506 l 1182 506 l 1182 467 l 688 467 z "},"B":{"ha":831,"x_min":139,"x_max":747,"o":"m 139 0 l 139 972 l 433 972 q 643 907 568 972 q 718 735 718 842 q 688 612 718 667 q 599 525 657 557 q 454 493 540 493 l 454 510 q 608 478 543 510 q 710 390 674 446 q 747 264 747 335 q 670 73 747 146 q 436 0 593 0 l 139 0 m 179 21 l 161 38 l 433 38 q 639 101 572 38 q 706 265 706 164 q 673 377 706 328 q 583 454 640 426 q 447 482 525 482 l 161 482 l 161 519 l 444 519 q 618 580 558 519 q 678 733 678 640 q 613 879 678 824 q 432 935 547 935 l 161 935 l 179 951 l 179 21 z "},"C":{"ha":892,"x_min":79,"x_max":849,"o":"m 565 -21 q 376 15 464 -21 q 221 117 288 51 q 117 272 154 182 q 79 471 79 363 l 79 501 q 117 700 79 610 q 221 856 154 790 q 376 957 288 921 q 565 993 464 993 q 719 971 647 993 q 847 908 792 949 l 824 876 q 565 953 717 953 q 392 920 472 953 q 250 827 311 888 q 155 684 189 767 q 121 501 121 601 l 121 471 q 155 288 121 371 q 250 145 189 206 q 392 52 311 85 q 565 19 472 19 q 824 97 718 19 l 849 65 q 720 1 793 24 q 565 -21 647 -21 z "},"Ć":{"ha":892,"x_min":79,"x_max":849,"o":"m 565 -21 q 376 15 464 -21 q 221 117 288 51 q 117 272 154 182 q 79 471 79 363 l 79 501 q 117 700 79 610 q 221 856 154 790 q 376 957 288 921 q 565 993 464 993 q 719 971 647 993 q 847 908 792 949 l 824 876 q 565 953 717 953 q 392 920 472 953 q 250 827 311 888 q 155 684 189 767 q 121 501 121 601 l 121 471 q 155 288 121 371 q 250 145 189 206 q 392 52 311 85 q 565 19 472 19 q 824 97 718 19 l 849 65 q 720 1 793 24 q 565 -21 647 -21 m 558 1094 l 679 1260 l 733 1260 l 603 1094 l 558 1094 z "},"Č":{"ha":892,"x_min":79,"x_max":849,"o":"m 565 -21 q 376 15 464 -21 q 221 117 288 51 q 117 272 154 182 q 79 471 79 363 l 79 501 q 117 700 79 610 q 221 856 154 790 q 376 957 288 921 q 565 993 464 993 q 719 971 647 993 q 847 908 792 949 l 824 876 q 565 953 717 953 q 392 920 472 953 q 250 827 311 888 q 155 684 189 767 q 121 501 121 601 l 121 471 q 155 288 121 371 q 250 145 189 206 q 392 52 311 85 q 565 19 472 19 q 824 97 718 19 l 849 65 q 720 1 793 24 q 565 -21 647 -21 m 558 1094 l 383 1260 l 431 1260 l 593 1114 l 568 1114 l 731 1260 l 778 1260 l 601 1094 l 558 1094 z "},"Ç":{"ha":893,"x_min":81,"x_max":850,"o":"m 567 -21 q 377 15 465 -21 q 222 117 289 51 q 118 272 156 182 q 81 471 81 363 l 81 501 q 118 700 81 610 q 222 856 156 790 q 377 957 289 921 q 567 993 465 993 q 721 971 649 993 q 849 908 793 949 l 825 876 q 567 953 718 953 q 393 920 474 953 q 251 827 313 888 q 156 684 190 767 q 122 501 122 601 l 122 471 q 156 288 122 371 q 251 145 190 206 q 393 52 313 85 q 567 19 474 19 q 825 97 719 19 l 850 65 q 722 1 794 24 q 567 -21 649 -21 m 592 -279 l 457 -279 l 457 -249 l 592 -249 q 644 -231 626 -249 q 663 -186 663 -212 q 644 -144 663 -161 q 592 -126 626 -126 l 513 -126 l 522 6 l 557 6 l 551 -110 l 536 -96 l 594 -96 q 672 -122 644 -96 q 699 -186 699 -147 q 671 -253 699 -228 q 592 -279 643 -279 z "},"Ċ":{"ha":892,"x_min":79,"x_max":849,"o":"m 565 -21 q 376 15 464 -21 q 221 117 288 51 q 117 272 154 182 q 79 471 79 363 l 79 501 q 117 700 79 610 q 221 856 154 790 q 376 957 288 921 q 565 993 464 993 q 719 971 647 993 q 847 908 792 949 l 824 876 q 565 953 717 953 q 392 920 472 953 q 250 827 311 888 q 155 684 189 767 q 121 501 121 601 l 121 471 q 155 288 121 371 q 250 145 189 206 q 392 52 311 85 q 565 19 472 19 q 824 97 718 19 l 849 65 q 720 1 793 24 q 565 -21 647 -21 m 560 1121 l 560 1238 l 601 1238 l 601 1121 l 560 1121 z "},"D":{"ha":979,"x_min":139,"x_max":897,"o":"m 139 0 l 139 972 l 433 972 q 617 939 533 972 q 765 844 701 906 q 863 697 828 782 q 897 511 897 613 l 897 493 q 863 294 897 385 q 765 138 828 204 q 617 36 701 72 q 433 0 532 0 l 139 0 m 179 22 l 161 40 l 432 40 q 649 98 553 40 q 801 258 746 156 q 857 493 857 361 l 857 511 q 801 731 857 636 q 649 878 746 825 q 432 932 553 932 l 161 932 l 179 950 l 179 22 z "},"Ď":{"ha":979,"x_min":139,"x_max":897,"o":"m 139 0 l 139 972 l 433 972 q 617 939 533 972 q 765 844 701 906 q 863 697 828 782 q 897 511 897 613 l 897 493 q 863 294 897 385 q 765 138 828 204 q 617 36 701 72 q 433 0 532 0 l 139 0 m 179 22 l 161 40 l 432 40 q 649 98 553 40 q 801 258 746 156 q 857 493 857 361 l 857 511 q 801 731 857 636 q 649 878 746 825 q 432 932 553 932 l 161 932 l 179 950 l 179 22 m 447 1094 l 272 1260 l 319 1260 l 482 1114 l 457 1114 l 619 1260 l 667 1260 l 490 1094 l 447 1094 z "},"Đ":{"ha":1014,"x_min":50,"x_max":932,"o":"m 50 481 l 50 518 l 453 518 l 453 481 l 50 481 m 174 0 l 174 972 l 468 972 q 652 939 568 972 q 799 844 736 906 q 897 697 863 782 q 932 511 932 613 l 932 493 q 897 294 932 385 q 799 138 863 204 q 651 36 736 72 q 468 0 567 0 l 174 0 m 214 22 l 196 40 l 467 40 q 684 98 588 40 q 836 258 781 156 q 892 493 892 361 l 892 511 q 836 731 892 636 q 684 878 781 825 q 467 932 588 932 l 196 932 l 214 950 l 214 22 z "},"Ð":{"ha":1014,"x_min":50,"x_max":932,"o":"m 50 481 l 50 518 l 453 518 l 453 481 l 50 481 m 174 0 l 174 972 l 468 972 q 652 939 568 972 q 799 844 736 906 q 897 697 863 782 q 932 511 932 613 l 932 493 q 897 294 932 385 q 799 138 863 204 q 651 36 736 72 q 468 0 567 0 l 174 0 m 214 22 l 196 40 l 467 40 q 684 98 588 40 q 836 258 781 156 q 892 493 892 361 l 892 511 q 836 731 892 636 q 684 878 781 825 q 467 932 588 932 l 196 932 l 214 950 l 214 22 z "},"E":{"ha":760,"x_min":131,"x_max":683,"o":"m 274 0 q 171 41 211 0 q 131 143 131 82 l 131 829 q 171 931 131 890 q 274 972 211 972 l 683 972 l 683 933 l 279 933 q 201 902 232 933 q 171 825 171 871 l 171 147 q 201 70 171 101 q 279 39 232 39 l 683 39 l 683 0 l 274 0 m 156 467 l 156 506 l 654 506 l 654 467 l 156 467 z "},"É":{"ha":760,"x_min":131,"x_max":683,"o":"m 274 0 q 171 41 211 0 q 131 143 131 82 l 131 829 q 171 931 131 890 q 274 972 211 972 l 683 972 l 683 933 l 279 933 q 201 902 232 933 q 171 825 171 871 l 171 147 q 201 70 171 101 q 279 39 232 39 l 683 39 l 683 0 l 274 0 m 156 467 l 156 506 l 654 506 l 654 467 l 156 467 m 406 1094 l 526 1260 l 581 1260 l 450 1094 l 406 1094 z "},"Ě":{"ha":760,"x_min":131,"x_max":683,"o":"m 274 0 q 171 41 211 0 q 131 143 131 82 l 131 829 q 171 931 131 890 q 274 972 211 972 l 683 972 l 683 933 l 279 933 q 201 902 232 933 q 171 825 171 871 l 171 147 q 201 70 171 101 q 279 39 232 39 l 683 39 l 683 0 l 274 0 m 156 467 l 156 506 l 654 506 l 654 467 l 156 467 m 406 1094 l 231 1260 l 278 1260 l 440 1114 l 415 1114 l 578 1260 l 625 1260 l 449 1094 l 406 1094 z "},"Ê":{"ha":760,"x_min":131,"x_max":683,"o":"m 274 0 q 171 41 211 0 q 131 143 131 82 l 131 829 q 171 931 131 890 q 274 972 211 972 l 683 972 l 683 933 l 279 933 q 201 902 232 933 q 171 825 171 871 l 171 147 q 201 70 171 101 q 279 39 232 39 l 683 39 l 683 0 l 274 0 m 156 467 l 156 506 l 654 506 l 654 467 l 156 467 m 231 1094 l 407 1260 l 450 1260 l 625 1094 l 578 1094 l 415 1242 l 440 1242 l 278 1094 l 231 1094 z "},"Ë":{"ha":760,"x_min":131,"x_max":683,"o":"m 274 0 q 171 41 211 0 q 131 143 131 82 l 131 829 q 171 931 131 890 q 274 972 211 972 l 683 972 l 683 933 l 279 933 q 201 902 232 933 q 171 825 171 871 l 171 147 q 201 70 171 101 q 279 39 232 39 l 683 39 l 683 0 l 274 0 m 156 467 l 156 506 l 654 506 l 654 467 l 156 467 m 539 1126 l 539 1233 l 578 1233 l 578 1126 l 539 1126 m 278 1126 l 278 1233 l 317 1233 l 317 1126 l 278 1126 z "},"Ė":{"ha":760,"x_min":131,"x_max":683,"o":"m 274 0 q 171 41 211 0 q 131 143 131 82 l 131 829 q 171 931 131 890 q 274 972 211 972 l 683 972 l 683 933 l 279 933 q 201 902 232 933 q 171 825 171 871 l 171 147 q 201 70 171 101 q 279 39 232 39 l 683 39 l 683 0 l 274 0 m 156 467 l 156 506 l 654 506 l 654 467 l 156 467 m 407 1121 l 407 1238 l 449 1238 l 449 1121 l 407 1121 z "},"È":{"ha":760,"x_min":131,"x_max":683,"o":"m 274 0 q 171 41 211 0 q 131 143 131 82 l 131 829 q 171 931 131 890 q 274 972 211 972 l 683 972 l 683 933 l 279 933 q 201 902 232 933 q 171 825 171 871 l 171 147 q 201 70 171 101 q 279 39 232 39 l 683 39 l 683 0 l 274 0 m 156 467 l 156 506 l 654 506 l 654 467 l 156 467 m 406 1094 l 275 1260 l 329 1260 l 450 1094 l 406 1094 z "},"Ē":{"ha":760,"x_min":131,"x_max":683,"o":"m 274 0 q 171 41 211 0 q 131 143 131 82 l 131 829 q 171 931 131 890 q 274 972 211 972 l 683 972 l 683 933 l 279 933 q 201 902 232 933 q 171 825 171 871 l 171 147 q 201 70 171 101 q 279 39 232 39 l 683 39 l 683 0 l 274 0 m 156 467 l 156 506 l 654 506 l 654 467 l 156 467 m 235 1118 l 235 1153 l 621 1153 l 621 1118 l 235 1118 z "},"Ę":{"ha":760,"x_min":131,"x_max":683,"o":"m 274 0 q 171 41 211 0 q 131 143 131 82 l 131 829 q 171 931 131 890 q 274 972 211 972 l 683 972 l 683 933 l 279 933 q 201 902 232 933 q 171 825 171 871 l 171 147 q 201 70 171 101 q 279 39 232 39 l 683 39 l 683 0 l 274 0 m 156 467 l 156 506 l 654 506 l 654 467 l 156 467 m 618 -278 q 552 -253 574 -278 q 531 -194 531 -228 q 542 -148 531 -171 q 571 -100 553 -125 l 657 19 l 683 0 l 597 -121 q 578 -156 586 -139 q 569 -192 569 -174 q 583 -227 569 -211 q 622 -243 596 -243 l 675 -243 l 675 -278 l 618 -278 z "},"F":{"ha":735,"x_min":135,"x_max":685,"o":"m 135 0 l 135 829 q 175 931 135 890 q 278 972 215 972 l 685 972 l 685 933 l 283 933 q 206 902 238 933 q 175 825 175 871 l 175 0 l 135 0 m 157 444 l 157 483 l 657 483 l 657 444 l 157 444 z "},"G":{"ha":1017,"x_min":81,"x_max":971,"o":"m 551 -21 q 308 42 414 -21 q 141 215 201 104 q 81 471 81 326 l 81 500 q 142 757 81 646 q 312 931 203 868 q 563 993 421 993 q 703 972 635 993 q 829 907 772 950 l 804 875 q 690 934 753 915 q 561 953 626 953 q 334 895 433 953 q 178 735 235 838 q 122 500 122 633 l 122 471 q 177 236 122 338 q 329 77 232 135 q 551 19 426 19 q 713 56 642 19 q 832 153 783 92 q 904 296 881 215 q 922 465 928 376 l 940 446 l 631 446 l 631 483 l 963 483 q 947 290 971 381 q 868 128 922 199 q 734 19 814 58 q 551 -21 654 -21 z "},"Ğ":{"ha":1017,"x_min":81,"x_max":971,"o":"m 551 -21 q 308 42 414 -21 q 141 215 201 104 q 81 471 81 326 l 81 500 q 142 757 81 646 q 312 931 203 868 q 563 993 421 993 q 703 972 635 993 q 829 907 772 950 l 804 875 q 690 934 753 915 q 561 953 626 953 q 334 895 433 953 q 178 735 235 838 q 122 500 122 633 l 122 471 q 177 236 122 338 q 329 77 232 135 q 551 19 426 19 q 713 56 642 19 q 832 153 783 92 q 904 296 881 215 q 922 465 928 376 l 940 446 l 631 446 l 631 483 l 963 483 q 947 290 971 381 q 868 128 922 199 q 734 19 814 58 q 551 -21 654 -21 m 546 1088 q 447 1106 489 1088 q 384 1164 406 1125 q 363 1260 363 1203 l 400 1260 q 438 1154 400 1189 q 546 1119 476 1119 q 653 1154 615 1119 q 692 1260 692 1189 l 729 1260 q 708 1164 729 1203 q 645 1106 686 1125 q 546 1088 604 1088 z "},"Ģ":{"ha":1017,"x_min":81,"x_max":971,"o":"m 551 -21 q 308 42 414 -21 q 141 215 201 104 q 81 471 81 326 l 81 500 q 142 757 81 646 q 312 931 203 868 q 563 993 421 993 q 703 972 635 993 q 829 907 772 950 l 804 875 q 690 934 753 915 q 561 953 626 953 q 334 895 433 953 q 178 735 235 838 q 122 500 122 633 l 122 471 q 177 236 122 338 q 329 77 232 135 q 551 19 426 19 q 713 56 642 19 q 832 153 783 92 q 904 296 881 215 q 922 465 928 376 l 940 446 l 631 446 l 631 483 l 963 483 q 947 290 971 381 q 868 128 922 199 q 734 19 814 58 q 551 -21 654 -21 m 460 -279 l 460 -251 l 496 -251 q 533 -210 533 -251 l 533 -164 l 525 -164 l 525 -96 l 567 -96 l 567 -210 q 558 -247 567 -231 q 533 -271 549 -262 q 496 -279 517 -279 l 460 -279 z "},"Ġ":{"ha":1017,"x_min":81,"x_max":971,"o":"m 551 -21 q 308 42 414 -21 q 141 215 201 104 q 81 471 81 326 l 81 500 q 142 757 81 646 q 312 931 203 868 q 563 993 421 993 q 703 972 635 993 q 829 907 772 950 l 804 875 q 690 934 753 915 q 561 953 626 953 q 334 895 433 953 q 178 735 235 838 q 122 500 122 633 l 122 471 q 177 236 122 338 q 329 77 232 135 q 551 19 426 19 q 713 56 642 19 q 832 153 783 92 q 904 296 881 215 q 922 465 928 376 l 940 446 l 631 446 l 631 483 l 963 483 q 947 290 971 381 q 868 128 922 199 q 734 19 814 58 q 551 -21 654 -21 m 525 1121 l 525 1238 l 567 1238 l 567 1121 l 525 1121 z "},"H":{"ha":993,"x_min":139,"x_max":854,"o":"m 814 0 l 814 972 l 854 972 l 854 0 l 814 0 m 139 0 l 139 972 l 179 972 l 179 0 l 139 0 m 165 481 l 165 519 l 828 519 l 828 481 l 165 481 z "},"Ħ":{"ha":1026,"x_min":47,"x_max":981,"o":"m 47 711 l 47 744 l 981 744 l 981 711 l 47 711 m 831 0 l 831 972 l 871 972 l 871 0 l 831 0 m 156 0 l 156 972 l 196 972 l 196 0 l 156 0 m 182 436 l 182 475 l 844 475 l 844 436 l 182 436 z "},"I":{"ha":508,"x_min":49,"x_max":460,"o":"m 232 14 l 232 958 l 274 958 l 274 14 l 232 14 m 49 933 l 49 972 l 460 972 l 460 933 l 49 933 m 49 0 l 49 39 l 460 39 l 460 0 l 49 0 z "},"Í":{"ha":508,"x_min":49,"x_max":460,"o":"m 232 14 l 232 958 l 274 958 l 274 14 l 232 14 m 49 933 l 49 972 l 460 972 l 460 933 l 49 933 m 49 0 l 49 39 l 460 39 l 460 0 l 49 0 m 232 1094 l 353 1260 l 407 1260 l 276 1094 l 232 1094 z "},"Î":{"ha":508,"x_min":49,"x_max":460,"o":"m 232 14 l 232 958 l 274 958 l 274 14 l 232 14 m 49 933 l 49 972 l 460 972 l 460 933 l 49 933 m 49 0 l 49 39 l 460 39 l 460 0 l 49 0 m 57 1094 l 233 1260 l 276 1260 l 451 1094 l 404 1094 l 242 1242 l 267 1242 l 104 1094 l 57 1094 z "},"Ï":{"ha":508,"x_min":49,"x_max":460,"o":"m 232 14 l 232 958 l 274 958 l 274 14 l 232 14 m 49 933 l 49 972 l 460 972 l 460 933 l 49 933 m 49 0 l 49 39 l 460 39 l 460 0 l 49 0 m 365 1126 l 365 1233 l 404 1233 l 404 1126 l 365 1126 m 104 1126 l 104 1233 l 143 1233 l 143 1126 l 104 1126 z "},"İ":{"ha":508,"x_min":49,"x_max":460,"o":"m 232 14 l 232 958 l 274 958 l 274 14 l 232 14 m 49 933 l 49 972 l 460 972 l 460 933 l 49 933 m 49 0 l 49 39 l 460 39 l 460 0 l 49 0 m 233 1121 l 233 1238 l 275 1238 l 275 1121 l 233 1121 z "},"Ì":{"ha":508,"x_min":49,"x_max":460,"o":"m 232 14 l 232 958 l 274 958 l 274 14 l 232 14 m 49 933 l 49 972 l 460 972 l 460 933 l 49 933 m 49 0 l 49 39 l 460 39 l 460 0 l 49 0 m 232 1094 l 101 1260 l 156 1260 l 276 1094 l 232 1094 z "},"Ī":{"ha":508,"x_min":49,"x_max":460,"o":"m 232 14 l 232 958 l 274 958 l 274 14 l 232 14 m 49 933 l 49 972 l 460 972 l 460 933 l 49 933 m 49 0 l 49 39 l 460 39 l 460 0 l 49 0 m 61 1118 l 61 1153 l 447 1153 l 447 1118 l 61 1118 z "},"Į":{"ha":508,"x_min":49,"x_max":460,"o":"m 232 14 l 232 958 l 274 958 l 274 14 l 232 14 m 49 933 l 49 972 l 460 972 l 460 933 l 49 933 m 49 0 l 49 39 l 460 39 l 460 0 l 49 0 m 208 -278 q 142 -253 164 -278 q 121 -194 121 -228 q 132 -148 121 -171 q 161 -100 143 -125 l 247 19 l 274 0 l 188 -121 q 168 -156 176 -139 q 160 -192 160 -174 q 173 -227 160 -211 q 213 -243 186 -243 l 265 -243 l 265 -278 l 208 -278 z "},"J":{"ha":553,"x_min":28,"x_max":418,"o":"m 28 0 l 28 39 l 267 39 q 346 71 314 39 q 378 150 378 103 l 378 951 l 394 933 l 79 933 l 79 972 l 418 972 l 418 151 q 376 42 418 85 q 265 0 333 0 l 28 0 z "},"K":{"ha":811,"x_min":139,"x_max":800,"o":"m 163 256 l 160 311 l 713 972 l 763 972 l 163 256 m 139 0 l 139 972 l 179 972 l 179 0 l 139 0 m 749 0 l 363 529 l 392 558 l 800 0 l 749 0 z "},"Ķ":{"ha":811,"x_min":139,"x_max":800,"o":"m 163 256 l 160 311 l 713 972 l 763 972 l 163 256 m 139 0 l 139 972 l 179 972 l 179 0 l 139 0 m 749 0 l 363 529 l 392 558 l 800 0 l 749 0 m 343 -279 l 343 -251 l 379 -251 q 417 -210 417 -251 l 417 -164 l 408 -164 l 408 -96 l 450 -96 l 450 -210 q 441 -247 450 -231 q 416 -271 432 -262 q 379 -279 400 -279 l 343 -279 z "},"L":{"ha":686,"x_min":135,"x_max":667,"o":"m 278 0 q 175 41 215 0 q 135 143 135 82 l 135 972 l 175 972 l 175 149 q 206 71 175 101 q 283 40 238 40 l 667 40 l 667 0 l 278 0 z "},"Ĺ":{"ha":686,"x_min":133,"x_max":667,"o":"m 278 0 q 175 41 215 0 q 135 143 135 82 l 135 972 l 175 972 l 175 149 q 206 71 175 101 q 283 40 238 40 l 667 40 l 667 0 l 278 0 m 133 1094 l 254 1260 l 308 1260 l 178 1094 l 133 1094 z "},"Ľ":{"ha":688,"x_min":135,"x_max":667,"o":"m 278 0 q 175 41 215 0 q 135 143 135 82 l 135 972 l 175 972 l 175 149 q 206 71 175 101 q 283 40 238 40 l 667 40 l 667 0 l 278 0 m 433 746 l 433 972 l 472 972 l 471 746 l 433 746 z "},"Ļ":{"ha":686,"x_min":135,"x_max":667,"o":"m 278 0 q 175 41 215 0 q 135 143 135 82 l 135 972 l 175 972 l 175 149 q 206 71 175 101 q 283 40 238 40 l 667 40 l 667 0 l 278 0 m 336 -279 l 336 -251 l 372 -251 q 410 -210 410 -251 l 410 -164 l 401 -164 l 401 -96 l 443 -96 l 443 -210 q 434 -247 443 -231 q 409 -271 425 -262 q 372 -279 393 -279 l 336 -279 z "},"Ł":{"ha":750,"x_min":44,"x_max":731,"o":"m 44 361 l 44 401 l 474 614 l 474 572 l 44 361 m 342 0 q 239 41 279 0 q 199 143 199 82 l 199 972 l 239 972 l 239 149 q 270 71 239 101 q 347 40 301 40 l 731 40 l 731 0 l 342 0 z "},"M":{"ha":1069,"x_min":139,"x_max":931,"o":"m 139 0 l 139 972 l 192 972 l 543 304 l 526 304 l 876 972 l 931 972 l 931 0 l 890 0 l 890 928 l 899 926 l 556 271 l 514 271 l 171 926 l 179 928 l 179 0 l 139 0 z "},"N":{"ha":939,"x_min":139,"x_max":800,"o":"m 139 0 l 139 972 l 183 972 l 769 46 l 760 42 l 760 972 l 800 972 l 800 0 l 753 0 l 168 926 l 179 929 l 179 0 l 139 0 z "},"Ń":{"ha":939,"x_min":139,"x_max":800,"o":"m 139 0 l 139 972 l 183 972 l 769 46 l 760 42 l 760 972 l 800 972 l 800 0 l 753 0 l 168 926 l 179 929 l 179 0 l 139 0 m 449 1094 l 569 1260 l 624 1260 l 493 1094 l 449 1094 z "},"Ň":{"ha":939,"x_min":139,"x_max":800,"o":"m 139 0 l 139 972 l 183 972 l 769 46 l 760 42 l 760 972 l 800 972 l 800 0 l 753 0 l 168 926 l 179 929 l 179 0 l 139 0 m 449 1094 l 274 1260 l 321 1260 l 483 1114 l 458 1114 l 621 1260 l 668 1260 l 492 1094 l 449 1094 z "},"Ņ":{"ha":939,"x_min":139,"x_max":800,"o":"m 139 0 l 139 972 l 183 972 l 769 46 l 760 42 l 760 972 l 800 972 l 800 0 l 753 0 l 168 926 l 179 929 l 179 0 l 139 0 m 385 -279 l 385 -251 l 421 -251 q 458 -210 458 -251 l 458 -164 l 450 -164 l 450 -96 l 492 -96 l 492 -210 q 483 -247 492 -231 q 458 -271 474 -262 q 421 -279 442 -279 l 385 -279 z "},"Ñ":{"ha":939,"x_min":139,"x_max":800,"o":"m 139 0 l 139 972 l 183 972 l 769 46 l 760 42 l 760 972 l 800 972 l 800 0 l 753 0 l 168 926 l 179 929 l 179 0 l 139 0 m 569 1099 q 510 1117 536 1099 q 460 1161 483 1136 q 415 1205 438 1186 q 369 1224 393 1224 q 328 1201 343 1224 q 311 1138 314 1178 l 275 1138 q 303 1224 278 1193 q 372 1256 329 1256 q 428 1237 404 1256 q 475 1194 453 1218 q 520 1151 497 1169 q 569 1132 543 1132 q 616 1156 600 1132 q 631 1222 632 1179 l 667 1222 q 642 1132 668 1165 q 569 1099 615 1099 z "},"Ŋ":{"ha":939,"x_min":139,"x_max":800,"o":"m 775 -36 l 169 925 l 179 929 l 179 0 l 139 0 l 139 972 l 183 972 l 775 35 l 775 -36 m 542 -278 l 542 -239 l 649 -239 q 728 -207 696 -239 q 760 -128 760 -175 l 760 972 l 800 972 l 800 -126 q 758 -235 800 -193 q 647 -278 715 -278 l 542 -278 z "},"O":{"ha":1075,"x_min":81,"x_max":994,"o":"m 538 -14 q 301 50 404 -14 q 139 226 197 114 q 81 486 81 339 l 81 500 q 139 753 81 643 q 301 924 197 863 q 538 986 404 986 q 775 924 672 986 q 936 753 878 863 q 994 500 994 643 l 994 486 q 936 226 994 339 q 775 50 878 114 q 538 -14 672 -14 m 538 26 q 753 85 660 26 q 899 247 846 143 q 953 486 953 350 l 953 500 q 899 732 953 632 q 753 889 846 832 q 538 946 660 946 q 323 889 417 946 q 176 732 229 832 q 122 500 122 632 l 122 486 q 176 247 122 350 q 323 85 229 143 q 538 26 417 26 z "},"Ó":{"ha":1075,"x_min":81,"x_max":994,"o":"m 538 -14 q 301 50 404 -14 q 139 226 197 114 q 81 486 81 339 l 81 500 q 139 753 81 643 q 301 924 197 863 q 538 986 404 986 q 775 924 672 986 q 936 753 878 863 q 994 500 994 643 l 994 486 q 936 226 994 339 q 775 50 878 114 q 538 -14 672 -14 m 538 26 q 753 85 660 26 q 899 247 846 143 q 953 486 953 350 l 953 500 q 899 732 953 632 q 753 889 846 832 q 538 946 660 946 q 323 889 417 946 q 176 732 229 832 q 122 500 122 632 l 122 486 q 176 247 122 350 q 323 85 229 143 q 538 26 417 26 m 515 1094 l 636 1260 l 690 1260 l 560 1094 l 515 1094 z "},"Ô":{"ha":1075,"x_min":81,"x_max":994,"o":"m 538 -14 q 301 50 404 -14 q 139 226 197 114 q 81 486 81 339 l 81 500 q 139 753 81 643 q 301 924 197 863 q 538 986 404 986 q 775 924 672 986 q 936 753 878 863 q 994 500 994 643 l 994 486 q 936 226 994 339 q 775 50 878 114 q 538 -14 672 -14 m 538 26 q 753 85 660 26 q 899 247 846 143 q 953 486 953 350 l 953 500 q 899 732 953 632 q 753 889 846 832 q 538 946 660 946 q 323 889 417 946 q 176 732 229 832 q 122 500 122 632 l 122 486 q 176 247 122 350 q 323 85 229 143 q 538 26 417 26 m 340 1094 l 517 1260 l 560 1260 l 735 1094 l 688 1094 l 525 1242 l 550 1242 l 388 1094 l 340 1094 z "},"Ö":{"ha":1075,"x_min":81,"x_max":994,"o":"m 538 -14 q 301 50 404 -14 q 139 226 197 114 q 81 486 81 339 l 81 500 q 139 753 81 643 q 301 924 197 863 q 538 986 404 986 q 775 924 672 986 q 936 753 878 863 q 994 500 994 643 l 994 486 q 936 226 994 339 q 775 50 878 114 q 538 -14 672 -14 m 538 26 q 753 85 660 26 q 899 247 846 143 q 953 486 953 350 l 953 500 q 899 732 953 632 q 753 889 846 832 q 538 946 660 946 q 323 889 417 946 q 176 732 229 832 q 122 500 122 632 l 122 486 q 176 247 122 350 q 323 85 229 143 q 538 26 417 26 m 649 1126 l 649 1233 l 688 1233 l 688 1126 l 649 1126 m 388 1126 l 388 1233 l 426 1233 l 426 1126 l 388 1126 z "},"Ò":{"ha":1075,"x_min":81,"x_max":994,"o":"m 538 -14 q 301 50 404 -14 q 139 226 197 114 q 81 486 81 339 l 81 500 q 139 753 81 643 q 301 924 197 863 q 538 986 404 986 q 775 924 672 986 q 936 753 878 863 q 994 500 994 643 l 994 486 q 936 226 994 339 q 775 50 878 114 q 538 -14 672 -14 m 538 26 q 753 85 660 26 q 899 247 846 143 q 953 486 953 350 l 953 500 q 899 732 953 632 q 753 889 846 832 q 538 946 660 946 q 323 889 417 946 q 176 732 229 832 q 122 500 122 632 l 122 486 q 176 247 122 350 q 323 85 229 143 q 538 26 417 26 m 515 1094 l 385 1260 l 439 1260 l 560 1094 l 515 1094 z "},"Ő":{"ha":1075,"x_min":81,"x_max":994,"o":"m 538 -14 q 301 50 404 -14 q 139 226 197 114 q 81 486 81 339 l 81 500 q 139 753 81 643 q 301 924 197 863 q 538 986 404 986 q 775 924 672 986 q 936 753 878 863 q 994 500 994 643 l 994 486 q 936 226 994 339 q 775 50 878 114 q 538 -14 672 -14 m 538 26 q 753 85 660 26 q 899 247 846 143 q 953 486 953 350 l 953 500 q 899 732 953 632 q 753 889 846 832 q 538 946 660 946 q 323 889 417 946 q 176 732 229 832 q 122 500 122 632 l 122 486 q 176 247 122 350 q 323 85 229 143 q 538 26 417 26 m 426 1094 l 546 1260 l 594 1260 l 469 1094 l 426 1094 m 611 1094 l 735 1260 l 788 1260 l 658 1094 l 611 1094 z "},"Ō":{"ha":1075,"x_min":81,"x_max":994,"o":"m 538 -14 q 301 50 404 -14 q 139 226 197 114 q 81 486 81 339 l 81 500 q 139 753 81 643 q 301 924 197 863 q 538 986 404 986 q 775 924 672 986 q 936 753 878 863 q 994 500 994 643 l 994 486 q 936 226 994 339 q 775 50 878 114 q 538 -14 672 -14 m 538 26 q 753 85 660 26 q 899 247 846 143 q 953 486 953 350 l 953 500 q 899 732 953 632 q 753 889 846 832 q 538 946 660 946 q 323 889 417 946 q 176 732 229 832 q 122 500 122 632 l 122 486 q 176 247 122 350 q 323 85 229 143 q 538 26 417 26 m 344 1118 l 344 1153 l 731 1153 l 731 1118 l 344 1118 z "},"Ø":{"ha":1086,"x_min":78,"x_max":1007,"o":"m 103 -3 l 78 22 l 981 975 l 1007 950 l 103 -3 m 543 -14 q 306 50 410 -14 q 144 226 203 114 q 86 486 86 339 l 86 500 q 144 753 86 643 q 306 924 203 863 q 543 986 410 986 q 781 924 678 986 q 942 753 883 863 q 1000 500 1000 643 l 1000 486 q 942 226 1000 339 q 781 50 883 114 q 543 -14 678 -14 m 543 26 q 758 85 665 26 q 905 247 851 143 q 958 486 958 350 l 958 500 q 905 732 958 632 q 758 889 851 832 q 543 946 665 946 q 328 889 422 946 q 181 732 235 832 q 128 500 128 632 l 128 486 q 181 247 128 350 q 328 85 235 143 q 543 26 422 26 z "},"Õ":{"ha":1075,"x_min":81,"x_max":994,"o":"m 538 -14 q 301 50 404 -14 q 139 226 197 114 q 81 486 81 339 l 81 500 q 139 753 81 643 q 301 924 197 863 q 538 986 404 986 q 775 924 672 986 q 936 753 878 863 q 994 500 994 643 l 994 486 q 936 226 994 339 q 775 50 878 114 q 538 -14 672 -14 m 538 26 q 753 85 660 26 q 899 247 846 143 q 953 486 953 350 l 953 500 q 899 732 953 632 q 753 889 846 832 q 538 946 660 946 q 323 889 417 946 q 176 732 229 832 q 122 500 122 632 l 122 486 q 176 247 122 350 q 323 85 229 143 q 538 26 417 26 m 636 1099 q 576 1117 603 1099 q 527 1161 550 1136 q 482 1205 504 1186 q 436 1224 460 1224 q 395 1201 410 1224 q 378 1138 381 1178 l 342 1138 q 370 1224 344 1193 q 439 1256 396 1256 q 495 1237 471 1256 q 542 1194 519 1218 q 587 1151 564 1169 q 636 1132 610 1132 q 683 1156 667 1132 q 697 1222 699 1179 l 733 1222 q 708 1132 735 1165 q 636 1099 682 1099 z "},"Œ":{"ha":1375,"x_min":79,"x_max":1297,"o":"m 619 0 q 324 61 444 0 q 141 233 203 122 q 79 494 79 344 q 141 747 79 640 q 324 913 203 854 q 619 972 444 972 l 1297 972 l 1297 933 l 619 933 q 346 879 457 933 q 178 726 235 825 q 121 494 121 628 q 178 254 121 357 q 346 95 235 151 q 619 39 457 39 l 1297 39 l 1297 0 l 619 0 m 758 18 l 758 953 l 799 953 l 799 18 l 758 18 m 779 467 l 779 506 l 1268 506 l 1268 467 l 779 467 z "},"P":{"ha":754,"x_min":139,"x_max":703,"o":"m 139 0 l 139 972 l 403 972 q 559 940 492 972 q 665 847 626 908 q 703 699 703 786 q 665 551 703 613 q 559 457 626 489 q 403 425 492 425 l 158 425 l 158 463 l 404 463 q 590 525 517 463 q 663 699 663 588 q 590 872 663 810 q 404 933 517 933 l 161 933 l 179 951 l 179 0 l 139 0 z "},"Þ":{"ha":774,"x_min":139,"x_max":703,"o":"m 158 213 l 158 250 l 404 250 q 590 313 517 250 q 663 486 663 375 q 590 660 663 597 q 404 722 517 722 l 158 722 l 158 760 l 403 760 q 559 728 492 760 q 665 635 626 696 q 703 486 703 574 q 665 338 703 400 q 559 244 626 276 q 403 213 492 213 l 158 213 m 139 0 l 139 972 l 179 972 l 179 0 l 139 0 z "},"Q":{"ha":1075,"x_min":81,"x_max":994,"o":"m 661 -278 q 557 -237 597 -278 q 517 -133 517 -197 l 517 8 l 556 8 l 556 -132 q 586 -210 556 -179 q 664 -240 617 -240 l 833 -240 l 833 -278 l 661 -278 m 538 -14 q 301 50 404 -14 q 139 226 197 114 q 81 486 81 339 l 81 500 q 139 753 81 643 q 301 924 197 863 q 538 986 404 986 q 775 924 672 986 q 936 753 878 863 q 994 500 994 643 l 994 486 q 936 226 994 339 q 775 50 878 114 q 538 -14 672 -14 m 538 26 q 753 85 660 26 q 899 247 846 143 q 953 486 953 350 l 953 500 q 899 732 953 632 q 753 889 846 832 q 538 946 660 946 q 323 889 417 946 q 176 732 229 832 q 122 500 122 632 l 122 486 q 176 247 122 350 q 323 85 229 143 q 538 26 417 26 z "},"R":{"ha":793,"x_min":139,"x_max":735,"o":"m 139 0 l 139 972 l 399 972 q 622 905 538 972 q 706 703 706 838 q 622 498 706 560 q 399 436 538 436 l 158 436 l 158 475 l 399 475 q 591 526 518 475 q 664 703 664 578 q 591 876 664 818 q 399 933 518 933 l 161 933 l 179 951 l 179 0 l 139 0 m 683 0 l 361 454 l 413 454 l 735 0 l 683 0 z "},"Ŕ":{"ha":793,"x_min":139,"x_max":735,"o":"m 139 0 l 139 972 l 399 972 q 622 905 538 972 q 706 703 706 838 q 622 498 706 560 q 399 436 538 436 l 158 436 l 158 475 l 399 475 q 591 526 518 475 q 664 703 664 578 q 591 876 664 818 q 399 933 518 933 l 161 933 l 179 951 l 179 0 l 139 0 m 683 0 l 361 454 l 413 454 l 735 0 l 683 0 m 347 1094 l 468 1260 l 522 1260 l 392 1094 l 347 1094 z "},"Ř":{"ha":793,"x_min":139,"x_max":735,"o":"m 139 0 l 139 972 l 399 972 q 622 905 538 972 q 706 703 706 838 q 622 498 706 560 q 399 436 538 436 l 158 436 l 158 475 l 399 475 q 591 526 518 475 q 664 703 664 578 q 591 876 664 818 q 399 933 518 933 l 161 933 l 179 951 l 179 0 l 139 0 m 683 0 l 361 454 l 413 454 l 735 0 l 683 0 m 347 1094 l 172 1260 l 219 1260 l 382 1114 l 357 1114 l 519 1260 l 567 1260 l 390 1094 l 347 1094 z "},"Ŗ":{"ha":793,"x_min":139,"x_max":735,"o":"m 139 0 l 139 972 l 399 972 q 622 905 538 972 q 706 703 706 838 q 622 498 706 560 q 399 436 538 436 l 158 436 l 158 475 l 399 475 q 591 526 518 475 q 664 703 664 578 q 591 876 664 818 q 399 933 518 933 l 161 933 l 179 951 l 179 0 l 139 0 m 683 0 l 361 454 l 413 454 l 735 0 l 683 0 m 315 -279 l 315 -251 l 351 -251 q 389 -210 389 -251 l 389 -164 l 381 -164 l 381 -96 l 422 -96 l 422 -210 q 413 -247 422 -231 q 388 -271 404 -262 q 351 -279 372 -279 l 315 -279 z "},"S":{"ha":725,"x_min":68,"x_max":660,"o":"m 351 -14 q 187 19 260 -14 q 68 110 114 51 l 94 139 q 206 53 139 83 q 353 24 272 24 q 547 88 475 24 q 618 256 618 151 q 589 363 618 322 q 513 428 560 404 q 409 467 465 451 q 296 497 353 482 q 192 538 239 513 q 115 608 144 564 q 86 722 86 651 q 124 862 86 803 q 229 953 161 921 q 389 986 297 986 q 525 963 465 986 q 624 897 585 940 l 597 868 q 506 928 558 908 q 388 949 454 949 q 198 887 269 949 q 126 726 126 825 q 156 624 126 663 q 232 565 185 586 q 336 528 279 543 q 450 498 393 514 q 554 455 507 482 q 631 382 601 428 q 660 260 660 336 q 621 113 660 175 q 513 19 582 51 q 351 -14 443 -14 z "},"Ś":{"ha":725,"x_min":68,"x_max":660,"o":"m 351 -14 q 187 19 260 -14 q 68 110 114 51 l 94 139 q 206 53 139 83 q 353 24 272 24 q 547 88 475 24 q 618 256 618 151 q 589 363 618 322 q 513 428 560 404 q 409 467 465 451 q 296 497 353 482 q 192 538 239 513 q 115 608 144 564 q 86 722 86 651 q 124 862 86 803 q 229 953 161 921 q 389 986 297 986 q 525 963 465 986 q 624 897 585 940 l 597 868 q 506 928 558 908 q 388 949 454 949 q 198 887 269 949 q 126 726 126 825 q 156 624 126 663 q 232 565 185 586 q 336 528 279 543 q 450 498 393 514 q 554 455 507 482 q 631 382 601 428 q 660 260 660 336 q 621 113 660 175 q 513 19 582 51 q 351 -14 443 -14 m 378 1094 l 499 1260 l 553 1260 l 422 1094 l 378 1094 z "},"Š":{"ha":725,"x_min":68,"x_max":660,"o":"m 351 -14 q 187 19 260 -14 q 68 110 114 51 l 94 139 q 206 53 139 83 q 353 24 272 24 q 547 88 475 24 q 618 256 618 151 q 589 363 618 322 q 513 428 560 404 q 409 467 465 451 q 296 497 353 482 q 192 538 239 513 q 115 608 144 564 q 86 722 86 651 q 124 862 86 803 q 229 953 161 921 q 389 986 297 986 q 525 963 465 986 q 624 897 585 940 l 597 868 q 506 928 558 908 q 388 949 454 949 q 198 887 269 949 q 126 726 126 825 q 156 624 126 663 q 232 565 185 586 q 336 528 279 543 q 450 498 393 514 q 554 455 507 482 q 631 382 601 428 q 660 260 660 336 q 621 113 660 175 q 513 19 582 51 q 351 -14 443 -14 m 378 1094 l 203 1260 l 250 1260 l 413 1114 l 388 1114 l 550 1260 l 597 1260 l 421 1094 l 378 1094 z "},"Ş":{"ha":725,"x_min":68,"x_max":660,"o":"m 351 -14 q 187 19 260 -14 q 68 110 114 51 l 94 139 q 206 53 139 83 q 353 24 272 24 q 547 88 475 24 q 618 256 618 151 q 589 363 618 322 q 513 428 560 404 q 409 467 465 451 q 296 497 353 482 q 192 538 239 513 q 115 608 144 564 q 86 722 86 651 q 124 862 86 803 q 229 953 161 921 q 389 986 297 986 q 525 963 465 986 q 624 897 585 940 l 597 868 q 506 928 558 908 q 388 949 454 949 q 198 887 269 949 q 126 726 126 825 q 156 624 126 663 q 232 565 185 586 q 336 528 279 543 q 450 498 393 514 q 554 455 507 482 q 631 382 601 428 q 660 260 660 336 q 621 113 660 175 q 513 19 582 51 q 351 -14 443 -14 m 404 -279 l 269 -279 l 269 -249 l 404 -249 q 457 -231 439 -249 q 475 -186 475 -212 q 457 -144 475 -161 q 404 -126 439 -126 l 325 -126 l 335 6 l 369 6 l 364 -110 l 349 -96 l 407 -96 q 484 -122 457 -96 q 511 -186 511 -147 q 483 -253 511 -228 q 404 -279 456 -279 z "},"Ș":{"ha":725,"x_min":68,"x_max":660,"o":"m 351 -14 q 187 19 260 -14 q 68 110 114 51 l 94 139 q 206 53 139 83 q 353 24 272 24 q 547 88 475 24 q 618 256 618 151 q 589 363 618 322 q 513 428 560 404 q 409 467 465 451 q 296 497 353 482 q 192 538 239 513 q 115 608 144 564 q 86 722 86 651 q 124 862 86 803 q 229 953 161 921 q 389 986 297 986 q 525 963 465 986 q 624 897 585 940 l 597 868 q 506 928 558 908 q 388 949 454 949 q 198 887 269 949 q 126 726 126 825 q 156 624 126 663 q 232 565 185 586 q 336 528 279 543 q 450 498 393 514 q 554 455 507 482 q 631 382 601 428 q 660 260 660 336 q 621 113 660 175 q 513 19 582 51 q 351 -14 443 -14 m 265 -279 l 265 -251 l 301 -251 q 339 -210 339 -251 l 339 -164 l 331 -164 l 331 -96 l 372 -96 l 372 -210 q 363 -247 372 -231 q 338 -271 354 -262 q 301 -279 322 -279 l 265 -279 z "},"ẞ":{"ha":914,"x_min":129,"x_max":835,"o":"m 558 -14 q 439 5 494 -14 q 347 49 383 24 l 365 82 q 452 41 403 56 q 553 26 501 26 q 730 90 664 26 q 796 251 796 153 q 743 397 796 333 q 613 489 690 461 l 764 788 l 765 758 q 649 899 718 850 q 476 947 579 947 q 318 909 388 947 q 208 800 249 871 q 168 629 168 729 l 168 0 l 129 0 l 129 629 q 174 822 129 742 q 298 944 219 901 q 476 986 376 986 q 672 933 592 986 q 804 779 753 881 l 657 492 l 657 508 q 783 409 731 478 q 835 250 835 340 q 800 114 835 174 q 703 20 765 54 q 558 -14 642 -14 z "},"T":{"ha":714,"x_min":19,"x_max":694,"o":"m 336 0 l 336 953 l 378 953 l 378 0 l 336 0 m 19 933 l 19 972 l 694 972 l 694 933 l 19 933 z "},"Ŧ":{"ha":731,"x_min":28,"x_max":703,"o":"m 164 492 l 164 529 l 567 529 l 567 492 l 164 492 m 344 0 l 344 953 l 386 953 l 386 0 l 344 0 m 28 933 l 28 972 l 703 972 l 703 933 l 28 933 z "},"Ť":{"ha":714,"x_min":19,"x_max":694,"o":"m 336 0 l 336 953 l 378 953 l 378 0 l 336 0 m 19 933 l 19 972 l 694 972 l 694 933 l 19 933 m 335 1094 l 160 1260 l 207 1260 l 369 1114 l 344 1114 l 507 1260 l 554 1260 l 378 1094 l 335 1094 z "},"Ţ":{"ha":714,"x_min":19,"x_max":694,"o":"m 336 0 l 336 953 l 378 953 l 378 0 l 336 0 m 19 933 l 19 972 l 694 972 l 694 933 l 19 933 m 410 -279 l 275 -279 l 275 -249 l 410 -249 q 463 -231 444 -249 q 481 -186 481 -212 q 463 -144 481 -161 q 410 -126 444 -126 l 331 -126 l 340 6 l 375 6 l 369 -110 l 354 -96 l 413 -96 q 490 -122 463 -96 q 517 -186 517 -147 q 489 -253 517 -228 q 410 -279 461 -279 z "},"Ț":{"ha":714,"x_min":19,"x_max":694,"o":"m 336 0 l 336 953 l 378 953 l 378 0 l 336 0 m 19 933 l 19 972 l 694 972 l 694 933 l 19 933 m 271 -279 l 271 -251 l 307 -251 q 344 -210 344 -251 l 344 -164 l 336 -164 l 336 -96 l 378 -96 l 378 -210 q 369 -247 378 -231 q 344 -271 360 -262 q 307 -279 328 -279 l 271 -279 z "},"U":{"ha":943,"x_min":131,"x_max":813,"o":"m 471 -14 q 223 74 315 -14 q 131 317 131 163 l 131 972 l 169 972 l 169 318 q 251 104 169 183 q 471 25 333 25 q 692 104 610 25 q 774 318 774 183 l 774 972 l 813 972 l 813 317 q 771 140 813 214 q 653 26 729 65 q 471 -14 576 -14 z "},"Ú":{"ha":943,"x_min":131,"x_max":813,"o":"m 471 -14 q 223 74 315 -14 q 131 317 131 163 l 131 972 l 169 972 l 169 318 q 251 104 169 183 q 471 25 333 25 q 692 104 610 25 q 774 318 774 183 l 774 972 l 813 972 l 813 317 q 771 140 813 214 q 653 26 729 65 q 471 -14 576 -14 m 450 1094 l 571 1260 l 625 1260 l 494 1094 l 450 1094 z "},"Ŭ":{"ha":943,"x_min":131,"x_max":813,"o":"m 471 -14 q 223 74 315 -14 q 131 317 131 163 l 131 972 l 169 972 l 169 318 q 251 104 169 183 q 471 25 333 25 q 692 104 610 25 q 774 318 774 183 l 774 972 l 813 972 l 813 317 q 771 140 813 214 q 653 26 729 65 q 471 -14 576 -14 m 472 1088 q 374 1106 415 1088 q 310 1164 332 1125 q 289 1260 289 1203 l 326 1260 q 365 1154 326 1189 q 472 1119 403 1119 q 580 1154 542 1119 q 618 1260 618 1189 l 656 1260 q 634 1164 656 1203 q 572 1106 613 1125 q 472 1088 531 1088 z "},"Û":{"ha":943,"x_min":131,"x_max":813,"o":"m 471 -14 q 223 74 315 -14 q 131 317 131 163 l 131 972 l 169 972 l 169 318 q 251 104 169 183 q 471 25 333 25 q 692 104 610 25 q 774 318 774 183 l 774 972 l 813 972 l 813 317 q 771 140 813 214 q 653 26 729 65 q 471 -14 576 -14 m 275 1094 l 451 1260 l 494 1260 l 669 1094 l 622 1094 l 460 1242 l 485 1242 l 322 1094 l 275 1094 z "},"Ü":{"ha":943,"x_min":131,"x_max":813,"o":"m 471 -14 q 223 74 315 -14 q 131 317 131 163 l 131 972 l 169 972 l 169 318 q 251 104 169 183 q 471 25 333 25 q 692 104 610 25 q 774 318 774 183 l 774 972 l 813 972 l 813 317 q 771 140 813 214 q 653 26 729 65 q 471 -14 576 -14 m 583 1126 l 583 1233 l 622 1233 l 622 1126 l 583 1126 m 322 1126 l 322 1233 l 361 1233 l 361 1126 l 322 1126 z "},"Ù":{"ha":943,"x_min":131,"x_max":813,"o":"m 471 -14 q 223 74 315 -14 q 131 317 131 163 l 131 972 l 169 972 l 169 318 q 251 104 169 183 q 471 25 333 25 q 692 104 610 25 q 774 318 774 183 l 774 972 l 813 972 l 813 317 q 771 140 813 214 q 653 26 729 65 q 471 -14 576 -14 m 450 1094 l 319 1260 l 374 1260 l 494 1094 l 450 1094 z "},"Ű":{"ha":943,"x_min":131,"x_max":813,"o":"m 471 -14 q 223 74 315 -14 q 131 317 131 163 l 131 972 l 169 972 l 169 318 q 251 104 169 183 q 471 25 333 25 q 692 104 610 25 q 774 318 774 183 l 774 972 l 813 972 l 813 317 q 771 140 813 214 q 653 26 729 65 q 471 -14 576 -14 m 361 1094 l 481 1260 l 529 1260 l 404 1094 l 361 1094 m 546 1094 l 669 1260 l 722 1260 l 593 1094 l 546 1094 z "},"Ū":{"ha":943,"x_min":131,"x_max":813,"o":"m 471 -14 q 223 74 315 -14 q 131 317 131 163 l 131 972 l 169 972 l 169 318 q 251 104 169 183 q 471 25 333 25 q 692 104 610 25 q 774 318 774 183 l 774 972 l 813 972 l 813 317 q 771 140 813 214 q 653 26 729 65 q 471 -14 576 -14 m 279 1118 l 279 1153 l 665 1153 l 665 1118 l 279 1118 z "},"Ų":{"ha":943,"x_min":131,"x_max":813,"o":"m 471 -14 q 223 74 315 -14 q 131 317 131 163 l 131 972 l 169 972 l 169 318 q 251 104 169 183 q 471 25 333 25 q 692 104 610 25 q 774 318 774 183 l 774 972 l 813 972 l 813 317 q 771 140 813 214 q 653 26 729 65 q 471 -14 576 -14 m 504 -278 q 438 -253 460 -278 q 417 -194 417 -228 q 428 -148 417 -171 q 457 -100 439 -125 l 543 19 l 569 0 l 483 -121 q 464 -156 472 -139 q 456 -192 456 -174 q 469 -227 456 -211 q 508 -243 482 -243 l 561 -243 l 561 -278 l 504 -278 z "},"Ů":{"ha":943,"x_min":131,"x_max":813,"o":"m 471 -14 q 223 74 315 -14 q 131 317 131 163 l 131 972 l 169 972 l 169 318 q 251 104 169 183 q 471 25 333 25 q 692 104 610 25 q 774 318 774 183 l 774 972 l 813 972 l 813 317 q 771 140 813 214 q 653 26 729 65 q 471 -14 576 -14 m 472 1075 q 386 1106 419 1075 q 353 1186 353 1138 q 386 1267 353 1235 q 472 1299 419 1299 q 558 1267 525 1299 q 592 1186 592 1235 q 558 1106 592 1138 q 472 1075 525 1075 m 472 1103 q 534 1126 510 1103 q 558 1186 558 1150 q 534 1246 558 1222 q 472 1269 510 1269 q 410 1246 433 1269 q 386 1186 386 1222 q 410 1126 386 1150 q 472 1103 435 1103 z "},"V":{"ha":847,"x_min":29,"x_max":818,"o":"m 401 0 l 29 972 l 72 972 l 429 36 l 418 36 l 775 972 l 818 972 l 444 0 l 401 0 z "},"W":{"ha":1349,"x_min":36,"x_max":1313,"o":"m 339 0 l 36 972 l 78 972 l 365 39 l 353 39 l 653 972 l 696 972 l 996 40 l 985 40 l 1271 972 l 1313 972 l 1010 0 l 969 0 l 668 931 l 681 931 l 381 0 l 339 0 z "},"Ẃ":{"ha":1349,"x_min":36,"x_max":1313,"o":"m 339 0 l 36 972 l 78 972 l 365 39 l 353 39 l 653 972 l 696 972 l 996 40 l 985 40 l 1271 972 l 1313 972 l 1010 0 l 969 0 l 668 931 l 681 931 l 381 0 l 339 0 m 653 1094 l 774 1260 l 828 1260 l 697 1094 l 653 1094 z "},"Ŵ":{"ha":1349,"x_min":36,"x_max":1313,"o":"m 339 0 l 36 972 l 78 972 l 365 39 l 353 39 l 653 972 l 696 972 l 996 40 l 985 40 l 1271 972 l 1313 972 l 1010 0 l 969 0 l 668 931 l 681 931 l 381 0 l 339 0 m 478 1094 l 654 1260 l 697 1260 l 872 1094 l 825 1094 l 663 1242 l 688 1242 l 525 1094 l 478 1094 z "},"Ẅ":{"ha":1349,"x_min":36,"x_max":1313,"o":"m 339 0 l 36 972 l 78 972 l 365 39 l 353 39 l 653 972 l 696 972 l 996 40 l 985 40 l 1271 972 l 1313 972 l 1010 0 l 969 0 l 668 931 l 681 931 l 381 0 l 339 0 m 786 1126 l 786 1233 l 825 1233 l 825 1126 l 786 1126 m 525 1126 l 525 1233 l 564 1233 l 564 1126 l 525 1126 z "},"Ẁ":{"ha":1349,"x_min":36,"x_max":1313,"o":"m 339 0 l 36 972 l 78 972 l 365 39 l 353 39 l 653 972 l 696 972 l 996 40 l 985 40 l 1271 972 l 1313 972 l 1010 0 l 969 0 l 668 931 l 681 931 l 381 0 l 339 0 m 653 1094 l 522 1260 l 576 1260 l 697 1094 l 653 1094 z "},"X":{"ha":819,"x_min":28,"x_max":792,"o":"m 28 0 l 382 485 l 40 972 l 90 972 l 410 517 l 731 972 l 779 972 l 438 485 l 792 0 l 744 0 l 410 454 l 75 0 l 28 0 z "},"Y":{"ha":835,"x_min":25,"x_max":810,"o":"m 426 450 l 408 450 l 763 972 l 810 972 l 438 424 l 438 0 l 397 0 l 397 424 l 25 972 l 71 972 l 426 450 z "},"Ý":{"ha":835,"x_min":25,"x_max":810,"o":"m 426 450 l 408 450 l 763 972 l 810 972 l 438 424 l 438 0 l 397 0 l 397 424 l 25 972 l 71 972 l 426 450 m 396 1094 l 517 1260 l 571 1260 l 440 1094 l 396 1094 z "},"Ŷ":{"ha":835,"x_min":25,"x_max":810,"o":"m 426 450 l 408 450 l 763 972 l 810 972 l 438 424 l 438 0 l 397 0 l 397 424 l 25 972 l 71 972 l 426 450 m 221 1094 l 397 1260 l 440 1260 l 615 1094 l 568 1094 l 406 1242 l 431 1242 l 268 1094 l 221 1094 z "},"Ÿ":{"ha":835,"x_min":25,"x_max":810,"o":"m 426 450 l 408 450 l 763 972 l 810 972 l 438 424 l 438 0 l 397 0 l 397 424 l 25 972 l 71 972 l 426 450 m 529 1126 l 529 1233 l 568 1233 l 568 1126 l 529 1126 m 268 1126 l 268 1233 l 307 1233 l 307 1126 l 268 1126 z "},"Ỳ":{"ha":835,"x_min":25,"x_max":810,"o":"m 426 450 l 408 450 l 763 972 l 810 972 l 438 424 l 438 0 l 397 0 l 397 424 l 25 972 l 71 972 l 426 450 m 396 1094 l 265 1260 l 319 1260 l 440 1094 l 396 1094 z "},"Z":{"ha":774,"x_min":42,"x_max":726,"o":"m 42 0 l 42 36 l 683 946 l 690 933 l 56 933 l 56 972 l 726 972 l 726 936 l 88 26 l 79 39 l 726 39 l 726 0 l 42 0 z "},"Ź":{"ha":774,"x_min":42,"x_max":726,"o":"m 42 0 l 42 36 l 683 946 l 690 933 l 56 933 l 56 972 l 726 972 l 726 936 l 88 26 l 79 39 l 726 39 l 726 0 l 42 0 m 369 1094 l 490 1260 l 544 1260 l 414 1094 l 369 1094 z "},"Ž":{"ha":774,"x_min":42,"x_max":726,"o":"m 42 0 l 42 36 l 683 946 l 690 933 l 56 933 l 56 972 l 726 972 l 726 936 l 88 26 l 79 39 l 726 39 l 726 0 l 42 0 m 369 1094 l 194 1260 l 242 1260 l 404 1114 l 379 1114 l 542 1260 l 589 1260 l 413 1094 l 369 1094 z "},"Ż":{"ha":774,"x_min":42,"x_max":726,"o":"m 42 0 l 42 36 l 683 946 l 690 933 l 56 933 l 56 972 l 726 972 l 726 936 l 88 26 l 79 39 l 726 39 l 726 0 l 42 0 m 371 1121 l 371 1238 l 413 1238 l 413 1121 l 371 1121 z "},"a":{"ha":681,"x_min":67,"x_max":571,"o":"m 533 0 l 529 218 l 526 224 l 526 429 q 475 583 526 535 q 333 631 424 631 q 216 610 275 631 q 117 540 157 590 l 93 569 q 203 646 138 622 q 333 669 268 669 q 457 644 404 669 q 538 565 510 618 q 567 429 567 511 l 567 224 q 568 113 567 168 q 571 0 569 57 l 533 0 m 317 -14 q 135 38 203 -14 q 67 175 67 90 q 97 272 67 231 q 183 338 126 314 q 318 361 240 361 q 496 310 435 361 q 557 178 557 260 l 553 178 q 494 39 553 92 q 317 -14 435 -14 m 322 21 q 474 64 422 21 q 526 174 526 107 q 474 285 526 243 q 321 326 421 326 q 165 285 221 326 q 108 175 108 243 q 165 65 108 108 q 322 21 221 21 z "},"á":{"ha":681,"x_min":67,"x_max":571,"o":"m 533 0 l 529 218 l 526 224 l 526 429 q 475 583 526 535 q 333 631 424 631 q 216 610 275 631 q 117 540 157 590 l 93 569 q 203 646 138 622 q 333 669 268 669 q 457 644 404 669 q 538 565 510 618 q 567 429 567 511 l 567 224 q 568 113 567 168 q 571 0 569 57 l 533 0 m 317 -14 q 135 38 203 -14 q 67 175 67 90 q 97 272 67 231 q 183 338 126 314 q 318 361 240 361 q 496 310 435 361 q 557 178 557 260 l 553 178 q 494 39 553 92 q 317 -14 435 -14 m 322 21 q 474 64 422 21 q 526 174 526 107 q 474 285 526 243 q 321 326 421 326 q 165 285 221 326 q 108 175 108 243 q 165 65 108 108 q 322 21 221 21 m 311 790 l 432 975 l 486 975 l 356 790 l 311 790 z "},"ă":{"ha":681,"x_min":67,"x_max":571,"o":"m 533 0 l 529 218 l 526 224 l 526 429 q 475 583 526 535 q 333 631 424 631 q 216 610 275 631 q 117 540 157 590 l 93 569 q 203 646 138 622 q 333 669 268 669 q 457 644 404 669 q 538 565 510 618 q 567 429 567 511 l 567 224 q 568 113 567 168 q 571 0 569 57 l 533 0 m 317 -14 q 135 38 203 -14 q 67 175 67 90 q 97 272 67 231 q 183 338 126 314 q 318 361 240 361 q 496 310 435 361 q 557 178 557 260 l 553 178 q 494 39 553 92 q 317 -14 435 -14 m 322 21 q 474 64 422 21 q 526 174 526 107 q 474 285 526 243 q 321 326 421 326 q 165 285 221 326 q 108 175 108 243 q 165 65 108 108 q 322 21 221 21 m 333 783 q 235 804 276 783 q 172 868 193 825 q 150 975 150 911 l 188 975 q 226 856 188 894 q 333 818 264 818 q 441 856 403 818 q 479 975 479 894 l 517 975 q 495 868 517 911 q 433 804 474 825 q 333 783 392 783 z "},"ǎ":{"ha":681,"x_min":67,"x_max":571,"o":"m 533 0 l 529 218 l 526 224 l 526 429 q 475 583 526 535 q 333 631 424 631 q 216 610 275 631 q 117 540 157 590 l 93 569 q 203 646 138 622 q 333 669 268 669 q 457 644 404 669 q 538 565 510 618 q 567 429 567 511 l 567 224 q 568 113 567 168 q 571 0 569 57 l 533 0 m 317 -14 q 135 38 203 -14 q 67 175 67 90 q 97 272 67 231 q 183 338 126 314 q 318 361 240 361 q 496 310 435 361 q 557 178 557 260 l 553 178 q 494 39 553 92 q 317 -14 435 -14 m 322 21 q 474 64 422 21 q 526 174 526 107 q 474 285 526 243 q 321 326 421 326 q 165 285 221 326 q 108 175 108 243 q 165 65 108 108 q 322 21 221 21 m 311 790 l 136 975 l 182 975 l 346 811 l 322 811 l 485 975 l 531 975 l 354 790 l 311 790 z "},"â":{"ha":681,"x_min":67,"x_max":571,"o":"m 533 0 l 529 218 l 526 224 l 526 429 q 475 583 526 535 q 333 631 424 631 q 216 610 275 631 q 117 540 157 590 l 93 569 q 203 646 138 622 q 333 669 268 669 q 457 644 404 669 q 538 565 510 618 q 567 429 567 511 l 567 224 q 568 113 567 168 q 571 0 569 57 l 533 0 m 317 -14 q 135 38 203 -14 q 67 175 67 90 q 97 272 67 231 q 183 338 126 314 q 318 361 240 361 q 496 310 435 361 q 557 178 557 260 l 553 178 q 494 39 553 92 q 317 -14 435 -14 m 322 21 q 474 64 422 21 q 526 174 526 107 q 474 285 526 243 q 321 326 421 326 q 165 285 221 326 q 108 175 108 243 q 165 65 108 108 q 322 21 221 21 m 136 790 l 313 975 l 356 975 l 531 790 l 485 790 l 321 954 l 344 954 l 182 790 l 136 790 z "},"ä":{"ha":681,"x_min":67,"x_max":571,"o":"m 533 0 l 529 218 l 526 224 l 526 429 q 475 583 526 535 q 333 631 424 631 q 216 610 275 631 q 117 540 157 590 l 93 569 q 203 646 138 622 q 333 669 268 669 q 457 644 404 669 q 538 565 510 618 q 567 429 567 511 l 567 224 q 568 113 567 168 q 571 0 569 57 l 533 0 m 317 -14 q 135 38 203 -14 q 67 175 67 90 q 97 272 67 231 q 183 338 126 314 q 318 361 240 361 q 496 310 435 361 q 557 178 557 260 l 553 178 q 494 39 553 92 q 317 -14 435 -14 m 322 21 q 474 64 422 21 q 526 174 526 107 q 474 285 526 243 q 321 326 421 326 q 165 285 221 326 q 108 175 108 243 q 165 65 108 108 q 322 21 221 21 m 444 826 l 444 943 l 483 943 l 483 826 l 444 826 m 183 826 l 183 943 l 222 943 l 222 826 l 183 826 z "},"à":{"ha":681,"x_min":67,"x_max":571,"o":"m 533 0 l 529 218 l 526 224 l 526 429 q 475 583 526 535 q 333 631 424 631 q 216 610 275 631 q 117 540 157 590 l 93 569 q 203 646 138 622 q 333 669 268 669 q 457 644 404 669 q 538 565 510 618 q 567 429 567 511 l 567 224 q 568 113 567 168 q 571 0 569 57 l 533 0 m 317 -14 q 135 38 203 -14 q 67 175 67 90 q 97 272 67 231 q 183 338 126 314 q 318 361 240 361 q 496 310 435 361 q 557 178 557 260 l 553 178 q 494 39 553 92 q 317 -14 435 -14 m 322 21 q 474 64 422 21 q 526 174 526 107 q 474 285 526 243 q 321 326 421 326 q 165 285 221 326 q 108 175 108 243 q 165 65 108 108 q 322 21 221 21 m 311 790 l 181 975 l 235 975 l 356 790 l 311 790 z "},"ā":{"ha":681,"x_min":67,"x_max":571,"o":"m 533 0 l 529 218 l 526 224 l 526 429 q 475 583 526 535 q 333 631 424 631 q 216 610 275 631 q 117 540 157 590 l 93 569 q 203 646 138 622 q 333 669 268 669 q 457 644 404 669 q 538 565 510 618 q 567 429 567 511 l 567 224 q 568 113 567 168 q 571 0 569 57 l 533 0 m 317 -14 q 135 38 203 -14 q 67 175 67 90 q 97 272 67 231 q 183 338 126 314 q 318 361 240 361 q 496 310 435 361 q 557 178 557 260 l 553 178 q 494 39 553 92 q 317 -14 435 -14 m 322 21 q 474 64 422 21 q 526 174 526 107 q 474 285 526 243 q 321 326 421 326 q 165 285 221 326 q 108 175 108 243 q 165 65 108 108 q 322 21 221 21 m 140 817 l 140 853 l 526 853 l 526 817 l 140 817 z "},"ą":{"ha":681,"x_min":67,"x_max":571,"o":"m 533 0 l 529 218 l 526 224 l 526 429 q 475 583 526 535 q 333 631 424 631 q 216 610 275 631 q 117 540 157 590 l 93 569 q 203 646 138 622 q 333 669 268 669 q 457 644 404 669 q 538 565 510 618 q 567 429 567 511 l 567 224 q 568 113 567 168 q 571 0 569 57 l 533 0 m 317 -14 q 135 38 203 -14 q 67 175 67 90 q 97 272 67 231 q 183 338 126 314 q 318 361 240 361 q 496 310 435 361 q 557 178 557 260 l 553 178 q 494 39 553 92 q 317 -14 435 -14 m 322 21 q 474 64 422 21 q 526 174 526 107 q 474 285 526 243 q 321 326 421 326 q 165 285 221 326 q 108 175 108 243 q 165 65 108 108 q 322 21 221 21 m 506 -278 q 440 -253 461 -278 q 418 -194 418 -228 q 429 -148 418 -171 q 458 -100 440 -125 l 544 19 l 571 0 l 485 -121 q 465 -156 474 -139 q 457 -192 457 -174 q 470 -227 457 -211 q 510 -243 483 -243 l 563 -243 l 563 -278 l 506 -278 z "},"å":{"ha":681,"x_min":67,"x_max":571,"o":"m 533 0 l 529 218 l 526 224 l 526 429 q 475 583 526 535 q 333 631 424 631 q 216 610 275 631 q 117 540 157 590 l 93 569 q 203 646 138 622 q 333 669 268 669 q 457 644 404 669 q 538 565 510 618 q 567 429 567 511 l 567 224 q 568 113 567 168 q 571 0 569 57 l 533 0 m 317 -14 q 135 38 203 -14 q 67 175 67 90 q 97 272 67 231 q 183 338 126 314 q 318 361 240 361 q 496 310 435 361 q 557 178 557 260 l 553 178 q 494 39 553 92 q 317 -14 435 -14 m 322 21 q 474 64 422 21 q 526 174 526 107 q 474 285 526 243 q 321 326 421 326 q 165 285 221 326 q 108 175 108 243 q 165 65 108 108 q 322 21 221 21 m 333 769 q 243 804 278 769 q 208 893 208 839 q 243 981 208 946 q 333 1015 278 1015 q 424 981 389 1015 q 458 893 458 946 q 424 804 458 839 q 333 769 389 769 m 333 800 q 399 826 374 800 q 425 893 425 851 q 399 959 425 933 q 333 985 374 985 q 268 959 294 985 q 242 893 242 933 q 268 826 242 851 q 333 800 294 800 z "},"ã":{"ha":681,"x_min":67,"x_max":571,"o":"m 533 0 l 529 218 l 526 224 l 526 429 q 475 583 526 535 q 333 631 424 631 q 216 610 275 631 q 117 540 157 590 l 93 569 q 203 646 138 622 q 333 669 268 669 q 457 644 404 669 q 538 565 510 618 q 567 429 567 511 l 567 224 q 568 113 567 168 q 571 0 569 57 l 533 0 m 317 -14 q 135 38 203 -14 q 67 175 67 90 q 97 272 67 231 q 183 338 126 314 q 318 361 240 361 q 496 310 435 361 q 557 178 557 260 l 553 178 q 494 39 553 92 q 317 -14 435 -14 m 322 21 q 474 64 422 21 q 526 174 526 107 q 474 285 526 243 q 321 326 421 326 q 165 285 221 326 q 108 175 108 243 q 165 65 108 108 q 322 21 221 21 m 432 797 q 372 818 399 797 q 323 866 346 839 q 278 914 300 893 q 232 935 256 935 q 191 910 206 935 q 174 840 176 885 l 138 840 q 166 935 140 901 q 235 969 192 969 q 291 949 267 969 q 338 900 315 928 q 383 851 360 872 q 432 831 406 831 q 478 858 463 831 q 493 932 494 885 l 529 932 q 504 833 531 868 q 432 797 478 797 z "},"æ":{"ha":1121,"x_min":68,"x_max":1065,"o":"m 822 -14 q 658 30 729 -14 q 547 150 588 74 q 507 326 507 226 l 507 454 q 460 585 507 540 q 326 631 413 631 q 213 609 271 631 q 115 539 154 588 l 93 569 q 201 647 138 624 q 328 669 265 669 q 485 617 428 669 q 543 465 542 564 l 528 465 q 628 615 556 560 q 799 669 701 669 q 945 626 883 669 q 1036 505 1007 582 q 1054 326 1065 428 l 532 326 l 532 364 l 1035 364 l 1015 347 q 998 495 1024 432 q 920 594 972 558 q 797 631 868 631 q 665 593 722 631 q 577 490 608 556 q 546 340 546 425 l 546 325 q 581 169 546 236 q 679 63 617 101 q 824 25 742 25 q 926 42 878 25 q 1004 85 974 58 l 1026 53 q 938 4 992 22 q 822 -14 883 -14 m 313 -14 q 184 10 239 -14 q 99 76 129 33 q 68 175 68 118 q 98 272 68 231 q 183 338 128 314 q 315 361 239 361 q 488 312 425 361 q 551 178 551 263 l 554 178 q 524 76 554 119 q 439 10 493 33 q 313 -14 385 -14 m 317 21 q 463 63 408 21 q 518 175 518 104 q 464 285 518 244 q 317 326 410 326 q 165 285 219 326 q 110 175 110 243 q 165 65 110 108 q 317 21 219 21 z "},"b":{"ha":810,"x_min":122,"x_max":738,"o":"m 433 -14 q 261 41 335 -14 q 156 189 188 96 l 161 196 l 161 0 l 122 0 l 122 1014 l 163 1014 l 163 460 l 157 468 q 263 615 189 560 q 433 669 336 669 q 592 627 524 669 q 699 510 661 585 q 738 339 738 436 l 738 326 q 699 150 738 226 q 592 30 661 74 q 433 -14 524 -14 m 431 24 q 570 63 510 24 q 664 169 631 101 q 697 326 697 238 l 697 339 q 664 490 697 425 q 570 593 631 556 q 431 631 510 631 q 292 592 353 631 q 196 485 231 553 q 161 328 161 417 q 196 170 161 239 q 292 63 231 101 q 431 24 353 24 z "},"c":{"ha":672,"x_min":72,"x_max":621,"o":"m 400 -14 q 231 28 304 -14 q 115 146 157 71 q 72 318 72 221 l 72 338 q 115 510 72 435 q 231 627 157 585 q 400 669 304 669 q 524 647 469 669 q 621 582 579 625 l 594 554 q 509 610 557 590 q 399 631 461 631 q 251 593 315 631 q 149 490 186 556 q 113 338 113 424 l 113 318 q 149 166 113 232 q 251 63 186 100 q 399 25 315 25 q 509 44 461 25 q 594 101 557 64 l 621 74 q 524 8 579 31 q 400 -14 469 -14 z "},"ć":{"ha":672,"x_min":72,"x_max":621,"o":"m 400 -14 q 231 28 304 -14 q 115 146 157 71 q 72 318 72 221 l 72 338 q 115 510 72 435 q 231 627 157 585 q 400 669 304 669 q 524 647 469 669 q 621 582 579 625 l 594 554 q 509 610 557 590 q 399 631 461 631 q 251 593 315 631 q 149 490 186 556 q 113 338 113 424 l 113 318 q 149 166 113 232 q 251 63 186 100 q 399 25 315 25 q 509 44 461 25 q 594 101 557 64 l 621 74 q 524 8 579 31 q 400 -14 469 -14 m 382 790 l 503 975 l 557 975 l 426 790 l 382 790 z "},"č":{"ha":672,"x_min":72,"x_max":621,"o":"m 400 -14 q 231 28 304 -14 q 115 146 157 71 q 72 318 72 221 l 72 338 q 115 510 72 435 q 231 627 157 585 q 400 669 304 669 q 524 647 469 669 q 621 582 579 625 l 594 554 q 509 610 557 590 q 399 631 461 631 q 251 593 315 631 q 149 490 186 556 q 113 338 113 424 l 113 318 q 149 166 113 232 q 251 63 186 100 q 399 25 315 25 q 509 44 461 25 q 594 101 557 64 l 621 74 q 524 8 579 31 q 400 -14 469 -14 m 382 790 l 207 975 l 253 975 l 417 811 l 393 811 l 556 975 l 601 975 l 425 790 l 382 790 z "},"ç":{"ha":671,"x_min":71,"x_max":619,"o":"m 399 -14 q 229 28 303 -14 q 113 146 156 71 q 71 318 71 221 l 71 338 q 113 510 71 435 q 229 627 156 585 q 399 669 303 669 q 523 647 468 669 q 619 582 578 625 l 593 554 q 508 610 556 590 q 397 631 460 631 q 249 593 314 631 q 148 490 185 556 q 111 338 111 424 l 111 318 q 148 166 111 232 q 249 63 185 100 q 397 25 314 25 q 508 44 460 25 q 593 101 556 64 l 619 74 q 523 8 578 31 q 399 -14 468 -14 m 428 -279 l 293 -279 l 293 -249 l 428 -249 q 481 -231 463 -249 q 499 -186 499 -212 q 481 -144 499 -161 q 428 -126 463 -126 l 349 -126 l 358 6 l 393 6 l 388 -110 l 372 -96 l 431 -96 q 508 -122 481 -96 q 535 -186 535 -147 q 507 -253 535 -228 q 428 -279 479 -279 z "},"ċ":{"ha":672,"x_min":72,"x_max":621,"o":"m 400 -14 q 231 28 304 -14 q 115 146 157 71 q 72 318 72 221 l 72 338 q 115 510 72 435 q 231 627 157 585 q 400 669 304 669 q 524 647 469 669 q 621 582 579 625 l 594 554 q 509 610 557 590 q 399 631 461 631 q 251 593 315 631 q 149 490 186 556 q 113 338 113 424 l 113 318 q 149 166 113 232 q 251 63 186 100 q 399 25 315 25 q 509 44 461 25 q 594 101 557 64 l 621 74 q 524 8 579 31 q 400 -14 469 -14 m 383 819 l 383 949 l 425 949 l 425 819 l 383 819 z "},"d":{"ha":810,"x_min":72,"x_max":689,"o":"m 378 -14 q 218 30 288 -14 q 110 150 149 74 q 72 326 72 226 l 72 339 q 111 510 72 436 q 219 627 150 585 q 378 669 288 669 q 549 615 476 669 q 654 468 621 560 l 649 460 l 649 1014 l 689 1014 l 689 0 l 650 0 l 650 196 l 656 189 q 549 41 622 96 q 378 -14 476 -14 m 379 24 q 519 63 458 24 q 615 170 581 101 q 650 328 650 239 q 615 485 650 417 q 519 592 581 553 q 379 631 458 631 q 240 593 300 631 q 146 490 179 556 q 113 339 113 425 l 113 326 q 146 169 113 238 q 240 63 179 101 q 379 24 300 24 z "},"ď":{"ha":854,"x_min":72,"x_max":863,"o":"m 378 -14 q 218 30 288 -14 q 110 150 149 74 q 72 326 72 226 l 72 339 q 111 510 72 436 q 219 627 150 585 q 378 669 288 669 q 549 615 476 669 q 654 468 621 560 l 649 460 l 649 1014 l 689 1014 l 689 0 l 650 0 l 650 196 l 656 189 q 549 41 622 96 q 378 -14 476 -14 m 379 24 q 519 63 458 24 q 615 170 581 101 q 650 328 650 239 q 615 485 650 417 q 519 592 581 553 q 379 631 458 631 q 240 593 300 631 q 146 490 179 556 q 113 339 113 425 l 113 326 q 146 169 113 238 q 240 63 179 101 q 379 24 300 24 m 824 788 l 824 1014 l 863 1014 l 861 788 l 824 788 z "},"đ":{"ha":810,"x_min":72,"x_max":797,"o":"m 486 815 l 486 851 l 797 851 l 797 815 l 486 815 m 378 -14 q 218 30 288 -14 q 110 150 149 74 q 72 326 72 226 l 72 339 q 111 510 72 436 q 219 627 150 585 q 378 669 288 669 q 549 615 476 669 q 654 468 621 560 l 649 460 l 649 1014 l 689 1014 l 689 0 l 650 0 l 650 196 l 656 189 q 549 41 622 96 q 378 -14 476 -14 m 379 24 q 519 63 458 24 q 615 170 581 101 q 650 328 650 239 q 615 485 650 417 q 519 592 581 553 q 379 631 458 631 q 240 593 300 631 q 146 490 179 556 q 113 339 113 425 l 113 326 q 146 169 113 238 q 240 63 179 101 q 379 24 300 24 z "},"ð":{"ha":761,"x_min":72,"x_max":689,"o":"m 381 -14 q 220 30 290 -14 q 111 150 150 74 q 72 326 72 226 q 110 506 72 429 q 217 624 149 582 q 376 667 286 667 q 532 619 465 667 q 633 492 599 572 l 622 488 q 538 633 592 564 q 386 790 485 701 l 156 1003 l 183 1032 l 415 817 q 572 649 513 728 q 660 492 632 571 q 689 322 689 414 q 650 147 689 224 q 542 28 611 71 q 381 -14 472 -14 m 381 24 q 521 62 460 24 q 616 167 582 100 q 650 321 650 233 q 615 479 650 410 q 519 589 579 549 q 381 629 458 629 q 240 592 300 629 q 145 485 179 554 q 111 325 111 417 q 146 168 111 236 q 241 62 181 100 q 381 24 301 24 m 131 719 l 115 753 l 506 986 l 522 953 l 131 719 z "},"e":{"ha":699,"x_min":72,"x_max":643,"o":"m 396 -14 q 228 30 301 -14 q 113 150 154 74 q 72 326 72 226 l 72 340 q 110 511 72 438 q 215 627 147 585 q 369 669 282 669 q 519 626 457 669 q 613 505 582 582 q 632 326 643 428 l 101 326 l 101 363 l 608 363 l 592 342 q 575 493 601 428 q 495 594 549 558 q 369 631 442 631 q 235 594 293 631 q 145 492 178 557 q 113 340 113 426 l 113 326 q 149 169 113 238 q 249 63 185 101 q 396 25 313 25 q 499 41 450 25 q 581 83 549 57 l 604 53 q 514 4 569 22 q 396 -14 458 -14 z "},"é":{"ha":699,"x_min":72,"x_max":643,"o":"m 396 -14 q 228 30 301 -14 q 113 150 154 74 q 72 326 72 226 l 72 340 q 110 511 72 438 q 215 627 147 585 q 369 669 282 669 q 519 626 457 669 q 613 505 582 582 q 632 326 643 428 l 101 326 l 101 363 l 608 363 l 592 342 q 575 493 601 428 q 495 594 549 558 q 369 631 442 631 q 235 594 293 631 q 145 492 178 557 q 113 340 113 426 l 113 326 q 149 169 113 238 q 249 63 185 101 q 396 25 313 25 q 499 41 450 25 q 581 83 549 57 l 604 53 q 514 4 569 22 q 396 -14 458 -14 m 344 790 l 465 975 l 519 975 l 389 790 l 344 790 z "},"ě":{"ha":699,"x_min":72,"x_max":643,"o":"m 396 -14 q 228 30 301 -14 q 113 150 154 74 q 72 326 72 226 l 72 340 q 110 511 72 438 q 215 627 147 585 q 369 669 282 669 q 519 626 457 669 q 613 505 582 582 q 632 326 643 428 l 101 326 l 101 363 l 608 363 l 592 342 q 575 493 601 428 q 495 594 549 558 q 369 631 442 631 q 235 594 293 631 q 145 492 178 557 q 113 340 113 426 l 113 326 q 149 169 113 238 q 249 63 185 101 q 396 25 313 25 q 499 41 450 25 q 581 83 549 57 l 604 53 q 514 4 569 22 q 396 -14 458 -14 m 344 790 l 169 975 l 215 975 l 379 811 l 356 811 l 518 975 l 564 975 l 388 790 l 344 790 z "},"ê":{"ha":699,"x_min":72,"x_max":643,"o":"m 396 -14 q 228 30 301 -14 q 113 150 154 74 q 72 326 72 226 l 72 340 q 110 511 72 438 q 215 627 147 585 q 369 669 282 669 q 519 626 457 669 q 613 505 582 582 q 632 326 643 428 l 101 326 l 101 363 l 608 363 l 592 342 q 575 493 601 428 q 495 594 549 558 q 369 631 442 631 q 235 594 293 631 q 145 492 178 557 q 113 340 113 426 l 113 326 q 149 169 113 238 q 249 63 185 101 q 396 25 313 25 q 499 41 450 25 q 581 83 549 57 l 604 53 q 514 4 569 22 q 396 -14 458 -14 m 169 790 l 346 975 l 389 975 l 564 790 l 518 790 l 354 954 l 378 954 l 215 790 l 169 790 z "},"ë":{"ha":699,"x_min":72,"x_max":643,"o":"m 396 -14 q 228 30 301 -14 q 113 150 154 74 q 72 326 72 226 l 72 340 q 110 511 72 438 q 215 627 147 585 q 369 669 282 669 q 519 626 457 669 q 613 505 582 582 q 632 326 643 428 l 101 326 l 101 363 l 608 363 l 592 342 q 575 493 601 428 q 495 594 549 558 q 369 631 442 631 q 235 594 293 631 q 145 492 178 557 q 113 340 113 426 l 113 326 q 149 169 113 238 q 249 63 185 101 q 396 25 313 25 q 499 41 450 25 q 581 83 549 57 l 604 53 q 514 4 569 22 q 396 -14 458 -14 m 478 826 l 478 943 l 517 943 l 517 826 l 478 826 m 217 826 l 217 943 l 256 943 l 256 826 l 217 826 z "},"ė":{"ha":699,"x_min":72,"x_max":643,"o":"m 396 -14 q 228 30 301 -14 q 113 150 154 74 q 72 326 72 226 l 72 340 q 110 511 72 438 q 215 627 147 585 q 369 669 282 669 q 519 626 457 669 q 613 505 582 582 q 632 326 643 428 l 101 326 l 101 363 l 608 363 l 592 342 q 575 493 601 428 q 495 594 549 558 q 369 631 442 631 q 235 594 293 631 q 145 492 178 557 q 113 340 113 426 l 113 326 q 149 169 113 238 q 249 63 185 101 q 396 25 313 25 q 499 41 450 25 q 581 83 549 57 l 604 53 q 514 4 569 22 q 396 -14 458 -14 m 346 819 l 346 949 l 388 949 l 388 819 l 346 819 z "},"è":{"ha":699,"x_min":72,"x_max":643,"o":"m 396 -14 q 228 30 301 -14 q 113 150 154 74 q 72 326 72 226 l 72 340 q 110 511 72 438 q 215 627 147 585 q 369 669 282 669 q 519 626 457 669 q 613 505 582 582 q 632 326 643 428 l 101 326 l 101 363 l 608 363 l 592 342 q 575 493 601 428 q 495 594 549 558 q 369 631 442 631 q 235 594 293 631 q 145 492 178 557 q 113 340 113 426 l 113 326 q 149 169 113 238 q 249 63 185 101 q 396 25 313 25 q 499 41 450 25 q 581 83 549 57 l 604 53 q 514 4 569 22 q 396 -14 458 -14 m 344 790 l 214 975 l 268 975 l 389 790 l 344 790 z "},"ē":{"ha":699,"x_min":72,"x_max":643,"o":"m 396 -14 q 228 30 301 -14 q 113 150 154 74 q 72 326 72 226 l 72 340 q 110 511 72 438 q 215 627 147 585 q 369 669 282 669 q 519 626 457 669 q 613 505 582 582 q 632 326 643 428 l 101 326 l 101 363 l 608 363 l 592 342 q 575 493 601 428 q 495 594 549 558 q 369 631 442 631 q 235 594 293 631 q 145 492 178 557 q 113 340 113 426 l 113 326 q 149 169 113 238 q 249 63 185 101 q 396 25 313 25 q 499 41 450 25 q 581 83 549 57 l 604 53 q 514 4 569 22 q 396 -14 458 -14 m 174 817 l 174 853 l 560 853 l 560 817 l 174 817 z "},"ę":{"ha":699,"x_min":72,"x_max":643,"o":"m 501 -278 q 436 -253 457 -278 q 415 -194 415 -228 q 426 -149 415 -171 q 454 -101 436 -126 l 549 31 l 557 24 q 481 -4 522 6 q 396 -14 440 -14 q 228 30 301 -14 q 113 150 154 74 q 72 326 72 226 l 72 340 q 110 511 72 438 q 215 627 147 585 q 369 669 282 669 q 519 626 457 669 q 613 505 582 582 q 632 326 643 428 l 101 326 l 101 363 l 613 363 l 593 347 q 574 496 600 432 q 494 595 547 560 q 369 631 442 631 q 235 594 293 631 q 145 492 178 557 q 113 340 113 426 l 113 326 q 149 169 113 238 q 249 63 185 101 q 396 25 313 25 q 499 41 450 25 q 581 83 549 57 l 604 53 l 482 -121 q 461 -156 469 -139 q 453 -192 453 -174 q 466 -227 453 -211 q 506 -243 479 -243 l 560 -243 l 560 -278 l 501 -278 z "},"f":{"ha":439,"x_min":26,"x_max":414,"o":"m 160 0 l 160 867 q 202 973 160 932 q 308 1014 244 1014 l 414 1014 l 414 976 l 308 976 q 231 946 261 976 q 200 868 200 915 l 200 0 l 160 0 m 26 617 l 26 656 l 414 656 l 414 617 l 26 617 z "},"g":{"ha":665,"x_min":35,"x_max":606,"o":"m 35 -278 l 35 -242 l 417 -242 q 526 -206 486 -242 q 567 -111 567 -171 q 526 -25 567 -57 q 417 7 486 7 l 224 7 q 148 30 172 7 q 122 85 124 53 q 136 149 121 118 l 192 256 l 228 243 l 176 144 q 164 101 167 125 q 176 60 161 78 q 229 43 190 43 l 419 43 q 556 2 506 43 q 606 -111 606 -39 q 583 -199 606 -161 q 518 -257 560 -236 q 418 -278 476 -278 l 35 -278 m 378 640 l 469 821 l 510 821 l 417 640 l 378 640 m 338 206 q 199 235 260 206 q 105 317 139 265 q 71 436 71 369 l 71 447 q 105 563 71 513 q 199 641 139 613 q 338 669 260 669 q 475 642 415 669 q 569 565 535 614 q 603 453 603 517 l 603 436 q 569 317 603 369 q 475 235 535 265 q 338 206 415 206 m 338 243 q 500 297 436 243 q 564 436 564 351 l 564 451 q 500 582 564 532 q 338 632 436 632 q 173 581 236 632 q 110 447 110 529 l 110 436 q 173 297 110 351 q 338 243 236 243 z "},"ğ":{"ha":665,"x_min":35,"x_max":606,"o":"m 35 -278 l 35 -242 l 417 -242 q 526 -206 486 -242 q 567 -111 567 -171 q 526 -25 567 -57 q 417 7 486 7 l 224 7 q 148 30 172 7 q 122 85 124 53 q 136 149 121 118 l 190 253 l 228 243 l 176 144 q 164 101 167 125 q 176 60 161 78 q 229 43 190 43 l 419 43 q 556 2 506 43 q 606 -111 606 -39 q 583 -199 606 -161 q 518 -257 560 -236 q 418 -278 476 -278 l 35 -278 m 338 206 q 199 235 260 206 q 105 317 139 265 q 71 436 71 369 l 71 447 q 105 563 71 513 q 199 641 139 613 q 338 669 260 669 q 475 642 415 669 q 569 565 535 614 q 603 453 603 517 l 603 436 q 569 317 603 369 q 475 235 535 265 q 338 206 415 206 m 338 243 q 500 297 436 243 q 564 436 564 351 l 564 451 q 500 582 564 532 q 338 632 436 632 q 173 581 236 632 q 110 447 110 529 l 110 436 q 173 297 110 351 q 338 243 236 243 m 338 783 q 239 804 281 783 q 176 868 197 825 q 154 975 154 911 l 192 975 q 230 856 192 894 q 338 818 268 818 q 445 856 407 818 q 483 975 483 894 l 521 975 q 499 868 521 911 q 437 804 478 825 q 338 783 396 783 z "},"ģ":{"ha":665,"x_min":35,"x_max":606,"o":"m 35 -278 l 35 -242 l 417 -242 q 526 -206 486 -242 q 567 -111 567 -171 q 526 -25 567 -57 q 417 7 486 7 l 224 7 q 148 30 172 7 q 122 85 124 53 q 136 149 121 118 l 190 253 l 228 243 l 176 144 q 164 101 167 125 q 176 60 161 78 q 229 43 190 43 l 419 43 q 556 2 506 43 q 606 -111 606 -39 q 583 -199 606 -161 q 518 -257 560 -236 q 418 -278 476 -278 l 35 -278 m 338 206 q 199 235 260 206 q 105 317 139 265 q 71 436 71 369 l 71 447 q 105 563 71 513 q 199 641 139 613 q 338 669 260 669 q 475 642 415 669 q 569 565 535 614 q 603 453 603 517 l 603 436 q 569 317 603 369 q 475 235 535 265 q 338 206 415 206 m 338 243 q 500 297 436 243 q 564 436 564 351 l 564 451 q 500 582 564 532 q 338 632 436 632 q 173 581 236 632 q 110 447 110 529 l 110 436 q 173 297 110 351 q 338 243 236 243 m 317 790 l 317 906 q 326 943 317 928 q 351 967 335 958 q 388 975 368 975 l 424 975 l 424 947 l 388 947 q 350 906 350 947 l 350 860 l 358 860 l 358 790 l 317 790 z "},"ġ":{"ha":665,"x_min":35,"x_max":606,"o":"m 35 -278 l 35 -242 l 417 -242 q 526 -206 486 -242 q 567 -111 567 -171 q 526 -25 567 -57 q 417 7 486 7 l 224 7 q 148 30 172 7 q 122 85 124 53 q 136 149 121 118 l 190 253 l 228 243 l 176 144 q 164 101 167 125 q 176 60 161 78 q 229 43 190 43 l 419 43 q 556 2 506 43 q 606 -111 606 -39 q 583 -199 606 -161 q 518 -257 560 -236 q 418 -278 476 -278 l 35 -278 m 338 206 q 199 235 260 206 q 105 317 139 265 q 71 436 71 369 l 71 447 q 105 563 71 513 q 199 641 139 613 q 338 669 260 669 q 475 642 415 669 q 569 565 535 614 q 603 453 603 517 l 603 436 q 569 317 603 369 q 475 235 535 265 q 338 206 415 206 m 338 243 q 500 297 436 243 q 564 436 564 351 l 564 451 q 500 582 564 532 q 338 632 436 632 q 173 581 236 632 q 110 447 110 529 l 110 436 q 173 297 110 351 q 338 243 236 243 m 317 819 l 317 949 l 358 949 l 358 819 l 317 819 z "},"h":{"ha":771,"x_min":122,"x_max":660,"o":"m 122 0 l 122 1014 l 160 1014 l 160 483 l 149 483 q 194 570 165 535 q 258 628 222 606 q 333 660 294 650 q 406 669 371 669 q 588 600 517 669 q 660 378 660 531 l 660 0 l 619 0 l 619 375 q 557 571 619 511 q 401 631 494 631 q 283 602 338 631 q 196 517 229 574 q 163 376 163 461 l 163 0 l 122 0 z "},"ħ":{"ha":771,"x_min":14,"x_max":660,"o":"m 14 815 l 14 851 l 325 851 l 325 815 l 14 815 m 122 0 l 122 1014 l 160 1014 l 160 483 l 149 483 q 194 570 165 535 q 258 628 222 606 q 333 660 294 650 q 406 669 371 669 q 588 600 517 669 q 660 378 660 531 l 660 0 l 619 0 l 619 375 q 557 571 619 511 q 401 631 494 631 q 283 602 338 631 q 196 517 229 574 q 163 376 163 461 l 163 0 l 122 0 z "},"i":{"ha":328,"x_min":26,"x_max":207,"o":"m 167 0 l 167 635 l 185 617 l 26 617 l 26 656 l 207 656 l 207 0 l 167 0 m 165 819 l 165 949 l 207 949 l 207 819 l 165 819 z "},"ı":{"ha":328,"x_min":26,"x_max":207,"o":"m 167 0 l 167 635 l 185 617 l 26 617 l 26 656 l 207 656 l 207 0 l 167 0 z "},"í":{"ha":328,"x_min":26,"x_max":339,"o":"m 167 0 l 167 635 l 185 617 l 26 617 l 26 656 l 207 656 l 207 0 l 167 0 m 164 790 l 285 975 l 339 975 l 208 790 l 164 790 z "},"î":{"ha":328,"x_min":-11,"x_max":383,"o":"m 167 0 l 167 635 l 185 617 l 26 617 l 26 656 l 207 656 l 207 0 l 167 0 m -11 790 l 165 975 l 208 975 l 383 790 l 338 790 l 174 954 l 197 954 l 35 790 l -11 790 z "},"ï":{"ha":328,"x_min":26,"x_max":336,"o":"m 167 0 l 167 635 l 185 617 l 26 617 l 26 656 l 207 656 l 207 0 l 167 0 m 297 826 l 297 943 l 336 943 l 336 826 l 297 826 m 36 826 l 36 943 l 75 943 l 75 826 l 36 826 z "},"ì":{"ha":328,"x_min":26,"x_max":208,"o":"m 167 0 l 167 635 l 185 617 l 26 617 l 26 656 l 207 656 l 207 0 l 167 0 m 164 790 l 33 975 l 88 975 l 208 790 l 164 790 z "},"ī":{"ha":328,"x_min":-7,"x_max":379,"o":"m 167 0 l 167 635 l 185 617 l 26 617 l 26 656 l 207 656 l 207 0 l 167 0 m -7 817 l -7 853 l 379 853 l 379 817 l -7 817 z "},"į":{"ha":328,"x_min":26,"x_max":207,"o":"m 167 0 l 167 635 l 185 617 l 26 617 l 26 656 l 207 656 l 207 0 l 167 0 m 165 819 l 165 949 l 207 949 l 207 819 l 165 819 m 142 -278 q 76 -253 97 -278 q 54 -194 54 -228 q 65 -148 54 -171 q 94 -100 76 -125 l 181 19 l 207 0 l 121 -121 q 101 -156 110 -139 q 93 -192 93 -174 q 106 -227 93 -211 q 146 -243 119 -243 l 199 -243 l 199 -278 l 142 -278 z "},"j":{"ha":328,"x_min":-7,"x_max":207,"o":"m -7 -278 l -7 -240 l 58 -240 q 136 -210 106 -240 q 167 -132 167 -179 l 167 635 l 185 617 l 26 617 l 26 656 l 207 656 l 207 -129 q 165 -236 207 -194 q 57 -278 122 -278 l -7 -278 m 165 819 l 165 949 l 207 949 l 207 819 l 165 819 z "},"ȷ":{"ha":328,"x_min":-7,"x_max":207,"o":"m -7 -278 l -7 -240 l 58 -240 q 136 -210 106 -240 q 167 -132 167 -179 l 167 635 l 185 617 l 26 617 l 26 656 l 207 656 l 207 -129 q 165 -236 207 -194 q 57 -278 122 -278 l -7 -278 z "},"k":{"ha":650,"x_min":122,"x_max":638,"o":"m 140 206 l 138 253 l 551 656 l 603 656 l 140 206 m 122 0 l 122 1014 l 163 1014 l 163 0 l 122 0 m 586 0 l 294 379 l 322 407 l 638 0 l 586 0 z "},"ķ":{"ha":650,"x_min":122,"x_max":638,"o":"m 140 206 l 138 253 l 551 656 l 603 656 l 140 206 m 122 0 l 122 1014 l 163 1014 l 163 0 l 122 0 m 586 0 l 294 379 l 322 407 l 638 0 l 586 0 m 260 -279 l 260 -251 l 296 -251 q 333 -210 333 -251 l 333 -164 l 325 -164 l 325 -96 l 367 -96 l 367 -210 q 358 -247 367 -231 q 333 -271 349 -262 q 296 -279 317 -279 l 260 -279 z "},"l":{"ha":344,"x_min":-19,"x_max":319,"o":"m 267 0 q 161 41 203 0 q 119 146 119 82 l 119 994 l 138 976 l -19 976 l -19 1014 l 160 1014 l 160 146 q 190 68 160 99 q 268 38 221 38 l 319 38 l 319 0 l 267 0 z "},"ĺ":{"ha":344,"x_min":-19,"x_max":319,"o":"m 267 0 q 161 41 203 0 q 119 146 119 82 l 119 994 l 138 976 l -19 976 l -19 1014 l 160 1014 l 160 146 q 190 68 160 99 q 268 38 221 38 l 319 38 l 319 0 l 267 0 m 117 1136 l 238 1301 l 292 1301 l 161 1136 l 117 1136 z "},"ľ":{"ha":367,"x_min":-19,"x_max":346,"o":"m 267 0 q 161 41 203 0 q 119 146 119 82 l 119 994 l 138 976 l -19 976 l -19 1014 l 160 1014 l 160 146 q 190 68 160 99 q 268 38 221 38 l 319 38 l 319 0 l 267 0 m 307 788 l 307 1014 l 346 1014 l 344 788 l 307 788 z "},"ļ":{"ha":344,"x_min":-19,"x_max":319,"o":"m 267 0 q 161 41 203 0 q 119 146 119 82 l 119 994 l 138 976 l -19 976 l -19 1014 l 160 1014 l 160 146 q 190 68 160 99 q 268 38 221 38 l 319 38 l 319 0 l 267 0 m 136 -279 l 136 -251 l 172 -251 q 210 -210 210 -251 l 210 -164 l 201 -164 l 201 -96 l 243 -96 l 243 -210 q 234 -247 243 -231 q 209 -271 225 -262 q 172 -279 193 -279 l 136 -279 z "},"ł":{"ha":426,"x_min":31,"x_max":369,"o":"m 39 396 l 39 440 l 358 618 l 358 574 l 39 396 m 317 0 q 211 41 253 0 q 169 146 169 82 l 169 994 l 188 976 l 31 976 l 31 1014 l 210 1014 l 210 146 q 240 68 210 99 q 318 38 271 38 l 369 38 l 369 0 l 317 0 z "},"m":{"ha":1217,"x_min":122,"x_max":1104,"o":"m 122 0 l 122 656 l 160 656 l 160 493 l 153 496 q 214 597 175 560 q 300 652 253 635 q 393 669 347 669 q 544 623 483 669 q 626 476 606 576 l 615 476 q 676 590 636 547 q 767 651 717 632 q 864 669 817 669 q 1039 600 974 669 q 1104 378 1104 531 l 1104 0 l 1067 0 l 1067 376 q 1010 572 1067 513 q 860 631 953 631 q 699 567 765 631 q 633 378 633 503 l 633 0 l 594 0 l 594 376 q 538 572 594 513 q 388 631 481 631 q 227 567 293 631 q 161 378 161 503 l 161 0 l 122 0 z "},"n":{"ha":771,"x_min":122,"x_max":660,"o":"m 122 0 l 122 656 l 160 656 l 160 483 l 149 483 q 194 570 165 535 q 258 628 222 606 q 333 660 294 650 q 406 669 371 669 q 588 600 517 669 q 660 378 660 531 l 660 0 l 619 0 l 619 375 q 557 571 619 511 q 401 631 494 631 q 283 602 338 631 q 196 517 229 574 q 163 376 163 461 l 163 0 l 122 0 z "},"ń":{"ha":771,"x_min":122,"x_max":660,"o":"m 122 0 l 122 656 l 160 656 l 160 483 l 149 483 q 194 570 165 535 q 258 628 222 606 q 333 660 294 650 q 406 669 371 669 q 588 600 517 669 q 660 378 660 531 l 660 0 l 619 0 l 619 375 q 557 571 619 511 q 401 631 494 631 q 283 602 338 631 q 196 517 229 574 q 163 376 163 461 l 163 0 l 122 0 m 367 790 l 488 975 l 542 975 l 411 790 l 367 790 z "},"ň":{"ha":771,"x_min":122,"x_max":660,"o":"m 122 0 l 122 656 l 160 656 l 160 483 l 149 483 q 194 570 165 535 q 258 628 222 606 q 333 660 294 650 q 406 669 371 669 q 588 600 517 669 q 660 378 660 531 l 660 0 l 619 0 l 619 375 q 557 571 619 511 q 401 631 494 631 q 283 602 338 631 q 196 517 229 574 q 163 376 163 461 l 163 0 l 122 0 m 367 790 l 192 975 l 238 975 l 401 811 l 378 811 l 540 975 l 586 975 l 410 790 l 367 790 z "},"ņ":{"ha":771,"x_min":122,"x_max":660,"o":"m 122 0 l 122 656 l 160 656 l 160 483 l 149 483 q 194 570 165 535 q 258 628 222 606 q 333 660 294 650 q 406 669 371 669 q 588 600 517 669 q 660 378 660 531 l 660 0 l 619 0 l 619 375 q 557 571 619 511 q 401 631 494 631 q 283 602 338 631 q 196 517 229 574 q 163 376 163 461 l 163 0 l 122 0 m 303 -279 l 303 -251 l 339 -251 q 376 -210 376 -251 l 376 -164 l 368 -164 l 368 -96 l 410 -96 l 410 -210 q 401 -247 410 -231 q 376 -271 392 -262 q 339 -279 360 -279 l 303 -279 z "},"ñ":{"ha":771,"x_min":122,"x_max":660,"o":"m 122 0 l 122 656 l 160 656 l 160 483 l 149 483 q 194 570 165 535 q 258 628 222 606 q 333 660 294 650 q 406 669 371 669 q 588 600 517 669 q 660 378 660 531 l 660 0 l 619 0 l 619 375 q 557 571 619 511 q 401 631 494 631 q 283 602 338 631 q 196 517 229 574 q 163 376 163 461 l 163 0 l 122 0 m 488 797 q 428 818 454 797 q 378 866 401 839 q 333 914 356 893 q 288 935 311 935 q 247 910 261 935 q 229 840 232 885 l 193 840 q 222 935 196 901 q 290 969 247 969 q 347 949 322 969 q 393 900 371 928 q 438 851 415 872 q 488 831 461 831 q 534 858 518 831 q 549 932 550 885 l 585 932 q 560 833 586 868 q 488 797 533 797 z "},"ŋ":{"ha":771,"x_min":122,"x_max":660,"o":"m 446 -278 l 446 -240 l 513 -240 q 589 -210 558 -240 q 619 -132 619 -179 l 619 375 q 557 571 619 511 q 401 631 494 631 q 283 602 338 631 q 196 517 229 574 q 163 376 163 461 l 163 0 l 122 0 l 122 656 l 160 656 l 160 483 l 149 483 q 194 570 165 535 q 258 628 222 606 q 333 660 294 650 q 406 669 371 669 q 588 600 517 669 q 660 378 660 531 l 660 -129 q 617 -236 660 -194 q 510 -278 575 -278 l 446 -278 z "},"o":{"ha":763,"x_min":72,"x_max":690,"o":"m 382 -14 q 222 30 292 -14 q 112 150 151 74 q 72 326 72 226 l 72 338 q 112 510 72 435 q 222 627 151 585 q 382 669 292 669 q 542 628 472 669 q 651 512 611 586 q 690 342 690 438 l 690 326 q 651 150 690 226 q 542 30 611 74 q 382 -14 472 -14 m 382 24 q 522 63 461 24 q 616 169 582 101 q 650 326 650 238 l 650 342 q 616 492 650 428 q 522 594 582 557 q 382 631 461 631 q 243 593 304 631 q 147 490 182 556 q 113 338 113 424 l 113 326 q 147 169 113 238 q 243 63 182 101 q 382 24 304 24 z "},"ó":{"ha":763,"x_min":72,"x_max":690,"o":"m 382 -14 q 222 30 292 -14 q 112 150 151 74 q 72 326 72 226 l 72 338 q 112 510 72 435 q 222 627 151 585 q 382 669 292 669 q 542 628 472 669 q 651 512 611 586 q 690 342 690 438 l 690 326 q 651 150 690 226 q 542 30 611 74 q 382 -14 472 -14 m 382 24 q 522 63 461 24 q 616 169 582 101 q 650 326 650 238 l 650 342 q 616 492 650 428 q 522 594 582 557 q 382 631 461 631 q 243 593 304 631 q 147 490 182 556 q 113 338 113 424 l 113 326 q 147 169 113 238 q 243 63 182 101 q 382 24 304 24 m 360 790 l 481 975 l 535 975 l 404 790 l 360 790 z "},"ô":{"ha":763,"x_min":72,"x_max":690,"o":"m 382 -14 q 222 30 292 -14 q 112 150 151 74 q 72 326 72 226 l 72 338 q 112 510 72 435 q 222 627 151 585 q 382 669 292 669 q 542 628 472 669 q 651 512 611 586 q 690 342 690 438 l 690 326 q 651 150 690 226 q 542 30 611 74 q 382 -14 472 -14 m 382 24 q 522 63 461 24 q 616 169 582 101 q 650 326 650 238 l 650 342 q 616 492 650 428 q 522 594 582 557 q 382 631 461 631 q 243 593 304 631 q 147 490 182 556 q 113 338 113 424 l 113 326 q 147 169 113 238 q 243 63 182 101 q 382 24 304 24 m 185 790 l 361 975 l 404 975 l 579 790 l 533 790 l 369 954 l 393 954 l 231 790 l 185 790 z "},"ö":{"ha":763,"x_min":72,"x_max":690,"o":"m 382 -14 q 222 30 292 -14 q 112 150 151 74 q 72 326 72 226 l 72 338 q 112 510 72 435 q 222 627 151 585 q 382 669 292 669 q 542 628 472 669 q 651 512 611 586 q 690 342 690 438 l 690 326 q 651 150 690 226 q 542 30 611 74 q 382 -14 472 -14 m 382 24 q 522 63 461 24 q 616 169 582 101 q 650 326 650 238 l 650 342 q 616 492 650 428 q 522 594 582 557 q 382 631 461 631 q 243 593 304 631 q 147 490 182 556 q 113 338 113 424 l 113 326 q 147 169 113 238 q 243 63 182 101 q 382 24 304 24 m 493 826 l 493 943 l 532 943 l 532 826 l 493 826 m 232 826 l 232 943 l 271 943 l 271 826 l 232 826 z "},"ò":{"ha":763,"x_min":72,"x_max":690,"o":"m 382 -14 q 222 30 292 -14 q 112 150 151 74 q 72 326 72 226 l 72 338 q 112 510 72 435 q 222 627 151 585 q 382 669 292 669 q 542 628 472 669 q 651 512 611 586 q 690 342 690 438 l 690 326 q 651 150 690 226 q 542 30 611 74 q 382 -14 472 -14 m 382 24 q 522 63 461 24 q 616 169 582 101 q 650 326 650 238 l 650 342 q 616 492 650 428 q 522 594 582 557 q 382 631 461 631 q 243 593 304 631 q 147 490 182 556 q 113 338 113 424 l 113 326 q 147 169 113 238 q 243 63 182 101 q 382 24 304 24 m 360 790 l 229 975 l 283 975 l 404 790 l 360 790 z "},"ő":{"ha":763,"x_min":72,"x_max":690,"o":"m 382 -14 q 222 30 292 -14 q 112 150 151 74 q 72 326 72 226 l 72 338 q 112 510 72 435 q 222 627 151 585 q 382 669 292 669 q 542 628 472 669 q 651 512 611 586 q 690 342 690 438 l 690 326 q 651 150 690 226 q 542 30 611 74 q 382 -14 472 -14 m 382 24 q 522 63 461 24 q 616 169 582 101 q 650 326 650 238 l 650 342 q 616 492 650 428 q 522 594 582 557 q 382 631 461 631 q 243 593 304 631 q 147 490 182 556 q 113 338 113 424 l 113 326 q 147 169 113 238 q 243 63 182 101 q 382 24 304 24 m 271 790 l 390 975 l 439 975 l 314 790 l 271 790 m 456 790 l 579 975 l 632 975 l 503 790 l 456 790 z "},"ō":{"ha":763,"x_min":72,"x_max":690,"o":"m 382 -14 q 222 30 292 -14 q 112 150 151 74 q 72 326 72 226 l 72 338 q 112 510 72 435 q 222 627 151 585 q 382 669 292 669 q 542 628 472 669 q 651 512 611 586 q 690 342 690 438 l 690 326 q 651 150 690 226 q 542 30 611 74 q 382 -14 472 -14 m 382 24 q 522 63 461 24 q 616 169 582 101 q 650 326 650 238 l 650 342 q 616 492 650 428 q 522 594 582 557 q 382 631 461 631 q 243 593 304 631 q 147 490 182 556 q 113 338 113 424 l 113 326 q 147 169 113 238 q 243 63 182 101 q 382 24 304 24 m 189 817 l 189 853 l 575 853 l 575 817 l 189 817 z "},"ø":{"ha":776,"x_min":78,"x_max":699,"o":"m 103 -24 l 78 0 l 165 96 l 178 110 l 576 569 l 588 585 l 672 681 l 699 657 l 614 561 l 600 546 l 204 89 l 192 75 l 103 -24 m 389 -14 q 228 30 299 -14 q 119 150 158 74 q 79 326 79 226 l 79 338 q 119 510 79 435 q 228 627 158 585 q 389 669 299 669 q 549 628 479 669 q 658 512 618 586 q 697 342 697 438 l 697 326 q 658 150 697 226 q 549 30 618 74 q 389 -14 479 -14 m 389 24 q 528 63 468 24 q 623 169 589 101 q 657 326 657 238 l 657 342 q 623 492 657 428 q 528 594 589 557 q 389 631 468 631 q 250 593 311 631 q 154 490 189 556 q 119 338 119 424 l 119 326 q 154 169 119 238 q 250 63 189 101 q 389 24 311 24 z "},"õ":{"ha":763,"x_min":72,"x_max":690,"o":"m 382 -14 q 222 30 292 -14 q 112 150 151 74 q 72 326 72 226 l 72 338 q 112 510 72 435 q 222 627 151 585 q 382 669 292 669 q 542 628 472 669 q 651 512 611 586 q 690 342 690 438 l 690 326 q 651 150 690 226 q 542 30 611 74 q 382 -14 472 -14 m 382 24 q 522 63 461 24 q 616 169 582 101 q 650 326 650 238 l 650 342 q 616 492 650 428 q 522 594 582 557 q 382 631 461 631 q 243 593 304 631 q 147 490 182 556 q 113 338 113 424 l 113 326 q 147 169 113 238 q 243 63 182 101 q 382 24 304 24 m 481 797 q 421 818 447 797 q 372 866 394 839 q 326 914 349 893 q 281 935 304 935 q 240 910 254 935 q 222 840 225 885 l 186 840 q 215 935 189 901 q 283 969 240 969 q 340 949 315 969 q 386 900 364 928 q 431 851 408 872 q 481 831 454 831 q 527 858 511 831 q 542 932 543 885 l 578 932 q 553 833 579 868 q 481 797 526 797 z "},"œ":{"ha":1260,"x_min":72,"x_max":1204,"o":"m 378 -14 q 220 30 289 -14 q 112 150 151 74 q 72 326 72 226 l 72 338 q 112 510 72 435 q 220 627 151 585 q 378 669 289 669 q 560 608 485 669 q 663 443 636 546 l 654 443 q 754 607 681 544 q 933 669 828 669 q 1081 626 1019 669 q 1174 505 1143 582 q 1193 326 1204 428 l 669 326 l 669 363 l 1172 363 l 1154 347 q 1135 496 1161 432 q 1056 595 1108 560 q 933 631 1004 631 q 801 594 858 631 q 713 492 744 557 q 681 340 681 426 l 681 324 q 716 169 681 236 q 815 63 751 101 q 960 25 878 25 q 1063 41 1015 25 q 1142 83 1111 57 l 1165 53 q 1077 5 1132 24 q 960 -14 1022 -14 q 766 50 849 -14 q 656 222 683 114 l 664 222 q 562 51 638 115 q 378 -14 486 -14 m 378 24 q 515 63 457 24 q 606 169 574 101 q 639 326 639 238 l 639 342 q 606 492 639 428 q 515 594 574 557 q 378 631 457 631 q 240 593 300 631 q 147 490 181 556 q 113 338 113 424 l 113 326 q 147 169 113 238 q 240 63 181 101 q 378 24 300 24 z "},"p":{"ha":810,"x_min":122,"x_max":738,"o":"m 122 -278 l 122 656 l 161 656 l 161 460 l 156 467 q 263 614 189 558 q 433 669 336 669 q 592 627 524 669 q 699 510 661 585 q 738 339 738 436 l 738 326 q 699 150 738 226 q 592 30 661 74 q 433 -14 524 -14 q 263 41 336 -14 q 157 188 189 96 l 163 194 l 163 -278 l 122 -278 m 431 24 q 570 63 510 24 q 664 169 631 101 q 697 326 697 238 l 697 339 q 664 490 697 425 q 570 593 631 556 q 431 631 510 631 q 292 592 353 631 q 196 485 231 553 q 161 328 161 417 q 196 170 161 239 q 292 63 231 101 q 431 24 353 24 z "},"þ":{"ha":811,"x_min":122,"x_max":739,"o":"m 122 -278 l 122 1014 l 163 1014 l 163 460 l 157 467 q 263 614 189 558 q 433 669 336 669 q 594 627 525 669 q 701 510 663 585 q 739 339 739 436 l 739 326 q 701 150 739 226 q 594 30 663 74 q 435 -14 525 -14 q 263 41 336 -14 q 157 189 189 96 l 163 196 l 163 -278 l 122 -278 m 432 24 q 572 63 511 24 q 665 169 632 101 q 699 326 699 238 l 699 339 q 665 490 699 425 q 572 593 632 556 q 432 631 511 631 q 292 592 353 631 q 197 485 232 553 q 163 328 163 417 q 197 170 163 239 q 292 63 232 101 q 432 24 353 24 z "},"q":{"ha":808,"x_min":72,"x_max":689,"o":"m 649 -278 l 649 194 l 654 188 q 549 41 621 96 q 378 -14 476 -14 q 218 30 288 -14 q 110 150 149 74 q 72 326 72 226 l 72 339 q 111 510 72 436 q 219 627 150 585 q 378 669 288 669 q 549 614 476 669 q 654 467 622 558 l 650 460 l 650 656 l 689 656 l 689 -278 l 649 -278 m 379 24 q 519 63 458 24 q 615 170 581 101 q 650 328 650 239 q 615 485 650 417 q 519 592 581 553 q 379 631 458 631 q 240 593 300 631 q 146 490 179 556 q 113 339 113 425 l 113 326 q 146 169 113 238 q 240 63 179 101 q 379 24 300 24 z "},"r":{"ha":442,"x_min":122,"x_max":410,"o":"m 122 0 l 122 656 l 161 656 l 161 522 l 153 525 q 199 606 169 578 q 267 644 228 633 q 350 656 306 656 l 410 656 l 410 615 l 349 615 q 213 569 263 615 q 163 417 163 522 l 163 0 l 122 0 z "},"ŕ":{"ha":442,"x_min":122,"x_max":415,"o":"m 122 0 l 122 656 l 161 656 l 161 522 l 153 525 q 199 606 169 578 q 267 644 228 633 q 350 656 306 656 l 410 656 l 410 615 l 349 615 q 213 569 263 615 q 163 417 163 522 l 163 0 l 122 0 m 240 790 l 361 975 l 415 975 l 285 790 l 240 790 z "},"ř":{"ha":442,"x_min":65,"x_max":460,"o":"m 122 0 l 122 656 l 161 656 l 161 522 l 153 525 q 199 606 169 578 q 267 644 228 633 q 350 656 306 656 l 410 656 l 410 615 l 349 615 q 213 569 263 615 q 163 417 163 522 l 163 0 l 122 0 m 240 790 l 65 975 l 111 975 l 275 811 l 251 811 l 414 975 l 460 975 l 283 790 l 240 790 z "},"ŗ":{"ha":442,"x_min":56,"x_max":410,"o":"m 122 0 l 122 656 l 161 656 l 161 522 l 153 525 q 199 606 169 578 q 267 644 228 633 q 350 656 306 656 l 410 656 l 410 615 l 349 615 q 213 569 263 615 q 163 417 163 522 l 163 0 l 122 0 m 56 -279 l 56 -251 l 92 -251 q 129 -210 129 -251 l 129 -164 l 121 -164 l 121 -96 l 163 -96 l 163 -210 q 153 -247 163 -231 q 128 -271 144 -262 q 92 -279 113 -279 l 56 -279 z "},"s":{"ha":568,"x_min":58,"x_max":503,"o":"m 281 -14 q 156 8 217 -14 q 58 68 94 29 l 81 99 q 169 43 114 64 q 281 22 225 22 q 412 62 361 22 q 463 165 463 101 q 435 244 463 217 q 363 287 407 272 q 271 313 319 301 q 178 342 222 324 q 107 393 135 360 q 79 486 79 426 q 140 619 79 568 q 296 669 200 669 q 404 650 354 669 q 490 600 454 631 l 468 569 q 392 615 436 597 q 296 632 349 632 q 168 592 218 632 q 118 489 118 551 q 146 411 118 439 q 217 369 174 383 q 310 342 261 354 q 403 313 360 331 q 475 260 447 294 q 503 165 503 226 q 474 72 503 113 q 396 9 446 32 q 281 -14 346 -14 z "},"ś":{"ha":568,"x_min":58,"x_max":503,"o":"m 281 -14 q 156 8 217 -14 q 58 68 94 29 l 81 99 q 169 43 114 64 q 281 22 225 22 q 412 62 361 22 q 463 165 463 101 q 435 244 463 217 q 363 287 407 272 q 271 313 319 301 q 178 342 222 324 q 107 393 135 360 q 79 486 79 426 q 140 619 79 568 q 296 669 200 669 q 404 650 354 669 q 490 600 454 631 l 468 569 q 392 615 436 597 q 296 632 349 632 q 168 592 218 632 q 118 489 118 551 q 146 411 118 439 q 217 369 174 383 q 310 342 261 354 q 403 313 360 331 q 475 260 447 294 q 503 165 503 226 q 474 72 503 113 q 396 9 446 32 q 281 -14 346 -14 m 265 790 l 386 975 l 440 975 l 310 790 l 265 790 z "},"š":{"ha":568,"x_min":58,"x_max":503,"o":"m 281 -14 q 156 8 217 -14 q 58 68 94 29 l 81 99 q 169 43 114 64 q 281 22 225 22 q 412 62 361 22 q 463 165 463 101 q 435 244 463 217 q 363 287 407 272 q 271 313 319 301 q 178 342 222 324 q 107 393 135 360 q 79 486 79 426 q 140 619 79 568 q 296 669 200 669 q 404 650 354 669 q 490 600 454 631 l 468 569 q 392 615 436 597 q 296 632 349 632 q 168 592 218 632 q 118 489 118 551 q 146 411 118 439 q 217 369 174 383 q 310 342 261 354 q 403 313 360 331 q 475 260 447 294 q 503 165 503 226 q 474 72 503 113 q 396 9 446 32 q 281 -14 346 -14 m 265 790 l 90 975 l 136 975 l 300 811 l 276 811 l 439 975 l 485 975 l 308 790 l 265 790 z "},"ş":{"ha":568,"x_min":58,"x_max":503,"o":"m 281 -14 q 156 8 217 -14 q 58 68 94 29 l 81 99 q 169 43 114 64 q 281 22 225 22 q 412 62 361 22 q 463 165 463 101 q 435 244 463 217 q 363 287 407 272 q 271 313 319 301 q 178 342 222 324 q 107 393 135 360 q 79 486 79 426 q 140 619 79 568 q 296 669 200 669 q 404 650 354 669 q 490 600 454 631 l 468 569 q 392 615 436 597 q 296 632 349 632 q 168 592 218 632 q 118 489 118 551 q 146 411 118 439 q 217 369 174 383 q 310 342 261 354 q 403 313 360 331 q 475 260 447 294 q 503 165 503 226 q 474 72 503 113 q 396 9 446 32 q 281 -14 346 -14 m 328 -279 l 193 -279 l 193 -249 l 328 -249 q 381 -231 363 -249 q 399 -186 399 -212 q 381 -144 399 -161 q 328 -126 363 -126 l 249 -126 l 258 6 l 293 6 l 288 -110 l 272 -96 l 331 -96 q 408 -122 381 -96 q 435 -186 435 -147 q 407 -253 435 -228 q 328 -279 379 -279 z "},"ș":{"ha":568,"x_min":58,"x_max":503,"o":"m 281 -14 q 156 8 217 -14 q 58 68 94 29 l 81 99 q 169 43 114 64 q 281 22 225 22 q 412 62 361 22 q 463 165 463 101 q 435 244 463 217 q 363 287 407 272 q 271 313 319 301 q 178 342 222 324 q 107 393 135 360 q 79 486 79 426 q 140 619 79 568 q 296 669 200 669 q 404 650 354 669 q 490 600 454 631 l 468 569 q 392 615 436 597 q 296 632 349 632 q 168 592 218 632 q 118 489 118 551 q 146 411 118 439 q 217 369 174 383 q 310 342 261 354 q 403 313 360 331 q 475 260 447 294 q 503 165 503 226 q 474 72 503 113 q 396 9 446 32 q 281 -14 346 -14 m 189 -279 l 189 -251 l 225 -251 q 263 -210 263 -251 l 263 -164 l 254 -164 l 254 -96 l 296 -96 l 296 -210 q 287 -247 296 -231 q 262 -271 278 -262 q 225 -279 246 -279 l 189 -279 z "},"ß":{"ha":806,"x_min":122,"x_max":735,"o":"m 465 0 l 361 0 l 361 39 l 463 39 q 633 97 571 39 q 696 249 696 156 q 633 410 696 350 q 453 471 571 471 l 421 471 l 421 508 q 585 570 521 508 q 650 738 650 632 q 588 894 650 836 q 419 951 526 951 q 232 876 301 951 q 163 672 163 801 l 163 0 l 122 0 l 122 671 q 202 903 122 818 q 419 989 282 989 q 563 958 503 989 q 656 872 624 928 q 689 738 689 815 q 658 603 689 661 q 570 514 626 546 q 440 482 514 482 l 440 500 q 660 433 585 500 q 735 246 735 367 q 702 118 735 174 q 609 31 669 63 q 465 0 549 0 z "},"t":{"ha":442,"x_min":26,"x_max":399,"o":"m 306 0 q 248 10 275 0 q 201 40 221 21 q 169 87 181 60 q 158 147 158 114 l 158 821 l 197 821 l 197 146 q 228 68 197 99 q 306 38 260 38 l 399 38 l 399 0 l 306 0 m 26 617 l 26 656 l 399 656 l 399 617 l 26 617 z "},"ŧ":{"ha":446,"x_min":35,"x_max":407,"o":"m 53 389 l 53 425 l 364 425 l 364 389 l 53 389 m 314 0 q 256 10 283 0 q 209 40 229 21 q 178 87 189 60 q 167 147 167 114 l 167 821 l 206 821 l 206 146 q 237 68 206 99 q 314 38 268 38 l 407 38 l 407 0 l 314 0 m 35 617 l 35 656 l 407 656 l 407 617 l 35 617 z "},"ť":{"ha":442,"x_min":26,"x_max":399,"o":"m 306 0 q 248 10 275 0 q 201 40 221 21 q 169 87 181 60 q 158 147 158 114 l 158 821 l 197 821 l 197 146 q 228 68 197 99 q 306 38 260 38 l 399 38 l 399 0 l 306 0 m 26 617 l 26 656 l 399 656 l 399 617 l 26 617 m 328 751 l 328 975 l 367 975 l 365 751 l 328 751 z "},"ţ":{"ha":442,"x_min":26,"x_max":422,"o":"m 306 0 q 248 10 275 0 q 201 40 221 21 q 169 87 181 60 q 158 147 158 114 l 158 821 l 197 821 l 197 146 q 228 68 197 99 q 306 38 260 38 l 399 38 l 399 0 l 306 0 m 26 617 l 26 656 l 399 656 l 399 617 l 26 617 m 315 -253 l 181 -253 l 181 -222 l 315 -222 q 368 -204 350 -222 q 386 -160 386 -186 q 368 -117 386 -135 q 315 -100 350 -100 l 236 -100 l 246 32 l 281 32 l 275 -83 l 260 -69 l 318 -69 q 395 -95 368 -69 q 422 -160 422 -121 q 394 -227 422 -201 q 315 -253 367 -253 z "},"ț":{"ha":442,"x_min":26,"x_max":399,"o":"m 306 0 q 248 10 275 0 q 201 40 221 21 q 169 87 181 60 q 158 147 158 114 l 158 821 l 197 821 l 197 146 q 228 68 197 99 q 306 38 260 38 l 399 38 l 399 0 l 306 0 m 26 617 l 26 656 l 399 656 l 399 617 l 26 617 m 176 -253 l 176 -225 l 213 -225 q 250 -183 250 -225 l 250 -137 l 242 -137 l 242 -69 l 283 -69 l 283 -183 q 274 -220 283 -204 q 249 -244 265 -236 q 213 -253 233 -253 l 176 -253 z "},"u":{"ha":764,"x_min":111,"x_max":642,"o":"m 364 -14 q 234 13 292 -14 q 144 101 176 40 q 111 264 111 163 l 111 656 l 150 656 l 150 267 q 178 123 150 176 q 256 47 207 69 q 367 25 306 25 q 483 53 429 25 q 571 138 538 82 q 604 278 604 194 l 604 656 l 642 656 l 642 0 l 606 0 l 606 172 l 617 172 q 574 87 601 122 q 510 29 546 51 q 438 -3 475 7 q 364 -14 400 -14 z "},"ú":{"ha":764,"x_min":111,"x_max":642,"o":"m 364 -14 q 234 13 292 -14 q 144 101 176 40 q 111 264 111 163 l 111 656 l 150 656 l 150 267 q 178 123 150 176 q 256 47 207 69 q 367 25 306 25 q 483 53 429 25 q 571 138 538 82 q 604 278 604 194 l 604 656 l 642 656 l 642 0 l 606 0 l 606 172 l 617 172 q 574 87 601 122 q 510 29 546 51 q 438 -3 475 7 q 364 -14 400 -14 m 358 790 l 479 975 l 533 975 l 403 790 l 358 790 z "},"ŭ":{"ha":764,"x_min":111,"x_max":642,"o":"m 364 -14 q 234 13 292 -14 q 144 101 176 40 q 111 264 111 163 l 111 656 l 150 656 l 150 267 q 178 123 150 176 q 256 47 207 69 q 367 25 306 25 q 483 53 429 25 q 571 138 538 82 q 604 278 604 194 l 604 656 l 642 656 l 642 0 l 606 0 l 606 172 l 617 172 q 574 87 601 122 q 510 29 546 51 q 438 -3 475 7 q 364 -14 400 -14 m 378 783 q 279 804 321 783 q 216 868 238 825 q 194 975 194 911 l 232 975 q 270 856 232 894 q 378 818 308 818 q 485 856 447 818 q 524 975 524 894 l 561 975 q 540 868 561 911 q 477 804 518 825 q 378 783 436 783 z "},"û":{"ha":764,"x_min":111,"x_max":642,"o":"m 364 -14 q 234 13 292 -14 q 144 101 176 40 q 111 264 111 163 l 111 656 l 150 656 l 150 267 q 178 123 150 176 q 256 47 207 69 q 367 25 306 25 q 483 53 429 25 q 571 138 538 82 q 604 278 604 194 l 604 656 l 642 656 l 642 0 l 606 0 l 606 172 l 617 172 q 574 87 601 122 q 510 29 546 51 q 438 -3 475 7 q 364 -14 400 -14 m 183 790 l 360 975 l 403 975 l 578 790 l 532 790 l 368 954 l 392 954 l 229 790 l 183 790 z "},"ü":{"ha":764,"x_min":111,"x_max":642,"o":"m 364 -14 q 234 13 292 -14 q 144 101 176 40 q 111 264 111 163 l 111 656 l 150 656 l 150 267 q 178 123 150 176 q 256 47 207 69 q 367 25 306 25 q 483 53 429 25 q 571 138 538 82 q 604 278 604 194 l 604 656 l 642 656 l 642 0 l 606 0 l 606 172 l 617 172 q 574 87 601 122 q 510 29 546 51 q 438 -3 475 7 q 364 -14 400 -14 m 492 826 l 492 943 l 531 943 l 531 826 l 492 826 m 231 826 l 231 943 l 269 943 l 269 826 l 231 826 z "},"ù":{"ha":764,"x_min":111,"x_max":642,"o":"m 364 -14 q 234 13 292 -14 q 144 101 176 40 q 111 264 111 163 l 111 656 l 150 656 l 150 267 q 178 123 150 176 q 256 47 207 69 q 367 25 306 25 q 483 53 429 25 q 571 138 538 82 q 604 278 604 194 l 604 656 l 642 656 l 642 0 l 606 0 l 606 172 l 617 172 q 574 87 601 122 q 510 29 546 51 q 438 -3 475 7 q 364 -14 400 -14 m 358 790 l 228 975 l 282 975 l 403 790 l 358 790 z "},"ű":{"ha":764,"x_min":111,"x_max":642,"o":"m 364 -14 q 234 13 292 -14 q 144 101 176 40 q 111 264 111 163 l 111 656 l 150 656 l 150 267 q 178 123 150 176 q 256 47 207 69 q 367 25 306 25 q 483 53 429 25 q 571 138 538 82 q 604 278 604 194 l 604 656 l 642 656 l 642 0 l 606 0 l 606 172 l 617 172 q 574 87 601 122 q 510 29 546 51 q 438 -3 475 7 q 364 -14 400 -14 m 269 790 l 389 975 l 438 975 l 313 790 l 269 790 m 454 790 l 578 975 l 631 975 l 501 790 l 454 790 z "},"ū":{"ha":764,"x_min":111,"x_max":642,"o":"m 364 -14 q 234 13 292 -14 q 144 101 176 40 q 111 264 111 163 l 111 656 l 150 656 l 150 267 q 178 123 150 176 q 256 47 207 69 q 367 25 306 25 q 483 53 429 25 q 571 138 538 82 q 604 278 604 194 l 604 656 l 642 656 l 642 0 l 606 0 l 606 172 l 617 172 q 574 87 601 122 q 510 29 546 51 q 438 -3 475 7 q 364 -14 400 -14 m 188 817 l 188 853 l 574 853 l 574 817 l 188 817 z "},"ų":{"ha":764,"x_min":111,"x_max":642,"o":"m 364 -14 q 234 13 292 -14 q 144 101 176 40 q 111 264 111 163 l 111 656 l 150 656 l 150 267 q 178 123 150 176 q 256 47 207 69 q 367 25 306 25 q 483 53 429 25 q 571 138 538 82 q 604 278 604 194 l 604 656 l 642 656 l 642 0 l 606 0 l 606 172 l 617 172 q 574 87 601 122 q 510 29 546 51 q 438 -3 475 7 q 364 -14 400 -14 m 576 -278 q 510 -253 532 -278 q 489 -194 489 -228 q 500 -148 489 -171 q 529 -100 511 -125 l 615 19 l 642 0 l 556 -121 q 536 -156 544 -139 q 528 -192 528 -174 q 541 -227 528 -211 q 581 -243 554 -243 l 633 -243 l 633 -278 l 576 -278 z "},"ů":{"ha":764,"x_min":111,"x_max":642,"o":"m 364 -14 q 234 13 292 -14 q 144 101 176 40 q 111 264 111 163 l 111 656 l 150 656 l 150 267 q 178 123 150 176 q 256 47 207 69 q 367 25 306 25 q 483 53 429 25 q 571 138 538 82 q 604 278 604 194 l 604 656 l 642 656 l 642 0 l 606 0 l 606 172 l 617 172 q 574 87 601 122 q 510 29 546 51 q 438 -3 475 7 q 364 -14 400 -14 m 381 769 q 290 804 325 769 q 256 893 256 839 q 290 981 256 946 q 381 1015 325 1015 q 471 981 436 1015 q 506 893 506 946 q 471 804 506 839 q 381 769 436 769 m 381 800 q 447 826 421 800 q 472 893 472 851 q 447 959 472 933 q 381 985 421 985 q 315 959 342 985 q 289 893 289 933 q 315 826 289 851 q 381 800 342 800 z "},"v":{"ha":647,"x_min":29,"x_max":618,"o":"m 303 0 l 29 656 l 71 656 l 333 31 l 315 31 l 576 656 l 618 656 l 346 0 l 303 0 z "},"w":{"ha":961,"x_min":39,"x_max":922,"o":"m 249 0 l 39 656 l 81 656 l 275 33 l 267 32 l 460 656 l 501 656 l 694 35 l 686 36 l 882 656 l 922 656 l 713 0 l 669 0 l 474 628 l 486 628 l 292 0 l 249 0 z "},"ẃ":{"ha":961,"x_min":39,"x_max":922,"o":"m 249 0 l 39 656 l 81 656 l 275 33 l 267 32 l 460 656 l 501 656 l 694 35 l 686 36 l 882 656 l 922 656 l 713 0 l 669 0 l 474 628 l 486 628 l 292 0 l 249 0 m 458 790 l 579 975 l 633 975 l 503 790 l 458 790 z "},"ŵ":{"ha":961,"x_min":39,"x_max":922,"o":"m 249 0 l 39 656 l 81 656 l 275 33 l 267 32 l 460 656 l 501 656 l 694 35 l 686 36 l 882 656 l 922 656 l 713 0 l 669 0 l 474 628 l 486 628 l 292 0 l 249 0 m 283 790 l 460 975 l 503 975 l 678 790 l 632 790 l 468 954 l 492 954 l 329 790 l 283 790 z "},"ẅ":{"ha":961,"x_min":39,"x_max":922,"o":"m 249 0 l 39 656 l 81 656 l 275 33 l 267 32 l 460 656 l 501 656 l 694 35 l 686 36 l 882 656 l 922 656 l 713 0 l 669 0 l 474 628 l 486 628 l 292 0 l 249 0 m 592 826 l 592 943 l 631 943 l 631 826 l 592 826 m 331 826 l 331 943 l 369 943 l 369 826 l 331 826 z "},"ẁ":{"ha":961,"x_min":39,"x_max":922,"o":"m 249 0 l 39 656 l 81 656 l 275 33 l 267 32 l 460 656 l 501 656 l 694 35 l 686 36 l 882 656 l 922 656 l 713 0 l 669 0 l 474 628 l 486 628 l 292 0 l 249 0 m 458 790 l 328 975 l 382 975 l 503 790 l 458 790 z "},"x":{"ha":611,"x_min":33,"x_max":578,"o":"m 33 0 l 279 326 l 40 656 l 89 656 l 306 351 l 524 656 l 571 656 l 332 326 l 578 0 l 526 0 l 306 300 l 83 0 l 33 0 z "},"y":{"ha":649,"x_min":22,"x_max":619,"o":"m 22 -278 l 22 -240 l 132 -240 q 203 -208 178 -240 q 247 -133 229 -176 l 318 33 l 576 656 l 619 656 l 289 -133 q 255 -203 275 -169 q 205 -257 235 -236 q 132 -278 175 -278 l 22 -278 m 311 -18 l 29 656 l 72 656 l 335 29 l 311 -18 z "},"ý":{"ha":649,"x_min":22,"x_max":619,"o":"m 22 -278 l 22 -240 l 132 -240 q 203 -208 178 -240 q 247 -133 229 -176 l 318 33 l 576 656 l 619 656 l 289 -133 q 255 -203 275 -169 q 205 -257 235 -236 q 132 -278 175 -278 l 22 -278 m 311 -18 l 29 656 l 72 656 l 335 29 l 311 -18 m 303 790 l 424 975 l 478 975 l 347 790 l 303 790 z "},"ŷ":{"ha":649,"x_min":22,"x_max":619,"o":"m 22 -278 l 22 -240 l 132 -240 q 203 -208 178 -240 q 247 -133 229 -176 l 318 33 l 576 656 l 619 656 l 289 -133 q 255 -203 275 -169 q 205 -257 235 -236 q 132 -278 175 -278 l 22 -278 m 311 -18 l 29 656 l 72 656 l 335 29 l 311 -18 m 128 790 l 304 975 l 347 975 l 522 790 l 476 790 l 313 954 l 336 954 l 174 790 l 128 790 z "},"ÿ":{"ha":649,"x_min":22,"x_max":619,"o":"m 22 -278 l 22 -240 l 132 -240 q 203 -208 178 -240 q 247 -133 229 -176 l 318 33 l 576 656 l 619 656 l 289 -133 q 255 -203 275 -169 q 205 -257 235 -236 q 132 -278 175 -278 l 22 -278 m 311 -18 l 29 656 l 72 656 l 335 29 l 311 -18 m 436 826 l 436 943 l 475 943 l 475 826 l 436 826 m 175 826 l 175 943 l 214 943 l 214 826 l 175 826 z "},"ỳ":{"ha":649,"x_min":22,"x_max":619,"o":"m 22 -278 l 22 -240 l 132 -240 q 203 -208 178 -240 q 247 -133 229 -176 l 318 33 l 576 656 l 619 656 l 289 -133 q 255 -203 275 -169 q 205 -257 235 -236 q 132 -278 175 -278 l 22 -278 m 311 -18 l 29 656 l 72 656 l 335 29 l 311 -18 m 303 790 l 172 975 l 226 975 l 347 790 l 303 790 z "},"z":{"ha":569,"x_min":51,"x_max":515,"o":"m 51 0 l 51 36 l 474 628 l 481 617 l 56 617 l 56 656 l 514 656 l 514 618 l 90 28 l 85 38 l 515 38 l 515 0 l 51 0 z "},"ź":{"ha":569,"x_min":51,"x_max":515,"o":"m 51 0 l 51 36 l 474 628 l 481 617 l 56 617 l 56 656 l 514 656 l 514 618 l 90 28 l 85 38 l 515 38 l 515 0 l 51 0 m 260 790 l 381 975 l 435 975 l 304 790 l 260 790 z "},"ž":{"ha":569,"x_min":51,"x_max":515,"o":"m 51 0 l 51 36 l 474 628 l 481 617 l 56 617 l 56 656 l 514 656 l 514 618 l 90 28 l 85 38 l 515 38 l 515 0 l 51 0 m 260 790 l 85 975 l 131 975 l 294 811 l 271 811 l 433 975 l 479 975 l 303 790 l 260 790 z "},"ż":{"ha":569,"x_min":51,"x_max":515,"o":"m 51 0 l 51 36 l 474 628 l 481 617 l 56 617 l 56 656 l 514 656 l 514 618 l 90 28 l 85 38 l 515 38 l 515 0 l 51 0 m 261 819 l 261 949 l 303 949 l 303 819 l 261 819 z "},"ﬁ":{"ha":738,"x_min":26,"x_max":615,"o":"m 575 0 l 575 635 l 593 617 l 26 617 l 26 656 l 615 656 l 615 0 l 575 0 m 160 0 l 160 867 q 202 973 160 932 q 308 1014 244 1014 l 440 1014 l 440 976 l 308 976 q 231 946 261 976 q 200 868 200 915 l 200 0 l 160 0 m 575 819 l 575 949 l 615 949 l 615 819 l 575 819 z "},"ﬂ":{"ha":767,"x_min":26,"x_max":740,"o":"m 160 0 l 160 867 q 202 973 160 932 q 308 1014 244 1014 l 413 1014 l 413 976 l 308 976 q 231 946 261 976 q 200 868 200 915 l 200 0 l 160 0 m 26 617 l 26 656 l 565 656 l 565 617 l 26 617 m 688 0 q 583 41 624 0 q 542 146 542 82 l 542 1014 l 581 1014 l 581 146 q 611 68 581 99 q 689 38 642 38 l 740 38 l 740 0 l 688 0 z "},"ª":{"ha":543,"x_min":79,"x_max":440,"o":"m 407 510 l 406 663 l 401 671 l 401 813 q 366 915 401 883 q 269 947 331 947 q 190 933 233 947 q 118 885 147 919 l 99 911 q 176 965 129 947 q 271 982 224 982 q 392 940 347 982 q 438 814 438 899 l 438 667 q 438 577 438 617 q 440 510 439 538 l 407 510 m 257 500 q 128 537 176 500 q 79 633 79 574 q 128 730 79 693 q 258 767 176 767 q 384 731 340 767 q 428 636 428 694 l 421 636 q 380 538 421 575 q 257 500 339 500 m 263 532 q 366 561 331 532 q 401 633 401 590 q 365 707 401 679 q 263 735 329 735 q 156 707 194 735 q 118 633 118 679 q 156 561 118 590 q 263 532 194 532 z "},"º":{"ha":592,"x_min":75,"x_max":515,"o":"m 296 500 q 182 531 232 500 q 103 615 132 561 q 75 739 75 669 l 75 749 q 103 869 75 817 q 182 952 132 922 q 296 982 232 982 q 409 952 360 982 q 487 870 458 922 q 515 750 515 818 l 515 739 q 487 615 515 669 q 409 531 458 561 q 296 500 360 500 m 296 535 q 427 592 376 535 q 478 739 478 649 l 478 750 q 427 892 478 838 q 296 947 376 947 q 164 892 215 947 q 113 749 113 836 l 113 739 q 164 592 113 650 q 296 535 215 535 z "},"⁄":{"ha":229,"x_min":-222,"x_max":451,"o":"m -222 0 l 82 469 l 408 972 l 451 972 l 114 453 l -179 0 l -222 0 z "},"½":{"ha":1257,"x_min":74,"x_max":1189,"o":"m 240 404 l 240 878 q 224 921 240 904 q 182 938 208 938 l 79 938 l 79 972 l 189 972 q 253 948 229 972 q 278 885 278 924 l 278 404 l 240 404 m 74 389 l 74 422 l 444 422 l 444 389 l 74 389 m 299 0 l 603 469 l 929 972 l 972 972 l 635 453 l 342 0 l 299 0 m 815 0 l 815 28 l 1040 257 q 1113 351 1096 313 q 1129 421 1129 389 q 1092 522 1129 486 q 994 558 1056 558 q 910 534 950 558 q 842 465 869 510 l 817 489 q 894 565 847 538 q 994 592 942 592 q 1087 571 1049 592 q 1146 513 1125 550 q 1167 424 1167 475 q 1148 341 1167 385 q 1068 235 1129 297 l 861 26 l 858 35 l 1189 35 l 1189 0 l 815 0 z "},"⅓":{"ha":1244,"x_min":65,"x_max":1182,"o":"m 232 404 l 232 878 q 216 921 232 904 q 174 938 200 938 l 71 938 l 71 972 l 181 972 q 245 948 221 972 q 269 885 269 924 l 269 404 l 232 404 m 65 389 l 65 422 l 436 422 l 436 389 l 65 389 m 290 0 l 594 469 l 921 972 l 964 972 l 626 453 l 333 0 l 290 0 m 983 -8 q 873 13 917 -8 q 801 60 829 33 l 824 85 q 886 43 847 63 q 985 24 925 24 q 1100 60 1054 24 q 1146 153 1146 96 q 1101 244 1146 210 q 978 278 1056 278 l 899 278 l 899 313 l 976 313 q 1089 350 1049 313 q 1129 440 1129 388 q 1088 527 1129 496 q 982 558 1047 558 q 898 543 935 558 q 840 507 861 528 l 821 533 q 883 573 842 554 q 983 592 924 592 q 1114 552 1063 592 q 1165 443 1165 513 q 1117 333 1165 379 q 979 288 1068 288 l 979 306 q 1130 261 1078 306 q 1182 151 1182 217 q 1157 68 1182 104 q 1087 12 1132 32 q 983 -8 1042 -8 z "},"⅔":{"ha":1243,"x_min":67,"x_max":1182,"o":"m 67 389 l 67 415 l 292 644 q 364 739 347 701 q 381 810 381 776 q 344 910 381 875 q 244 946 307 946 q 160 922 200 946 q 93 853 121 897 l 68 876 q 146 953 99 925 q 246 981 193 981 q 338 960 300 981 q 397 901 376 939 q 418 811 418 863 q 399 730 418 774 q 318 624 381 686 l 113 414 l 110 422 l 440 422 l 440 389 l 67 389 m 290 0 l 594 469 l 921 972 l 964 972 l 626 453 l 333 0 l 290 0 m 983 -8 q 873 13 917 -8 q 801 60 829 33 l 824 85 q 886 43 847 63 q 985 24 925 24 q 1100 60 1054 24 q 1146 153 1146 96 q 1101 244 1146 210 q 978 278 1056 278 l 899 278 l 899 313 l 976 313 q 1089 350 1049 313 q 1129 440 1129 388 q 1088 527 1129 496 q 982 558 1047 558 q 898 543 935 558 q 840 507 861 528 l 821 533 q 883 573 842 554 q 983 592 924 592 q 1114 552 1063 592 q 1165 443 1165 513 q 1117 333 1165 379 q 979 288 1068 288 l 979 306 q 1130 261 1078 306 q 1182 151 1182 217 q 1157 68 1182 104 q 1087 12 1132 32 q 983 -8 1042 -8 z "},"¼":{"ha":1169,"x_min":65,"x_max":1133,"o":"m 232 404 l 232 878 q 216 921 232 904 q 174 938 200 938 l 71 938 l 71 972 l 181 972 q 245 948 221 972 q 269 885 269 924 l 269 404 l 232 404 m 65 389 l 65 422 l 436 422 l 436 389 l 65 389 m 290 0 l 594 469 l 921 972 l 964 972 l 626 453 l 333 0 l 290 0 m 717 154 l 717 185 l 929 583 l 968 583 l 754 178 l 746 186 l 1133 186 l 1133 154 l 717 154 m 993 0 l 993 356 l 1031 356 l 1031 0 l 993 0 z "},"¾":{"ha":1144,"x_min":54,"x_max":1108,"o":"m 238 381 q 126 401 171 381 q 54 447 82 421 l 78 472 q 140 431 101 450 q 239 413 178 413 q 353 449 308 413 q 399 542 399 485 q 354 633 399 599 q 232 667 310 667 l 151 667 l 151 700 l 231 700 q 343 738 303 700 q 383 828 383 776 q 342 915 383 883 q 236 947 301 947 q 152 931 189 947 q 94 894 115 915 l 75 921 q 137 961 96 942 q 238 981 178 981 q 368 941 317 981 q 419 832 419 901 q 370 721 419 767 q 232 675 321 675 l 232 693 q 383 649 332 693 q 435 540 435 606 q 410 457 435 493 q 340 401 385 421 q 238 381 296 381 m 265 0 l 569 469 l 896 972 l 939 972 l 601 453 l 308 0 l 265 0 m 692 154 l 692 185 l 904 583 l 943 583 l 729 178 l 721 186 l 1108 186 l 1108 154 l 692 154 m 968 0 l 968 356 l 1006 356 l 1006 0 l 968 0 z "},"⅕":{"ha":1235,"x_min":65,"x_max":1167,"o":"m 232 404 l 232 878 q 216 921 232 904 q 174 938 200 938 l 71 938 l 71 972 l 181 972 q 245 948 221 972 q 269 885 269 924 l 269 404 l 232 404 m 65 389 l 65 422 l 436 422 l 436 389 l 65 389 m 290 0 l 594 469 l 921 972 l 964 972 l 626 453 l 333 0 l 290 0 m 961 -8 q 859 11 906 -8 q 783 60 813 31 l 807 85 q 872 42 831 60 q 964 24 913 24 q 1086 67 1040 24 q 1132 183 1132 110 q 1095 290 1132 249 q 989 332 1058 332 q 900 306 938 332 q 849 235 863 279 l 815 235 l 828 507 q 858 566 831 549 q 911 583 886 583 l 1138 583 l 1138 550 l 917 550 q 878 535 893 550 q 863 503 864 521 l 850 268 l 840 269 q 897 337 857 310 q 997 364 938 364 q 1122 314 1078 364 q 1167 186 1167 264 q 1110 44 1167 96 q 961 -8 1053 -8 z "},"⅖":{"ha":1233,"x_min":67,"x_max":1167,"o":"m 67 389 l 67 415 l 292 644 q 364 739 347 701 q 381 810 381 776 q 344 910 381 875 q 244 946 307 946 q 160 922 200 946 q 93 853 121 897 l 68 876 q 146 953 99 925 q 246 981 193 981 q 338 960 300 981 q 397 901 376 939 q 418 811 418 863 q 399 730 418 774 q 318 624 381 686 l 113 414 l 110 422 l 440 422 l 440 389 l 67 389 m 290 0 l 594 469 l 921 972 l 964 972 l 626 453 l 333 0 l 290 0 m 961 -8 q 859 11 906 -8 q 783 60 813 31 l 807 85 q 872 42 831 60 q 964 24 913 24 q 1086 67 1040 24 q 1132 183 1132 110 q 1095 290 1132 249 q 989 332 1058 332 q 900 306 938 332 q 849 235 863 279 l 815 235 l 828 507 q 858 566 831 549 q 911 583 886 583 l 1138 583 l 1138 550 l 917 550 q 878 535 893 550 q 863 503 864 521 l 850 268 l 840 269 q 897 337 857 310 q 997 364 938 364 q 1122 314 1078 364 q 1167 186 1167 264 q 1110 44 1167 96 q 961 -8 1053 -8 z "},"⅗":{"ha":1210,"x_min":54,"x_max":1142,"o":"m 238 381 q 126 401 171 381 q 54 447 82 421 l 78 472 q 140 431 101 450 q 239 413 178 413 q 353 449 308 413 q 399 542 399 485 q 354 633 399 599 q 232 667 310 667 l 151 667 l 151 700 l 231 700 q 343 738 303 700 q 383 828 383 776 q 342 915 383 883 q 236 947 301 947 q 152 931 189 947 q 94 894 115 915 l 75 921 q 137 961 96 942 q 238 981 178 981 q 368 941 317 981 q 419 832 419 901 q 370 721 419 767 q 232 675 321 675 l 232 693 q 383 649 332 693 q 435 540 435 606 q 410 457 435 493 q 340 401 385 421 q 238 381 296 381 m 265 0 l 569 469 l 896 972 l 939 972 l 601 453 l 308 0 l 265 0 m 936 -8 q 834 11 881 -8 q 758 60 788 31 l 782 85 q 847 42 806 60 q 939 24 888 24 q 1061 67 1015 24 q 1107 183 1107 110 q 1070 290 1107 249 q 964 332 1033 332 q 875 306 913 332 q 824 235 838 279 l 790 235 l 803 507 q 833 566 806 549 q 886 583 861 583 l 1113 583 l 1113 550 l 892 550 q 853 535 868 550 q 838 503 839 521 l 825 268 l 815 269 q 872 337 832 310 q 972 364 913 364 q 1097 314 1053 364 q 1142 186 1142 264 q 1085 44 1142 96 q 936 -8 1028 -8 z "},"⅘":{"ha":1239,"x_min":51,"x_max":1164,"o":"m 51 543 l 51 574 l 263 972 l 301 972 l 89 567 l 81 575 l 468 575 l 468 543 l 51 543 m 328 389 l 328 743 l 365 743 l 365 389 l 328 389 m 288 0 l 592 469 l 918 972 l 961 972 l 624 453 l 331 0 l 288 0 m 958 -8 q 856 11 903 -8 q 781 60 810 31 l 804 85 q 869 42 828 60 q 961 24 910 24 q 1083 67 1038 24 q 1129 183 1129 110 q 1092 290 1129 249 q 986 332 1056 332 q 897 306 935 332 q 846 235 860 279 l 813 235 l 825 507 q 856 566 828 549 q 908 583 883 583 l 1135 583 l 1135 550 l 914 550 q 876 535 890 550 q 860 503 861 521 l 847 268 l 838 269 q 894 337 854 310 q 994 364 935 364 q 1119 314 1075 364 q 1164 186 1164 264 q 1107 44 1164 96 q 958 -8 1050 -8 z "},"⅙":{"ha":1143,"x_min":67,"x_max":1092,"o":"m 233 404 l 233 878 q 217 921 233 904 q 175 938 201 938 l 72 938 l 72 972 l 182 972 q 247 948 222 972 q 271 885 271 924 l 271 404 l 233 404 m 67 389 l 67 422 l 438 422 l 438 389 l 67 389 m 290 0 l 594 469 l 921 972 l 964 972 l 626 453 l 333 0 l 290 0 m 899 -8 q 757 44 810 -8 q 704 183 704 96 q 717 257 704 224 q 747 317 729 290 l 938 583 l 983 583 l 796 328 l 785 329 q 843 364 813 354 q 907 374 874 374 q 1040 320 989 374 q 1092 183 1092 267 q 1038 45 1092 99 q 899 -8 985 -8 m 897 25 q 1013 69 968 25 q 1057 183 1057 113 q 1014 297 1057 253 q 901 342 971 342 q 785 297 829 342 q 742 183 742 253 q 785 68 742 111 q 897 25 828 25 z "},"⅚":{"ha":1121,"x_min":57,"x_max":1068,"o":"m 235 381 q 133 399 179 381 q 57 447 86 418 l 79 472 q 145 431 104 449 q 238 413 186 413 q 360 456 314 413 q 406 572 406 499 q 369 678 406 636 q 263 719 332 719 q 174 694 211 719 q 121 624 136 668 l 89 624 l 101 896 q 132 954 104 936 q 185 972 160 972 l 411 972 l 411 939 l 190 939 q 152 924 167 939 q 136 890 138 910 l 124 656 l 114 657 q 169 724 129 697 q 269 751 210 751 q 395 701 350 751 q 440 574 440 651 q 383 433 440 485 q 235 381 326 381 m 268 0 l 572 469 l 899 972 l 942 972 l 604 453 l 311 0 l 268 0 m 875 -8 q 733 44 786 -8 q 681 183 681 96 q 693 257 681 224 q 724 317 706 290 l 914 583 l 960 583 l 772 328 l 761 329 q 819 364 789 354 q 883 374 850 374 q 1017 320 965 374 q 1068 183 1068 267 q 1015 45 1068 99 q 875 -8 961 -8 m 874 25 q 989 69 944 25 q 1033 183 1033 113 q 990 297 1033 253 q 878 342 947 342 q 762 297 806 342 q 718 183 718 253 q 761 68 718 111 q 874 25 804 25 z "},"⅛":{"ha":1231,"x_min":67,"x_max":1172,"o":"m 233 404 l 233 878 q 217 921 233 904 q 175 938 201 938 l 72 938 l 72 972 l 182 972 q 247 948 222 972 q 271 885 271 924 l 271 404 l 233 404 m 67 389 l 67 422 l 438 422 l 438 389 l 67 389 m 290 0 l 594 469 l 921 972 l 964 972 l 626 453 l 333 0 l 290 0 m 968 -8 q 822 38 879 -8 q 764 157 764 85 q 819 272 764 228 q 958 315 874 315 l 958 299 q 835 340 882 299 q 789 444 789 381 q 838 551 789 510 q 968 592 888 592 q 1099 551 1050 592 q 1149 444 1149 510 q 1102 340 1149 381 q 979 299 1056 299 l 979 315 q 1118 272 1064 315 q 1172 157 1172 228 q 1115 38 1172 85 q 968 -8 1058 -8 m 968 25 q 1088 63 1042 25 q 1135 160 1135 100 q 1088 255 1135 219 q 968 290 1042 290 q 849 256 896 290 q 801 160 801 221 q 849 63 801 100 q 968 25 896 25 m 968 322 q 1073 356 1033 322 q 1113 442 1113 389 q 1073 526 1113 494 q 968 558 1033 558 q 865 526 904 558 q 825 442 825 494 q 865 356 825 389 q 968 322 904 322 z "},"⅜":{"ha":1206,"x_min":54,"x_max":1147,"o":"m 238 381 q 126 401 171 381 q 54 447 82 421 l 78 472 q 140 431 101 450 q 239 413 178 413 q 353 449 308 413 q 399 542 399 485 q 354 633 399 599 q 232 667 310 667 l 151 667 l 151 700 l 231 700 q 343 738 303 700 q 383 828 383 776 q 342 915 383 883 q 236 947 301 947 q 152 931 189 947 q 94 894 115 915 l 75 921 q 137 961 96 942 q 238 981 178 981 q 368 941 317 981 q 419 832 419 901 q 370 721 419 767 q 232 675 321 675 l 232 693 q 383 649 332 693 q 435 540 435 606 q 410 457 435 493 q 340 401 385 421 q 238 381 296 381 m 265 0 l 569 469 l 896 972 l 939 972 l 601 453 l 308 0 l 265 0 m 943 -8 q 797 38 854 -8 q 739 157 739 85 q 794 272 739 228 q 933 315 849 315 l 933 299 q 810 340 857 299 q 764 444 764 381 q 813 551 764 510 q 943 592 863 592 q 1074 551 1025 592 q 1124 444 1124 510 q 1077 340 1124 381 q 954 299 1031 299 l 954 315 q 1093 272 1039 315 q 1147 157 1147 228 q 1090 38 1147 85 q 943 -8 1033 -8 m 943 25 q 1063 63 1017 25 q 1110 160 1110 100 q 1063 255 1110 219 q 943 290 1017 290 q 824 256 871 290 q 776 160 776 221 q 824 63 776 100 q 943 25 871 25 m 943 322 q 1048 356 1008 322 q 1088 442 1088 389 q 1048 526 1088 494 q 943 558 1008 558 q 840 526 879 558 q 800 442 800 494 q 840 356 800 389 q 943 322 879 322 z "},"⅝":{"ha":1208,"x_min":57,"x_max":1149,"o":"m 235 381 q 133 399 179 381 q 57 447 86 418 l 79 472 q 145 431 104 449 q 238 413 186 413 q 360 456 314 413 q 406 572 406 499 q 369 678 406 636 q 263 719 332 719 q 174 694 211 719 q 121 624 136 668 l 89 624 l 101 896 q 132 954 104 936 q 185 972 160 972 l 411 972 l 411 939 l 190 939 q 152 924 167 939 q 136 890 138 910 l 124 656 l 114 657 q 169 724 129 697 q 269 751 210 751 q 395 701 350 751 q 440 574 440 651 q 383 433 440 485 q 235 381 326 381 m 267 0 l 571 469 l 897 972 l 940 972 l 603 453 l 310 0 l 267 0 m 944 -8 q 798 38 856 -8 q 740 157 740 85 q 795 272 740 228 q 935 315 850 315 l 935 299 q 812 340 858 299 q 765 444 765 381 q 815 551 765 510 q 944 592 864 592 q 1076 551 1026 592 q 1125 444 1125 510 q 1078 340 1125 381 q 956 299 1032 299 l 956 315 q 1094 272 1040 315 q 1149 157 1149 228 q 1092 38 1149 85 q 944 -8 1035 -8 m 944 25 q 1065 63 1018 25 q 1111 160 1111 100 q 1065 255 1111 219 q 944 290 1018 290 q 825 256 872 290 q 778 160 778 221 q 825 63 778 100 q 944 25 872 25 m 944 322 q 1049 356 1010 322 q 1089 442 1089 389 q 1049 526 1089 494 q 944 558 1010 558 q 841 526 881 558 q 801 442 801 494 q 841 356 801 389 q 944 322 881 322 z "},"⅞":{"ha":1108,"x_min":53,"x_max":1043,"o":"m 119 389 l 410 950 l 417 939 l 53 939 l 53 972 l 446 972 l 446 947 l 161 389 l 119 389 m 149 0 l 453 469 l 779 972 l 822 972 l 485 453 l 192 0 l 149 0 m 839 -8 q 692 38 750 -8 q 635 157 635 85 q 690 272 635 228 q 829 315 744 315 l 829 299 q 706 340 753 299 q 660 444 660 381 q 709 551 660 510 q 839 592 758 592 q 970 551 921 592 q 1019 444 1019 510 q 973 340 1019 381 q 850 299 926 299 l 850 315 q 989 272 935 315 q 1043 157 1043 228 q 986 38 1043 85 q 839 -8 929 -8 m 839 25 q 959 63 913 25 q 1006 160 1006 100 q 959 255 1006 219 q 839 290 913 290 q 719 256 767 290 q 672 160 672 221 q 719 63 672 100 q 839 25 767 25 m 839 322 q 944 356 904 322 q 983 442 983 389 q 944 526 983 494 q 839 558 904 558 q 735 526 775 558 q 696 442 696 494 q 735 356 696 389 q 839 322 775 322 z "},"₀":{"ha":525,"x_min":57,"x_max":468,"o":"m 261 -258 q 113 -178 168 -258 q 57 42 57 -97 q 113 262 57 182 q 261 342 168 342 q 413 261 357 342 q 468 42 468 181 q 413 -177 468 -96 q 261 -258 357 -258 m 261 -224 q 385 -152 340 -224 q 431 42 431 -81 q 385 237 431 165 q 261 308 340 308 q 140 238 185 308 q 94 42 94 167 q 140 -153 94 -82 q 261 -224 185 -224 z "},"₁":{"ha":422,"x_min":39,"x_max":411,"o":"m 206 -235 l 206 240 q 190 283 206 265 q 147 300 174 300 l 44 300 l 44 333 l 154 333 q 219 309 194 333 q 243 247 243 285 l 243 -235 l 206 -235 m 39 -250 l 39 -215 l 411 -215 l 411 -250 l 39 -250 z "},"₂":{"ha":457,"x_min":42,"x_max":415,"o":"m 42 -250 l 42 -222 l 267 7 q 339 101 322 63 q 356 171 356 139 q 319 272 356 236 q 221 308 282 308 q 136 284 176 308 q 68 215 96 260 l 43 239 q 121 315 74 288 q 221 342 168 342 q 313 321 275 342 q 372 263 351 300 q 393 174 393 225 q 374 91 393 135 q 294 -15 356 47 l 88 -224 l 85 -215 l 415 -215 l 415 -250 l 42 -250 z "},"₃":{"ha":471,"x_min":35,"x_max":415,"o":"m 217 -258 q 106 -237 150 -258 q 35 -190 63 -217 l 57 -165 q 119 -207 81 -187 q 218 -226 158 -226 q 333 -190 288 -226 q 379 -97 379 -154 q 334 -6 379 -40 q 211 28 289 28 l 132 28 l 132 63 l 210 63 q 322 100 282 63 q 363 190 363 138 q 322 277 363 246 q 215 308 281 308 q 131 293 168 308 q 74 257 94 278 l 54 283 q 116 323 75 304 q 217 342 157 342 q 347 302 296 342 q 399 193 399 263 q 350 83 399 129 q 213 38 301 38 l 213 56 q 363 11 311 56 q 415 -99 415 -33 q 390 -182 415 -146 q 320 -238 365 -218 q 217 -258 275 -258 z "},"₄":{"ha":483,"x_min":40,"x_max":457,"o":"m 40 -96 l 40 -65 l 253 333 l 292 333 l 78 -72 l 69 -64 l 457 -64 l 457 -96 l 40 -96 m 317 -250 l 317 106 l 354 106 l 354 -250 l 317 -250 z "},"₅":{"ha":472,"x_min":42,"x_max":425,"o":"m 219 -258 q 117 -239 164 -258 q 42 -190 71 -219 l 65 -165 q 130 -208 89 -190 q 222 -226 171 -226 q 344 -183 299 -226 q 390 -67 390 -140 q 353 40 390 -1 q 247 82 317 82 q 158 56 196 82 q 107 -15 121 29 l 74 -15 l 86 257 q 117 316 89 299 q 169 333 144 333 l 396 333 l 396 300 l 175 300 q 137 285 151 300 q 121 251 122 271 l 108 18 l 99 19 q 156 87 115 60 q 256 114 196 114 q 381 64 336 114 q 425 -64 425 14 q 368 -206 425 -154 q 219 -258 311 -258 z "},"₆":{"ha":475,"x_min":49,"x_max":436,"o":"m 243 -258 q 101 -206 154 -258 q 49 -67 49 -154 q 61 7 49 -26 q 92 67 74 40 l 282 333 l 328 333 l 140 78 l 129 79 q 188 114 157 104 q 251 124 218 124 q 385 70 333 124 q 436 -67 436 17 q 383 -205 436 -151 q 243 -258 329 -258 m 242 -225 q 357 -181 313 -225 q 401 -67 401 -137 q 358 47 401 3 q 246 92 315 92 q 130 47 174 92 q 86 -67 86 3 q 129 -182 86 -139 q 242 -225 172 -225 z "},"₇":{"ha":439,"x_min":21,"x_max":414,"o":"m 21 300 l 21 333 l 414 333 l 414 308 l 129 -250 l 88 -250 l 378 311 l 385 300 l 21 300 z "},"₈":{"ha":514,"x_min":53,"x_max":461,"o":"m 257 -258 q 110 -212 168 -258 q 53 -93 53 -165 q 108 22 53 -22 q 247 65 163 65 l 247 49 q 124 90 171 49 q 78 194 78 131 q 127 301 78 260 q 257 342 176 342 q 388 301 339 342 q 438 194 438 260 q 391 90 438 131 q 268 49 344 49 l 268 65 q 407 22 353 65 q 461 -93 461 -22 q 404 -212 461 -165 q 257 -258 347 -258 m 257 -225 q 377 -187 331 -225 q 424 -90 424 -150 q 377 5 424 -31 q 257 40 331 40 q 138 6 185 40 q 90 -90 90 -29 q 138 -187 90 -150 q 257 -225 185 -225 m 257 72 q 362 106 322 72 q 401 192 401 139 q 362 276 401 244 q 257 308 322 308 q 153 276 193 308 q 114 192 114 244 q 153 106 114 139 q 257 72 193 72 z "},"₉":{"ha":475,"x_min":38,"x_max":426,"o":"m 149 -250 l 335 7 l 344 4 q 288 -30 318 -19 q 225 -40 257 -40 q 90 14 143 -40 q 38 151 38 68 q 92 290 38 238 q 231 342 146 342 q 374 290 321 342 q 426 150 426 238 q 415 78 426 111 q 383 18 403 46 l 193 -250 l 149 -250 m 231 -8 q 347 37 303 -8 q 390 151 390 82 q 347 266 390 224 q 233 308 304 308 q 119 265 164 308 q 75 151 75 221 q 119 37 75 82 q 231 -8 163 -8 z "},"⁰":{"ha":524,"x_min":57,"x_max":467,"o":"m 261 381 q 113 461 168 381 q 57 681 57 542 q 113 900 57 819 q 261 981 168 981 q 412 899 357 981 q 467 681 467 818 q 412 461 467 542 q 261 381 357 381 m 261 414 q 385 485 340 414 q 431 681 431 557 q 385 875 431 804 q 261 946 340 946 q 138 875 183 946 q 93 681 93 804 q 138 485 93 556 q 261 414 183 414 z "},"¹":{"ha":422,"x_min":39,"x_max":410,"o":"m 206 404 l 206 878 q 190 921 206 904 q 147 938 174 938 l 44 938 l 44 972 l 154 972 q 219 948 194 972 q 243 885 243 924 l 243 404 l 206 404 m 39 389 l 39 422 l 410 422 l 410 389 l 39 389 z "},"²":{"ha":457,"x_min":42,"x_max":415,"o":"m 42 389 l 42 415 l 267 644 q 339 739 322 701 q 356 810 356 776 q 319 910 356 875 q 219 946 282 946 q 135 922 175 946 q 68 853 96 897 l 43 876 q 121 953 74 925 q 221 981 168 981 q 313 960 275 981 q 372 901 351 939 q 393 811 393 863 q 374 730 393 774 q 293 624 356 686 l 88 414 l 85 422 l 415 422 l 415 389 l 42 389 z "},"³":{"ha":471,"x_min":33,"x_max":414,"o":"m 217 381 q 106 401 150 381 q 33 447 61 421 l 57 472 q 119 431 81 450 q 218 413 157 413 q 333 449 288 413 q 378 542 378 485 q 333 633 378 599 q 211 667 289 667 l 131 667 l 131 700 l 210 700 q 322 738 282 700 q 363 828 363 776 q 322 915 363 883 q 215 947 281 947 q 131 931 168 947 q 74 894 94 915 l 54 921 q 116 961 75 942 q 217 981 157 981 q 347 941 296 981 q 399 832 399 901 q 349 721 399 767 q 211 675 300 675 l 211 693 q 363 649 311 693 q 414 540 414 606 q 389 457 414 493 q 319 401 364 421 q 217 381 275 381 z "},"⁴":{"ha":483,"x_min":40,"x_max":457,"o":"m 40 543 l 40 574 l 251 972 l 290 972 l 78 567 l 69 575 l 457 575 l 457 543 l 40 543 m 317 389 l 317 743 l 354 743 l 354 389 l 317 389 z "},"⁵":{"ha":472,"x_min":42,"x_max":425,"o":"m 219 381 q 117 399 164 381 q 42 447 71 418 l 64 472 q 130 431 89 449 q 222 413 171 413 q 344 456 299 413 q 390 572 390 499 q 353 678 390 636 q 247 719 317 719 q 158 694 196 719 q 106 624 121 668 l 74 624 l 86 896 q 117 954 89 936 q 169 972 144 972 l 396 972 l 396 939 l 175 939 q 137 924 151 939 q 121 890 122 910 l 108 656 l 99 657 q 154 724 114 697 q 254 751 194 751 q 380 701 335 751 q 425 574 425 651 q 368 433 425 485 q 219 381 311 381 z "},"⁶":{"ha":475,"x_min":49,"x_max":436,"o":"m 243 381 q 101 433 154 381 q 49 572 49 485 q 61 645 49 613 q 92 704 74 678 l 282 972 l 328 972 l 140 715 l 129 718 q 187 752 156 742 q 251 763 218 763 q 385 708 333 763 q 436 571 436 654 q 383 433 436 486 q 243 381 329 381 m 242 414 q 357 458 313 414 q 401 571 401 501 q 358 685 401 640 q 246 731 315 731 q 130 685 174 731 q 86 571 86 640 q 129 456 86 499 q 242 414 172 414 z "},"⁷":{"ha":439,"x_min":21,"x_max":414,"o":"m 88 389 l 378 950 l 385 939 l 21 939 l 21 972 l 414 972 l 414 947 l 129 389 l 88 389 z "},"⁸":{"ha":514,"x_min":53,"x_max":460,"o":"m 257 381 q 110 426 168 381 q 53 544 53 472 q 107 660 53 617 q 247 703 161 703 l 247 688 q 124 728 171 688 q 78 832 78 768 q 127 940 78 899 q 257 981 176 981 q 388 940 339 981 q 438 832 438 899 q 391 728 438 768 q 267 688 344 688 l 267 703 q 406 660 353 703 q 460 544 460 617 q 403 426 460 472 q 257 381 347 381 m 257 414 q 377 451 331 414 q 424 549 424 489 q 377 644 424 608 q 257 679 331 679 q 138 644 185 679 q 90 549 90 608 q 138 451 90 489 q 257 414 185 414 m 257 711 q 362 744 322 711 q 401 829 401 776 q 362 915 401 882 q 257 947 322 947 q 153 915 192 947 q 114 829 114 882 q 153 744 114 776 q 257 711 192 711 z "},"⁹":{"ha":475,"x_min":38,"x_max":426,"o":"m 149 389 l 335 644 l 344 643 q 288 608 318 618 q 225 599 257 599 q 90 652 143 599 q 38 789 38 706 q 92 928 38 875 q 231 981 146 981 q 374 928 321 981 q 426 789 426 876 q 415 717 426 750 q 383 656 403 683 l 193 389 l 149 389 m 231 631 q 347 675 303 631 q 390 789 390 719 q 347 904 390 861 q 233 947 304 947 q 119 903 164 947 q 75 789 75 860 q 119 675 75 719 q 231 631 163 631 z "}," ":{"ha":346,"x_min":0,"x_max":0,"o":""}," ":{"ha":346,"x_min":0,"x_max":0,"o":""}," ":{"ha":833,"x_min":0,"x_max":0,"o":""}," ":{"ha":243,"x_min":0,"x_max":0,"o":""}," ":{"ha":174,"x_min":0,"x_max":0,"o":""}," ":{"ha":58,"x_min":0,"x_max":0,"o":""},"​":{"ha":0,"x_min":0,"x_max":0,"o":""},".":{"ha":243,"x_min":99,"x_max":144,"o":"m 99 0 l 99 78 l 144 78 l 144 0 l 99 0 z "},",":{"ha":225,"x_min":29,"x_max":138,"o":"m 92 0 l 92 78 l 138 78 l 138 -122 q 128 -161 138 -144 q 101 -187 118 -178 q 63 -196 85 -196 l 29 -196 l 29 -165 l 63 -165 q 92 -153 82 -165 q 103 -121 103 -140 l 103 0 l 92 0 z "},":":{"ha":243,"x_min":99,"x_max":144,"o":"m 99 656 l 144 656 l 144 578 l 99 578 l 99 656 m 99 0 l 99 78 l 144 78 l 144 0 l 99 0 z "},";":{"ha":335,"x_min":96,"x_max":204,"o":"m 157 656 l 203 656 l 203 578 l 157 578 l 157 656 m 158 0 l 158 78 l 204 78 l 204 -122 q 194 -161 204 -144 q 168 -187 185 -178 q 129 -196 151 -196 l 96 -196 l 96 -165 l 129 -165 q 159 -153 149 -165 q 169 -121 169 -140 l 169 0 l 158 0 z "},"…":{"ha":733,"x_min":99,"x_max":635,"o":"m 342 0 l 342 78 l 388 78 l 388 0 l 342 0 m 589 0 l 589 78 l 635 78 l 635 0 l 589 0 m 99 0 l 99 78 l 144 78 l 144 0 l 99 0 z "},"!":{"ha":283,"x_min":121,"x_max":163,"o":"m 121 283 l 121 972 l 163 972 l 161 283 l 121 283 m 121 0 l 121 75 l 163 75 l 163 0 l 121 0 z "},"¡":{"ha":275,"x_min":117,"x_max":158,"o":"m 158 411 l 158 -278 l 117 -278 l 118 411 l 158 411 m 158 694 l 158 619 l 117 619 l 117 694 l 158 694 z "},"?":{"ha":589,"x_min":35,"x_max":526,"o":"m 228 283 q 247 394 228 349 q 294 472 265 439 q 357 531 324 504 q 419 588 390 558 q 467 655 449 617 q 486 747 486 693 q 426 892 486 836 q 271 949 367 949 q 151 922 207 949 q 60 846 96 894 l 35 875 q 138 957 76 928 q 274 986 200 986 q 457 919 388 986 q 526 746 526 853 q 508 645 526 686 q 459 574 489 604 q 397 517 429 543 q 334 459 364 490 q 285 386 304 428 q 267 283 267 344 l 228 283 m 225 0 l 225 75 l 267 75 l 267 0 l 225 0 z "},"¿":{"ha":568,"x_min":51,"x_max":543,"o":"m 350 411 q 331 301 350 346 q 283 223 313 256 q 221 163 254 190 q 158 107 188 136 q 110 40 129 78 q 92 -53 92 1 q 151 -198 92 -142 q 307 -254 211 -254 q 427 -226 372 -254 q 518 -151 482 -199 l 543 -181 q 440 -262 501 -233 q 304 -292 378 -292 q 121 -225 190 -292 q 51 -51 51 -158 q 70 49 51 8 q 119 121 89 90 q 181 178 149 151 q 244 235 214 204 q 292 308 274 267 q 311 411 311 350 l 350 411 m 353 694 l 353 619 l 311 619 l 311 694 l 353 694 z "},"·":{"ha":243,"x_min":99,"x_max":144,"o":"m 99 335 l 99 413 l 144 413 l 144 335 l 99 335 z "},"•":{"ha":439,"x_min":132,"x_max":307,"o":"m 218 325 q 174 336 194 325 q 143 367 154 347 q 132 413 132 388 q 143 457 132 438 q 174 488 154 476 q 218 500 194 500 q 263 488 243 500 q 295 457 283 476 q 307 413 307 438 q 295 367 307 388 q 263 336 283 347 q 218 325 243 325 z "},"*":{"ha":644,"x_min":88,"x_max":556,"o":"m 304 442 l 304 679 l 107 556 l 88 583 l 290 710 l 88 836 l 107 867 l 304 740 l 304 972 l 339 972 l 339 740 l 536 865 l 556 836 l 353 710 l 556 583 l 536 554 l 339 679 l 339 442 l 304 442 z "},"#":{"ha":1046,"x_min":51,"x_max":994,"o":"m 215 0 l 388 972 l 425 972 l 253 0 l 215 0 m 51 265 l 57 299 l 921 299 l 915 265 l 51 265 m 629 0 l 801 972 l 838 972 l 667 0 l 629 0 m 125 681 l 131 713 l 994 713 l 989 681 l 125 681 z "},"/":{"ha":626,"x_min":18,"x_max":606,"o":"m 18 -200 l 563 1054 l 606 1054 l 58 -200 l 18 -200 z "},"\\":{"ha":625,"x_min":21,"x_max":607,"o":"m 567 -200 l 21 1054 l 61 1054 l 607 -200 l 567 -200 z "},"-":{"ha":589,"x_min":76,"x_max":511,"o":"m 76 369 l 76 410 l 511 410 l 511 369 l 76 369 z "},"­":{"ha":0,"x_min":0,"x_max":0,"o":""},"–":{"ha":717,"x_min":81,"x_max":636,"o":"m 81 369 l 81 408 l 636 408 l 636 369 l 81 369 z "},"—":{"ha":1411,"x_min":81,"x_max":1331,"o":"m 81 369 l 81 408 l 1331 408 l 1331 369 l 81 369 z "},"_":{"ha":649,"x_min":46,"x_max":601,"o":"m 46 -278 l 46 -240 l 601 -240 l 601 -278 l 46 -278 z "},"(":{"ha":374,"x_min":76,"x_max":356,"o":"m 356 -200 l 310 -200 q 139 76 201 -89 q 76 428 76 242 q 139 779 76 615 q 310 1054 201 943 l 356 1054 q 182 784 247 944 q 117 428 117 624 q 182 71 117 232 q 356 -200 247 -90 z "},")":{"ha":374,"x_min":18,"x_max":297,"o":"m 18 1054 l 64 1054 q 235 778 172 943 q 297 426 297 613 q 235 75 297 239 q 64 -200 172 -89 l 18 -200 q 192 70 126 -90 q 257 426 257 231 q 192 783 257 622 q 18 1054 126 944 z "},"{":{"ha":454,"x_min":47,"x_max":419,"o":"m 326 -200 q 228 -180 265 -200 q 176 -117 192 -160 q 161 -10 161 -75 l 161 333 q 144 391 161 372 q 86 410 128 410 l 47 410 l 47 447 l 86 447 q 144 467 128 447 q 161 525 161 486 l 161 865 q 176 972 161 931 q 228 1034 192 1014 q 326 1054 265 1054 l 419 1054 l 419 1019 l 331 1019 q 228 983 256 1019 q 200 865 200 947 l 200 526 q 190 465 200 489 q 156 430 179 442 q 89 418 132 418 l 89 440 q 156 428 132 440 q 190 393 179 417 q 200 332 200 369 l 200 -10 q 228 -128 200 -92 q 331 -165 256 -165 l 419 -165 l 419 -200 l 326 -200 z "},"}":{"ha":454,"x_min":35,"x_max":407,"o":"m 128 1054 q 226 1034 190 1054 q 278 972 263 1014 q 293 864 293 929 l 293 521 q 310 463 293 482 q 368 444 326 444 l 407 444 l 407 407 l 368 407 q 310 388 326 407 q 293 329 293 368 l 293 -11 q 278 -117 293 -75 q 226 -180 263 -160 q 128 -200 190 -200 l 35 -200 l 35 -165 l 124 -165 q 226 -129 199 -165 q 254 -11 254 -93 l 254 328 q 265 390 254 365 q 299 425 275 414 q 365 436 324 436 l 365 414 q 299 426 324 414 q 265 462 275 438 q 254 522 254 486 l 254 864 q 226 983 254 946 q 124 1019 199 1019 l 35 1019 l 35 1054 l 128 1054 z "},"[":{"ha":435,"x_min":131,"x_max":400,"o":"m 131 -200 l 131 1054 l 400 1054 l 400 1022 l 167 1022 l 167 -168 l 400 -168 l 400 -200 l 131 -200 z "},"]":{"ha":435,"x_min":35,"x_max":304,"o":"m 304 1054 l 304 -200 l 35 -200 l 35 -168 l 268 -168 l 268 1022 l 35 1022 l 35 1054 l 304 1054 z "},"‚":{"ha":225,"x_min":29,"x_max":138,"o":"m 92 0 l 92 78 l 138 78 l 138 -122 q 128 -161 138 -144 q 101 -187 118 -178 q 63 -196 85 -196 l 29 -196 l 29 -165 l 63 -165 q 92 -153 82 -165 q 103 -121 103 -140 l 103 0 l 92 0 z "},"„":{"ha":415,"x_min":29,"x_max":328,"o":"m 282 0 l 282 78 l 328 78 l 328 -122 q 318 -161 328 -144 q 291 -187 308 -178 q 253 -196 274 -196 l 219 -196 l 219 -165 l 253 -165 q 283 -153 272 -165 q 293 -121 293 -140 l 293 0 l 282 0 m 92 0 l 92 78 l 138 78 l 138 -122 q 128 -161 138 -144 q 101 -187 118 -178 q 63 -196 83 -196 l 29 -196 l 29 -165 l 63 -165 q 92 -153 82 -165 q 103 -121 103 -140 l 103 0 l 92 0 z "},"“":{"ha":461,"x_min":99,"x_max":397,"o":"m 144 778 l 144 700 l 99 700 l 99 900 q 108 939 99 922 q 135 965 118 956 q 174 974 153 974 l 207 974 l 207 943 l 174 943 q 144 931 154 943 q 133 899 133 918 l 133 778 l 144 778 m 335 778 l 335 700 l 289 700 l 289 900 q 299 939 289 922 q 326 965 308 956 q 364 974 343 974 l 397 974 l 397 943 l 364 943 q 334 931 344 943 q 324 899 324 918 l 324 778 l 335 778 z "},"”":{"ha":476,"x_min":85,"x_max":383,"o":"m 338 897 l 338 975 l 383 975 l 383 775 q 374 736 383 753 q 347 710 364 719 q 308 701 329 701 l 275 701 l 275 732 l 308 732 q 338 744 328 732 q 349 776 349 757 l 349 897 l 338 897 m 147 897 l 147 975 l 193 975 l 193 775 q 183 736 193 753 q 156 710 174 719 q 118 701 139 701 l 85 701 l 85 732 l 118 732 q 148 744 138 732 q 158 776 158 757 l 158 897 l 147 897 z "},"‘":{"ha":271,"x_min":99,"x_max":207,"o":"m 144 776 l 144 699 l 99 699 l 99 899 q 108 938 99 921 q 135 963 118 954 q 174 972 153 972 l 207 972 l 207 942 l 174 942 q 144 929 154 942 q 133 897 133 917 l 133 776 l 144 776 z "},"’":{"ha":286,"x_min":85,"x_max":193,"o":"m 147 897 l 147 975 l 193 975 l 193 775 q 183 736 193 753 q 157 710 174 719 q 118 701 140 701 l 85 701 l 85 732 l 118 732 q 148 744 138 732 q 158 776 158 757 l 158 897 l 147 897 z "},"«":{"ha":582,"x_min":74,"x_max":496,"o":"m 454 133 l 288 378 l 454 621 l 496 621 l 322 363 l 322 392 l 496 133 l 454 133 m 240 133 l 74 378 l 240 621 l 282 621 l 108 363 l 108 392 l 282 133 l 240 133 z "},"»":{"ha":582,"x_min":86,"x_max":508,"o":"m 128 621 l 294 376 l 128 133 l 86 133 l 260 392 l 260 363 l 86 621 l 128 621 m 342 621 l 508 376 l 342 133 l 300 133 l 474 392 l 474 363 l 300 621 l 342 621 z "},"‹":{"ha":383,"x_min":74,"x_max":294,"o":"m 253 133 l 74 378 l 253 621 l 294 621 l 108 363 l 108 392 l 294 133 l 253 133 z "},"›":{"ha":383,"x_min":89,"x_max":310,"o":"m 131 621 l 310 376 l 131 133 l 89 133 l 275 392 l 275 363 l 89 621 l 131 621 z "},"\"":{"ha":433,"x_min":103,"x_max":331,"o":"m 292 697 l 292 972 l 331 972 l 331 697 l 292 697 m 103 697 l 103 972 l 142 972 l 142 697 l 103 697 z "},"'":{"ha":244,"x_min":103,"x_max":142,"o":"m 103 697 l 103 972 l 142 972 l 142 697 l 103 697 z "},"ƒ":{"ha":833,"x_min":82,"x_max":726,"o":"m 154 0 l 82 0 l 82 38 l 156 38 q 258 58 211 38 q 334 124 304 78 q 368 247 364 169 l 400 724 q 442 868 407 814 q 532 947 476 922 q 656 972 588 972 l 726 972 l 726 935 l 653 935 q 552 915 599 935 q 476 849 506 894 q 440 724 446 803 l 408 249 q 367 105 403 160 q 277 25 332 50 q 154 0 222 0 m 142 494 l 142 532 l 725 532 l 725 494 l 142 494 z "},"❛":{"ha":749,"x_min":131,"x_max":647,"o":"m 131 0 l 131 646 q 174 815 131 742 q 294 931 218 889 q 471 972 371 972 l 647 972 l 647 933 l 469 933 q 315 897 382 933 q 209 795 247 860 q 171 647 171 731 l 171 499 l 647 499 l 647 0 l 131 0 z "},"❜":{"ha":747,"x_min":101,"x_max":618,"o":"m 618 972 l 618 326 q 575 157 618 231 q 455 42 532 83 q 278 0 378 0 l 101 0 l 101 39 l 279 39 q 434 76 367 39 q 540 177 501 113 q 578 325 578 242 l 578 474 l 101 474 l 101 972 l 618 972 z "},"❝":{"ha":1346,"x_min":131,"x_max":1244,"o":"m 131 0 l 131 646 q 174 815 131 742 q 294 931 218 889 q 471 972 371 972 l 647 972 l 647 933 l 469 933 q 315 897 382 933 q 209 795 247 860 q 171 647 171 731 l 171 499 l 647 499 l 647 0 l 131 0 m 728 0 l 728 646 q 772 815 728 742 q 892 931 815 889 q 1068 972 968 972 l 1244 972 l 1244 933 l 1067 933 q 912 897 979 933 q 806 795 844 860 q 768 647 768 731 l 768 499 l 1244 499 l 1244 0 l 728 0 z "},"❞":{"ha":1344,"x_min":101,"x_max":1215,"o":"m 1215 972 l 1215 326 q 1172 157 1215 231 q 1052 42 1129 83 q 875 0 975 0 l 699 0 l 699 39 l 876 39 q 1031 76 964 39 q 1137 177 1099 113 q 1175 325 1175 242 l 1175 474 l 699 474 l 699 972 l 1215 972 m 618 972 l 618 326 q 575 157 618 231 q 455 42 532 83 q 278 0 378 0 l 101 0 l 101 39 l 279 39 q 434 76 367 39 q 540 177 501 113 q 578 325 578 242 l 578 474 l 101 474 l 101 972 l 618 972 z "},"@":{"ha":1246,"x_min":75,"x_max":1165,"o":"m 626 -206 q 405 -165 506 -206 q 230 -47 304 -124 q 115 136 156 29 q 75 374 75 243 q 115 610 75 503 q 230 793 156 717 q 406 911 304 869 q 632 953 508 953 q 849 914 751 953 q 1018 803 947 875 q 1127 634 1089 732 q 1165 419 1165 536 q 1139 248 1165 319 q 1067 138 1113 176 q 961 99 1021 99 q 854 141 899 99 q 800 251 810 183 l 807 250 q 731 139 783 181 q 601 97 678 97 q 478 131 532 97 q 394 224 425 164 q 364 364 364 285 q 394 503 364 443 q 478 596 425 563 q 600 629 532 629 q 726 591 674 629 q 803 488 778 553 l 797 482 l 797 618 l 833 618 l 833 283 q 872 176 833 217 q 963 135 910 135 q 1081 209 1033 135 q 1129 415 1129 283 q 1067 676 1129 563 q 894 853 1006 789 q 632 918 782 918 q 361 850 479 918 q 177 659 243 782 q 111 374 111 536 q 176 89 111 211 q 358 -102 242 -33 q 625 -171 474 -171 q 816 -137 731 -171 q 975 -40 901 -104 l 993 -71 q 825 -171 915 -136 q 626 -206 735 -206 m 600 132 q 744 195 689 132 q 799 364 799 258 q 744 531 799 468 q 600 594 689 594 q 455 530 510 594 q 400 364 400 465 q 456 197 400 261 q 600 132 511 132 z "},"&":{"ha":940,"x_min":75,"x_max":883,"o":"m 825 0 l 385 410 q 245 553 296 493 q 174 663 194 614 q 153 758 153 711 q 183 876 153 825 q 265 957 213 928 q 386 986 318 986 q 496 963 447 986 q 575 899 544 939 l 543 875 q 476 930 517 911 q 388 949 436 949 q 246 894 300 949 q 192 758 192 840 q 211 672 192 715 q 279 572 231 628 q 414 435 328 515 l 883 0 l 825 0 m 365 -14 q 214 19 279 -14 q 112 110 149 51 q 75 244 75 168 q 106 369 75 317 q 185 457 136 421 q 286 515 233 493 l 313 489 q 217 435 263 468 q 142 356 171 403 q 114 246 114 310 q 147 128 114 178 q 238 51 181 78 q 367 24 294 24 q 519 59 451 24 q 625 158 586 94 q 664 304 664 222 l 664 411 q 673 453 664 436 q 699 480 682 471 q 740 489 717 489 l 881 489 l 881 451 l 743 451 q 713 442 722 451 q 703 410 703 432 l 703 303 q 659 141 703 213 q 539 28 615 69 q 365 -14 463 -14 z "},"¶":{"ha":942,"x_min":40,"x_max":801,"o":"m 511 -278 l 511 282 l 444 282 q 235 319 326 282 q 92 432 144 357 q 40 619 40 507 q 94 817 40 739 q 239 933 147 894 q 444 972 331 972 l 551 972 l 551 -278 l 511 -278 m 761 -278 l 761 972 l 801 972 l 801 -278 l 761 -278 z "},"§":{"ha":739,"x_min":79,"x_max":660,"o":"m 507 133 l 486 161 q 585 233 551 185 q 619 346 619 282 q 593 441 619 406 q 523 497 567 476 q 427 530 479 517 q 322 558 375 543 q 226 594 269 572 q 156 656 182 617 q 129 760 129 696 q 203 924 129 863 q 404 986 278 986 q 531 965 474 986 q 626 906 588 943 l 600 876 q 514 931 565 913 q 403 949 463 949 q 231 897 293 949 q 168 760 168 846 q 194 669 168 703 q 265 617 221 636 q 361 586 308 599 q 467 559 414 574 q 563 522 519 544 q 633 457 607 499 q 660 349 660 415 q 619 217 660 272 q 507 133 578 161 m 335 -235 q 209 -213 267 -235 q 113 -154 151 -192 l 139 -124 q 225 -178 174 -160 q 336 -197 276 -197 q 508 -146 446 -197 q 571 -8 571 -94 q 544 82 571 49 q 474 134 518 115 q 378 166 431 153 q 272 193 325 179 q 176 231 219 207 q 106 296 132 254 q 79 404 79 338 q 120 537 79 482 q 232 618 161 592 l 253 590 q 154 519 189 567 q 119 406 119 471 q 146 310 119 346 q 216 255 172 275 q 313 222 260 235 q 417 194 365 208 q 513 158 469 181 q 583 96 557 135 q 610 -7 610 57 q 536 -172 610 -110 q 335 -235 463 -235 z "},"©":{"ha":1242,"x_min":88,"x_max":1154,"o":"m 622 -46 q 408 -4 506 -46 q 239 110 311 38 q 127 280 167 183 q 88 486 88 376 q 127 693 88 597 q 239 863 167 789 q 408 977 311 936 q 622 1018 506 1018 q 834 977 738 1018 q 1003 863 931 936 q 1115 693 1075 789 q 1154 486 1154 597 q 1115 280 1154 376 q 1003 110 1075 183 q 834 -4 931 38 q 622 -46 738 -46 m 639 194 q 492 231 557 194 q 388 331 426 267 q 350 478 350 394 l 350 494 q 388 642 350 578 q 492 742 426 706 q 639 778 558 778 q 744 759 696 778 q 828 703 792 740 l 803 676 q 733 723 772 706 q 639 740 693 740 q 513 709 569 740 q 422 622 456 678 q 389 494 389 567 l 389 478 q 422 350 389 406 q 513 263 456 294 q 639 232 569 232 q 732 249 692 232 q 803 296 772 265 l 828 269 q 744 213 792 231 q 639 194 696 194 m 622 -10 q 819 28 729 -10 q 976 135 910 67 q 1078 293 1042 203 q 1115 486 1115 383 q 1078 679 1115 589 q 976 838 1042 769 q 819 944 910 906 q 622 982 729 982 q 423 944 514 982 q 265 838 332 906 q 163 679 199 769 q 126 486 126 589 q 163 293 126 383 q 265 135 199 203 q 423 28 332 67 q 622 -10 514 -10 z "},"®":{"ha":788,"x_min":86,"x_max":703,"o":"m 394 407 q 238 446 308 407 q 127 555 168 485 q 86 718 86 625 q 127 881 86 811 q 238 989 168 950 q 394 1028 308 1028 q 550 989 481 1028 q 661 881 619 950 q 703 718 703 811 q 661 555 703 625 q 550 446 619 485 q 394 407 481 407 m 394 436 q 534 471 471 436 q 635 569 597 506 q 674 718 674 633 q 635 866 674 803 q 534 965 597 929 q 394 1000 471 1000 q 254 965 318 1000 q 152 866 190 929 q 114 718 114 803 q 152 569 114 633 q 254 471 190 506 q 394 436 318 436 m 482 567 l 393 703 l 426 703 l 517 567 l 482 567 m 304 567 l 304 876 l 399 876 q 478 852 447 876 q 508 785 508 828 q 478 712 508 738 q 399 686 447 686 l 318 686 l 318 711 l 397 711 q 456 730 433 711 q 478 783 478 749 q 456 833 478 817 q 397 849 433 849 l 319 849 l 333 861 l 333 567 l 304 567 z "},"℗":{"ha":1242,"x_min":88,"x_max":1154,"o":"m 472 194 l 472 758 l 646 758 q 790 714 735 758 q 844 585 844 669 q 790 458 844 503 q 646 414 735 414 l 492 414 l 492 447 l 644 447 q 763 483 718 447 q 808 585 808 518 q 763 690 808 654 q 644 725 717 725 l 494 725 l 508 740 l 508 194 l 472 194 m 622 -46 q 408 -4 506 -46 q 239 110 311 38 q 127 280 167 183 q 88 486 88 376 q 127 693 88 597 q 239 863 167 789 q 408 977 311 936 q 622 1018 506 1018 q 834 977 738 1018 q 1003 863 931 936 q 1115 693 1075 789 q 1154 486 1154 597 q 1115 280 1154 376 q 1003 110 1075 183 q 834 -4 931 38 q 622 -46 738 -46 m 622 -10 q 819 28 729 -10 q 976 135 910 67 q 1078 293 1042 203 q 1115 486 1115 383 q 1078 679 1115 589 q 976 838 1042 769 q 819 944 910 906 q 622 982 729 982 q 423 944 514 982 q 265 838 332 906 q 163 679 199 769 q 126 486 126 589 q 163 293 126 383 q 265 135 199 203 q 423 28 332 67 q 622 -10 514 -10 z "},"™":{"ha":988,"x_min":46,"x_max":871,"o":"m 204 535 l 204 958 l 239 958 l 239 535 l 204 535 m 46 940 l 46 972 l 397 972 l 397 940 l 46 940 m 467 535 l 467 972 l 511 972 l 675 663 l 663 663 l 824 972 l 871 972 l 871 535 l 836 535 l 836 947 l 846 946 l 682 632 l 653 632 l 492 946 l 501 947 l 501 535 l 467 535 z "},"°":{"ha":610,"x_min":89,"x_max":521,"o":"m 304 547 q 192 575 240 547 q 116 652 143 603 q 89 767 89 701 q 116 883 89 833 q 192 959 143 932 q 304 986 240 986 q 417 959 368 986 q 493 883 465 932 q 521 767 521 833 q 493 652 521 701 q 417 575 465 603 q 304 547 368 547 m 304 581 q 434 631 383 581 q 485 767 485 682 q 434 903 485 851 q 304 954 383 954 q 174 903 225 954 q 124 767 124 851 q 175 631 124 682 q 304 581 226 581 z "},"|":{"ha":319,"x_min":140,"x_max":179,"o":"m 140 -200 l 140 1054 l 179 1054 l 179 -200 l 140 -200 z "},"¦":{"ha":319,"x_min":143,"x_max":182,"o":"m 143 500 l 143 1054 l 182 1054 l 182 500 l 143 500 m 143 -200 l 143 354 l 182 354 l 182 -200 l 143 -200 z "},"†":{"ha":518,"x_min":61,"x_max":458,"o":"m 240 367 l 240 972 l 278 972 l 278 367 l 240 367 m 61 756 l 61 793 l 458 793 l 458 756 l 61 756 z "},"‡":{"ha":575,"x_min":89,"x_max":486,"o":"m 268 367 l 268 972 l 306 972 l 306 367 l 268 367 m 89 546 l 89 582 l 486 582 l 486 546 l 89 546 m 89 757 l 89 793 l 486 793 l 486 757 l 89 757 z "},"№":{"ha":1535,"x_min":140,"x_max":1461,"o":"m 1036 346 l 1036 382 l 1446 382 l 1446 346 l 1036 346 m 140 0 l 140 972 l 185 972 l 771 46 l 761 42 l 761 972 l 801 972 l 801 0 l 754 0 l 169 926 l 181 929 l 181 0 l 140 0 m 1242 500 q 1128 531 1178 500 q 1049 615 1078 561 q 1021 739 1021 669 l 1021 749 q 1049 869 1021 817 q 1128 952 1078 922 q 1242 982 1178 982 q 1355 952 1306 982 q 1433 870 1404 922 q 1461 750 1461 818 l 1461 739 q 1433 615 1461 669 q 1355 531 1404 561 q 1242 500 1306 500 m 1242 535 q 1373 592 1322 535 q 1424 739 1424 649 l 1424 750 q 1373 892 1424 838 q 1242 947 1322 947 q 1110 892 1161 947 q 1058 749 1058 836 l 1058 739 q 1110 592 1058 650 q 1242 535 1161 535 z "},"¢":{"ha":833,"x_min":150,"x_max":699,"o":"m 478 144 q 308 187 382 144 q 192 304 233 229 q 150 476 150 379 l 150 496 q 192 668 150 593 q 308 785 233 743 q 478 828 382 828 q 602 806 547 828 q 699 740 657 783 l 672 713 q 587 769 635 749 q 476 789 539 789 q 328 751 393 789 q 227 648 264 714 q 190 496 190 582 l 190 476 q 227 324 190 390 q 328 221 264 258 q 476 183 393 183 q 587 203 539 183 q 672 260 635 222 l 699 232 q 602 167 657 189 q 478 144 547 144 m 447 -31 l 447 164 l 485 164 l 485 -31 l 447 -31 m 447 808 l 447 1003 l 485 1003 l 485 808 l 447 808 z "},"¤":{"ha":833,"x_min":88,"x_max":744,"o":"m 414 222 q 282 257 340 222 q 190 352 224 292 q 157 486 157 413 q 190 621 157 561 q 282 715 224 681 q 414 750 340 750 q 548 715 489 750 q 642 621 607 681 q 676 486 676 561 q 642 352 676 413 q 548 257 607 292 q 414 222 489 222 m 415 258 q 529 289 479 258 q 608 371 579 319 q 638 486 638 422 q 608 601 638 550 q 529 683 579 653 q 415 713 479 713 q 303 683 353 713 q 224 601 253 653 q 194 486 194 550 q 224 371 194 422 q 303 289 253 319 q 415 258 353 258 m 226 650 l 88 788 l 117 817 l 253 678 l 226 650 m 117 160 l 88 188 l 226 326 l 254 299 l 117 160 m 715 160 l 579 297 l 606 325 l 744 188 l 715 160 m 607 651 l 579 678 l 715 817 l 744 788 l 607 651 z "},"$":{"ha":833,"x_min":154,"x_max":682,"o":"m 414 40 q 263 70 331 40 q 154 153 196 100 l 178 181 q 278 106 218 133 q 415 79 339 79 q 579 135 518 79 q 640 281 640 190 q 615 376 640 340 q 547 433 589 413 q 456 467 506 454 q 355 495 406 481 q 263 532 304 510 q 195 593 221 554 q 169 696 169 632 q 203 821 169 768 q 296 903 236 874 q 435 932 356 932 q 558 912 503 932 q 650 851 614 892 l 624 822 q 540 876 588 858 q 435 893 492 893 q 272 840 333 893 q 210 700 210 786 q 235 610 210 643 q 303 557 261 576 q 395 524 344 538 q 497 497 446 511 q 589 458 547 482 q 656 392 631 433 q 682 283 682 351 q 648 153 682 208 q 554 69 614 99 q 414 40 494 40 m 400 -90 l 400 60 l 440 60 l 440 -90 l 400 -90 m 400 918 l 400 1063 l 440 1063 l 440 918 l 400 918 z "},"€":{"ha":833,"x_min":56,"x_max":776,"o":"m 190 592 q 244 803 197 715 q 369 939 290 892 q 553 986 449 986 q 680 965 622 986 q 774 908 738 944 l 751 876 q 665 928 717 910 q 553 946 614 946 q 328 852 415 946 q 233 592 242 758 l 190 592 m 554 -14 q 370 33 450 -14 q 244 167 290 79 q 190 378 197 254 l 233 378 q 330 118 243 210 q 557 26 417 26 q 667 43 615 26 q 753 90 718 60 l 776 58 q 680 5 739 24 q 554 -14 621 -14 m 56 363 l 56 399 l 693 399 l 693 363 l 56 363 m 56 571 l 56 607 l 693 607 l 693 571 l 56 571 z "},"₺":{"ha":833,"x_min":117,"x_max":758,"o":"m 436 0 q 331 41 372 0 q 290 143 290 82 l 290 456 l 331 469 l 331 149 q 363 71 331 101 q 442 40 394 40 l 513 40 q 650 74 604 40 q 729 168 696 107 l 758 147 q 665 40 719 79 q 513 0 611 0 l 436 0 m 117 393 l 117 429 l 582 551 l 582 515 l 117 393 m 117 603 l 117 639 l 582 761 l 582 725 l 117 603 m 290 667 l 290 972 l 331 972 l 331 679 l 290 667 z "},"₹":{"ha":833,"x_min":111,"x_max":747,"o":"m 528 0 l 115 408 l 115 447 l 317 447 q 492 515 428 447 q 557 697 557 582 q 492 870 557 807 q 317 933 428 933 l 113 933 l 113 972 l 747 972 l 747 936 l 411 936 l 415 951 q 549 861 500 931 q 597 697 597 792 q 522 487 597 564 q 315 410 446 410 l 157 410 l 160 419 l 586 0 l 528 0 m 111 678 l 111 714 l 747 714 l 747 678 l 111 678 z "},"£":{"ha":833,"x_min":96,"x_max":751,"o":"m 122 0 l 122 38 l 199 349 l 240 349 l 160 21 l 147 39 l 751 39 l 751 0 l 122 0 m 96 331 l 96 367 l 667 367 l 667 331 l 96 331 m 96 539 l 96 575 l 667 575 l 667 539 l 96 539 m 250 557 l 317 829 q 370 933 332 894 q 486 972 408 972 l 696 972 l 696 932 l 482 932 q 396 902 422 932 q 358 824 369 872 l 292 557 l 250 557 z "},"¥":{"ha":833,"x_min":67,"x_max":767,"o":"m 394 440 l 67 972 l 114 972 l 426 463 l 407 463 l 719 972 l 767 972 l 439 440 l 394 440 m 396 0 l 396 246 l 438 246 l 438 0 l 396 0 m 132 231 l 132 267 l 701 267 l 701 231 l 132 231 m 132 421 l 132 456 l 701 456 l 701 421 l 132 421 z "},"+":{"ha":833,"x_min":106,"x_max":726,"o":"m 397 176 l 397 469 l 106 469 l 106 506 l 397 506 l 397 797 l 435 797 l 435 506 l 726 506 l 726 469 l 435 469 l 435 176 l 397 176 z "},"−":{"ha":833,"x_min":107,"x_max":728,"o":"m 107 468 l 107 504 l 728 504 l 728 468 l 107 468 z "},"×":{"ha":833,"x_min":119,"x_max":713,"o":"m 149 192 l 119 219 l 388 488 l 119 756 l 149 785 l 415 515 l 685 785 l 713 756 l 444 488 l 713 219 l 685 192 l 415 460 l 149 192 z "},"÷":{"ha":833,"x_min":132,"x_max":700,"o":"m 132 468 l 132 504 l 700 504 l 700 468 l 132 468 m 390 217 l 390 290 l 440 290 l 440 217 l 390 217 m 390 685 l 390 758 l 440 758 l 440 685 l 390 685 z "},"=":{"ha":833,"x_min":107,"x_max":728,"o":"m 107 333 l 107 371 l 728 371 l 728 333 l 107 333 m 107 601 l 107 639 l 728 639 l 728 601 l 107 601 z "},"≠":{"ha":833,"x_min":106,"x_max":726,"o":"m 200 163 l 588 813 l 632 813 l 246 163 l 200 163 m 106 333 l 106 371 l 726 371 l 726 333 l 106 333 m 106 601 l 106 639 l 726 639 l 726 601 l 106 601 z "},">":{"ha":833,"x_min":126,"x_max":746,"o":"m 126 204 l 126 250 l 713 494 l 713 481 l 126 724 l 126 771 l 746 508 l 746 467 l 126 204 z "},"<":{"ha":833,"x_min":88,"x_max":707,"o":"m 707 771 l 707 724 l 121 479 l 121 493 l 707 250 l 707 204 l 88 467 l 88 508 l 707 771 z "},"≥":{"ha":833,"x_min":114,"x_max":735,"o":"m 114 297 l 114 340 l 699 560 l 699 547 l 114 765 l 114 807 l 735 574 l 735 532 l 114 297 m 114 149 l 114 185 l 735 185 l 735 149 l 114 149 z "},"≤":{"ha":833,"x_min":99,"x_max":719,"o":"m 719 297 l 100 532 l 100 574 l 719 807 l 719 765 l 135 547 l 135 560 l 719 340 l 719 297 m 99 149 l 99 185 l 719 185 l 719 149 l 99 149 z "},"±":{"ha":833,"x_min":107,"x_max":728,"o":"m 399 313 l 399 560 l 107 560 l 107 597 l 399 597 l 399 844 l 436 844 l 436 597 l 728 597 l 728 560 l 436 560 l 436 313 l 399 313 m 107 149 l 107 185 l 728 185 l 728 149 l 107 149 z "},"≈":{"ha":833,"x_min":108,"x_max":729,"o":"m 558 308 q 478 321 513 308 q 415 350 444 333 q 352 379 385 367 q 276 392 319 392 q 203 381 246 392 q 108 342 160 369 l 108 381 q 194 415 149 401 q 279 428 240 428 q 359 415 325 428 q 423 386 393 403 q 485 357 453 369 q 561 344 518 344 q 635 356 592 344 q 729 393 678 367 l 729 356 q 644 322 689 335 q 558 308 599 308 m 558 549 q 478 561 513 549 q 415 590 444 574 q 352 619 385 607 q 276 632 319 632 q 203 621 246 632 q 108 582 160 610 l 108 621 q 194 654 149 640 q 279 668 240 668 q 359 656 325 668 q 423 626 393 643 q 485 597 453 610 q 561 585 518 585 q 635 596 592 585 q 729 633 678 607 l 729 596 q 644 562 689 575 q 558 549 599 549 z "},"~":{"ha":833,"x_min":110,"x_max":729,"o":"m 558 422 q 478 435 513 422 q 415 464 444 447 q 353 493 386 481 q 278 506 321 506 q 204 494 247 506 q 110 456 161 483 l 110 494 q 196 528 150 515 q 281 542 242 542 q 360 529 326 542 q 424 500 394 517 q 487 471 454 483 q 563 458 519 458 q 636 469 593 458 q 729 508 679 481 l 729 469 q 644 435 690 449 q 558 422 599 422 z "},"^":{"ha":833,"x_min":165,"x_max":668,"o":"m 435 972 l 668 511 l 625 511 l 408 949 l 426 949 l 208 511 l 165 511 l 399 972 l 435 972 z "},"%":{"ha":1004,"x_min":50,"x_max":954,"o":"m 165 0 l 469 469 l 796 972 l 842 972 l 504 453 l 211 0 l 165 0 m 261 556 q 153 583 201 556 q 78 660 106 611 q 50 771 50 710 q 78 882 50 833 q 153 958 106 931 q 261 986 201 986 q 368 958 321 986 q 443 882 415 931 q 471 771 471 833 q 443 660 471 710 q 368 583 415 611 q 261 556 321 556 m 261 592 q 350 616 311 592 q 411 681 389 640 q 433 771 433 721 q 384 898 433 847 q 261 949 335 949 q 137 898 186 949 q 88 771 88 847 q 110 681 88 721 q 172 616 133 640 q 261 592 211 592 m 743 -14 q 636 14 683 -14 q 561 91 589 42 q 533 201 533 140 q 561 313 533 264 q 636 389 589 361 q 743 417 683 417 q 851 389 804 417 q 926 313 899 361 q 954 201 954 264 q 926 91 954 140 q 851 14 899 42 q 743 -14 804 -14 m 743 24 q 832 47 793 24 q 894 111 871 71 q 917 201 917 151 q 867 329 917 278 q 743 381 817 381 q 620 329 669 381 q 571 201 571 278 q 620 75 571 126 q 743 24 669 24 z "},"‰":{"ha":1504,"x_min":50,"x_max":1463,"o":"m 165 0 l 469 469 l 796 972 l 842 972 l 504 453 l 211 0 l 165 0 m 261 556 q 153 583 201 556 q 78 660 106 611 q 50 771 50 710 q 78 882 50 833 q 153 958 106 931 q 261 986 201 986 q 368 958 321 986 q 443 882 415 931 q 471 771 471 833 q 443 660 471 710 q 368 583 415 611 q 261 556 321 556 m 261 592 q 350 616 311 592 q 411 681 389 640 q 433 771 433 721 q 384 898 433 847 q 261 949 335 949 q 137 898 186 949 q 88 771 88 847 q 110 681 88 721 q 172 616 133 640 q 261 592 211 592 m 743 -14 q 636 14 683 -14 q 561 91 589 42 q 533 201 533 140 q 561 313 533 264 q 636 389 589 361 q 743 417 683 417 q 851 389 804 417 q 926 313 899 361 q 954 201 954 264 q 926 91 954 140 q 851 14 899 42 q 743 -14 804 -14 m 743 24 q 832 47 793 24 q 894 111 871 71 q 917 201 917 151 q 867 329 917 278 q 743 381 817 381 q 620 329 669 381 q 571 201 571 278 q 620 75 571 126 q 743 24 669 24 m 1253 -14 q 1145 14 1193 -14 q 1069 91 1097 42 q 1042 201 1042 140 q 1069 313 1042 264 q 1145 389 1097 361 q 1253 417 1193 417 q 1360 389 1313 417 q 1435 313 1407 361 q 1463 201 1463 264 q 1435 91 1463 140 q 1360 14 1407 42 q 1253 -14 1313 -14 m 1253 24 q 1376 75 1326 24 q 1425 201 1425 126 q 1376 329 1425 278 q 1253 381 1326 381 q 1129 329 1179 381 q 1079 201 1079 278 q 1102 111 1079 151 q 1165 47 1125 71 q 1253 24 1204 24 z "},"↑":{"ha":906,"x_min":47,"x_max":857,"o":"m 857 557 l 456 958 l 47 551 l 47 607 l 456 1011 l 857 607 l 857 557 m 471 -39 l 435 -39 l 435 976 l 471 976 l 471 -39 z "},"↗":{"ha":932,"x_min":64,"x_max":821,"o":"m 783 256 l 783 824 l 207 825 l 246 864 l 821 861 l 818 292 l 783 256 m 89 107 l 64 133 l 781 851 l 807 825 l 89 107 z "},"→":{"ha":1203,"x_min":75,"x_max":1125,"o":"m 671 82 l 1072 483 l 665 892 l 721 892 l 1125 483 l 721 82 l 671 82 m 75 468 l 75 504 l 1090 504 l 1090 468 l 75 468 z "},"↘":{"ha":936,"x_min":68,"x_max":825,"o":"m 788 715 l 822 679 l 825 110 l 250 107 l 211 146 l 788 147 l 788 715 m 93 864 l 811 146 l 785 119 l 68 838 l 93 864 z "},"↓":{"ha":903,"x_min":47,"x_max":857,"o":"m 857 414 l 857 364 l 456 -40 l 47 364 l 47 419 l 456 13 l 857 414 m 471 1010 l 471 -6 l 435 -6 l 435 1010 l 471 1010 z "},"↙":{"ha":936,"x_min":113,"x_max":869,"o":"m 150 715 l 150 147 l 726 146 l 688 107 l 113 110 l 115 679 l 150 715 m 844 864 l 869 838 l 153 119 l 126 146 l 844 864 z "},"←":{"ha":1197,"x_min":76,"x_max":1126,"o":"m 531 79 l 481 79 l 76 481 l 481 889 l 536 889 l 129 481 l 531 79 m 1126 465 l 111 465 l 111 501 l 1126 501 l 1126 465 z "},"↖":{"ha":933,"x_min":114,"x_max":871,"o":"m 151 253 l 117 289 l 114 858 l 689 861 l 728 822 l 151 821 l 151 253 m 846 104 l 128 822 l 154 849 l 871 131 l 846 104 z "},"↔":{"ha":1606,"x_min":78,"x_max":1529,"o":"m 532 81 l 482 81 l 78 482 l 482 890 l 538 890 l 131 482 l 532 81 m 1128 467 l 113 467 l 113 503 l 1128 503 l 1128 467 m 1075 81 l 1476 482 l 1069 890 l 1125 890 l 1529 482 l 1125 81 l 1075 81 m 479 467 l 479 503 l 1494 503 l 1494 467 l 479 467 z "},"◌":{"ha":1111,"x_min":50,"x_max":1060,"o":"m 257 75 q 215 108 235 90 q 178 144 196 125 l 203 168 q 238 133 219 150 q 276 104 256 117 l 257 75 m 115 231 q 92 277 103 253 q 74 326 82 301 l 107 336 q 124 291 114 314 q 144 246 133 268 l 115 231 m 451 -6 q 350 25 396 6 l 363 56 q 408 40 385 46 q 456 28 432 33 l 451 -6 m 53 431 q 51 456 51 443 q 50 482 50 468 q 51 508 50 496 q 53 535 51 521 l 88 532 q 85 507 86 519 q 85 482 85 494 q 85 457 85 469 q 88 433 86 444 l 53 431 m 556 -17 l 556 18 l 557 18 q 606 21 581 18 q 656 28 631 24 l 660 -7 q 609 -14 635 -11 q 557 -17 583 -17 l 556 -17 m 107 628 l 74 639 q 93 688 82 664 q 115 735 104 713 l 146 719 q 124 674 133 697 q 107 628 114 651 m 763 24 l 749 56 q 794 77 772 65 q 835 103 815 89 l 856 75 q 763 24 810 42 m 204 797 l 179 821 q 217 858 197 840 q 258 889 238 875 l 278 861 q 239 831 257 847 q 204 797 221 815 m 933 143 l 910 167 q 940 205 925 185 q 967 244 954 225 l 997 229 q 968 185 983 207 q 933 143 953 163 m 365 908 l 351 939 q 401 957 375 950 q 453 969 426 964 l 458 936 q 411 924 435 931 q 365 908 388 918 m 1039 325 l 1006 336 q 1018 383 1013 360 q 1025 432 1024 407 l 1060 429 q 1052 376 1058 403 q 1039 325 1046 350 m 656 936 q 557 944 608 944 l 557 979 q 610 977 583 979 q 661 969 636 975 l 656 936 m 1025 531 q 1018 580 1024 556 q 1006 628 1013 604 l 1039 638 q 1060 533 1056 588 l 1025 531 m 836 860 q 794 887 815 875 q 749 908 772 899 l 763 939 q 810 917 786 929 q 856 889 833 904 l 836 860 m 967 718 q 910 796 942 760 l 933 819 q 997 733 971 779 l 967 718 z "},"̈":{"ha":0,"x_min":267,"x_max":567,"o":"m 528 826 l 528 943 l 567 943 l 567 826 l 528 826 m 267 826 l 267 943 l 306 943 l 306 826 l 267 826 z "},"̇":{"ha":0,"x_min":396,"x_max":438,"o":"m 396 819 l 396 949 l 438 949 l 438 819 l 396 819 z "},"̀":{"ha":0,"x_min":264,"x_max":439,"o":"m 394 790 l 264 975 l 318 975 l 439 790 l 394 790 z "},"́":{"ha":0,"x_min":394,"x_max":569,"o":"m 394 790 l 515 975 l 569 975 l 439 790 l 394 790 z "},"̋":{"ha":0,"x_min":306,"x_max":667,"o":"m 306 790 l 425 975 l 474 975 l 349 790 l 306 790 m 490 790 l 614 975 l 667 975 l 538 790 l 490 790 z "},"̂":{"ha":0,"x_min":219,"x_max":614,"o":"m 219 790 l 396 975 l 439 975 l 614 790 l 568 790 l 404 954 l 428 954 l 265 790 l 219 790 z "},"̌":{"ha":0,"x_min":219,"x_max":614,"o":"m 394 790 l 219 975 l 265 975 l 429 811 l 406 811 l 568 975 l 614 975 l 438 790 l 394 790 z "},"̆":{"ha":0,"x_min":233,"x_max":600,"o":"m 417 783 q 318 804 360 783 q 255 868 276 825 q 233 975 233 911 l 271 975 q 309 856 271 894 q 417 818 347 818 q 524 856 486 818 q 563 975 563 894 l 600 975 q 578 868 600 911 q 516 804 557 825 q 417 783 475 783 z "},"̊":{"ha":0,"x_min":292,"x_max":542,"o":"m 417 769 q 326 804 361 769 q 292 893 292 839 q 326 981 292 946 q 417 1015 361 1015 q 507 981 472 1015 q 542 893 542 946 q 507 804 542 839 q 417 769 472 769 m 417 800 q 483 826 457 800 q 508 893 508 851 q 483 959 508 933 q 417 985 457 985 q 351 959 378 985 q 325 893 325 933 q 351 826 325 851 q 417 800 378 800 z "},"̃":{"ha":0,"x_min":221,"x_max":614,"o":"m 515 797 q 456 818 482 797 q 406 866 429 839 q 361 914 383 893 q 315 935 339 935 q 274 910 289 935 q 257 840 260 885 l 221 840 q 249 935 224 901 q 318 969 275 969 q 374 949 350 969 q 421 900 399 928 q 466 851 443 872 q 515 831 489 831 q 562 858 546 831 q 576 932 578 885 l 613 932 q 588 833 614 868 q 515 797 561 797 z "},"̄":{"ha":0,"x_min":224,"x_max":610,"o":"m 224 817 l 224 853 l 610 853 l 610 817 l 224 817 z "},"̒":{"ha":0,"x_min":396,"x_max":503,"o":"m 396 790 l 396 906 q 405 943 396 928 q 431 967 414 958 q 467 975 447 975 l 503 975 l 503 947 l 467 947 q 429 906 429 947 l 429 860 l 438 860 l 438 790 l 396 790 z "},"̦":{"ha":0,"x_min":331,"x_max":438,"o":"m 331 -279 l 331 -251 l 367 -251 q 404 -210 404 -251 l 404 -164 l 396 -164 l 396 -96 l 438 -96 l 438 -210 q 428 -247 438 -231 q 403 -271 419 -262 q 367 -279 388 -279 l 331 -279 z "},"̧":{"ha":0,"x_min":335,"x_max":576,"o":"m 469 -279 l 335 -279 l 335 -249 l 469 -249 q 522 -231 504 -249 q 540 -186 540 -212 q 522 -144 540 -161 q 469 -126 504 -126 l 390 -126 l 400 6 l 435 6 l 429 -110 l 414 -96 l 472 -96 q 549 -122 522 -96 q 576 -186 576 -147 q 549 -253 576 -228 q 469 -279 521 -279 z "},"̨":{"ha":0,"x_min":264,"x_max":417,"o":"m 351 -278 q 285 -253 307 -278 q 264 -194 264 -228 q 275 -148 264 -171 q 304 -100 286 -125 l 390 19 l 417 0 l 331 -121 q 311 -156 319 -139 q 303 -192 303 -174 q 316 -227 303 -211 q 356 -243 329 -243 l 408 -243 l 408 -278 l 351 -278 z "},"¨":{"ha":833,"x_min":267,"x_max":567,"o":"m 528 826 l 528 943 l 567 943 l 567 826 l 528 826 m 267 826 l 267 943 l 306 943 l 306 826 l 267 826 z "},"˙":{"ha":833,"x_min":396,"x_max":438,"o":"m 396 819 l 396 949 l 438 949 l 438 819 l 396 819 z "},"`":{"ha":833,"x_min":264,"x_max":439,"o":"m 394 790 l 264 975 l 318 975 l 439 790 l 394 790 z "},"´":{"ha":833,"x_min":394,"x_max":569,"o":"m 394 790 l 515 975 l 569 975 l 439 790 l 394 790 z "},"˝":{"ha":833,"x_min":306,"x_max":667,"o":"m 306 790 l 425 975 l 474 975 l 349 790 l 306 790 m 490 790 l 614 975 l 667 975 l 538 790 l 490 790 z "},"ˆ":{"ha":833,"x_min":219,"x_max":614,"o":"m 219 790 l 396 975 l 439 975 l 614 790 l 568 790 l 404 954 l 428 954 l 265 790 l 219 790 z "},"ˇ":{"ha":833,"x_min":219,"x_max":614,"o":"m 394 790 l 219 975 l 265 975 l 429 811 l 406 811 l 568 975 l 614 975 l 438 790 l 394 790 z "},"˘":{"ha":833,"x_min":233,"x_max":600,"o":"m 417 783 q 318 804 360 783 q 255 868 276 825 q 233 975 233 911 l 271 975 q 309 856 271 894 q 417 818 347 818 q 524 856 486 818 q 563 975 563 894 l 600 975 q 578 868 600 911 q 516 804 557 825 q 417 783 475 783 z "},"˚":{"ha":833,"x_min":292,"x_max":542,"o":"m 417 769 q 326 804 361 769 q 292 893 292 839 q 326 981 292 946 q 417 1015 361 1015 q 507 981 472 1015 q 542 893 542 946 q 507 804 542 839 q 417 769 472 769 m 417 800 q 483 826 457 800 q 508 893 508 851 q 483 959 508 933 q 417 985 457 985 q 351 959 378 985 q 325 893 325 933 q 351 826 325 851 q 417 800 378 800 z "},"˜":{"ha":833,"x_min":221,"x_max":614,"o":"m 515 797 q 456 818 482 797 q 406 866 429 839 q 361 914 383 893 q 315 935 339 935 q 274 910 289 935 q 257 840 260 885 l 221 840 q 249 935 224 901 q 318 969 275 969 q 374 949 350 969 q 421 900 399 928 q 466 851 443 872 q 515 831 489 831 q 562 858 546 831 q 576 932 578 885 l 613 932 q 588 833 614 868 q 515 797 561 797 z "},"¯":{"ha":833,"x_min":224,"x_max":610,"o":"m 224 817 l 224 853 l 610 853 l 610 817 l 224 817 z "},"¸":{"ha":833,"x_min":335,"x_max":576,"o":"m 469 -279 l 335 -279 l 335 -249 l 469 -249 q 522 -231 504 -249 q 540 -186 540 -212 q 522 -144 540 -161 q 469 -126 504 -126 l 390 -126 l 400 6 l 435 6 l 429 -110 l 414 -96 l 472 -96 q 549 -122 522 -96 q 576 -186 576 -147 q 549 -253 576 -228 q 469 -279 521 -279 z "},"˛":{"ha":833,"x_min":264,"x_max":417,"o":"m 351 -278 q 285 -253 307 -278 q 264 -194 264 -228 q 275 -148 264 -171 q 304 -100 286 -125 l 390 19 l 417 0 l 331 -121 q 311 -156 319 -139 q 303 -192 303 -174 q 316 -227 303 -211 q 356 -243 329 -243 l 408 -243 l 408 -278 l 351 -278 z "}}}
